<svg width="428" height="294" viewBox="0 0 428 294" fill="none" xmlns="http://www.w3.org/2000/svg">
<path d="M428 280.026H0V280.24H428V280.026Z" fill="#EBEBEB"/>
<path d="M385.114 293.786H366.556V294H385.114V293.786Z" fill="#EBEBEB"/>
<path d="M295.038 289.348H265.839V289.562H295.038V289.348Z" fill="#EBEBEB"/>
<path d="M377.599 285.85H339.481V286.064H377.599V285.85Z" fill="#EBEBEB"/>
<path d="M148.105 290.16H138.569V290.374H148.105V290.16Z" fill="#EBEBEB"/>
<path d="M130.942 290.16H98.0806V290.374H130.942V290.16Z" fill="#EBEBEB"/>
<path d="M80.4727 286.551H56.7615V286.765H80.4727V286.551Z" fill="#EBEBEB"/>
<path d="M202.872 241.886H37.5955C36.2992 241.886 35.056 241.371 34.1394 240.456C33.2227 239.54 32.7078 238.298 32.7078 237.003V4.88304C32.7078 3.58798 33.2227 2.34596 34.1394 1.43021C35.056 0.514462 36.2992 0 37.5955 0L202.872 0C204.168 0 205.412 0.514462 206.328 1.43021C207.245 2.34596 207.76 3.58798 207.76 4.88304V237.003C207.76 237.644 207.633 238.279 207.388 238.871C207.142 239.464 206.782 240.002 206.328 240.456C205.874 240.909 205.335 241.269 204.742 241.514C204.149 241.759 203.514 241.886 202.872 241.886V241.886ZM37.5955 0.213793C36.356 0.213793 35.1672 0.70573 34.2907 1.58138C33.4142 2.45704 32.9218 3.64468 32.9218 4.88304V237.003C32.9218 238.241 33.4142 239.429 34.2907 240.304C35.1672 241.18 36.356 241.672 37.5955 241.672H202.872C204.112 241.672 205.3 241.18 206.177 240.304C207.053 239.429 207.546 238.241 207.546 237.003V4.88304C207.546 3.64468 207.053 2.45704 206.177 1.58138C205.3 0.70573 204.112 0.213793 202.872 0.213793H37.5955Z" fill="#EBEBEB"/>
<path d="M388.033 241.886H222.74C221.443 241.886 220.2 241.371 219.284 240.456C218.367 239.54 217.852 238.298 217.852 237.003V4.88304C217.852 3.58798 218.367 2.34596 219.284 1.43021C220.2 0.514462 221.443 0 222.74 0L388.033 0C389.327 0.00452576 390.566 0.520985 391.479 1.43624C392.391 2.3515 392.904 3.59093 392.904 4.88304V237.003C392.904 238.295 392.391 239.534 391.479 240.449C390.566 241.365 389.327 241.881 388.033 241.886V241.886ZM222.74 0.213793C222.126 0.213793 221.518 0.334567 220.951 0.569218C220.384 0.80387 219.869 1.1478 219.435 1.58138C219.001 2.01496 218.657 2.5297 218.422 3.0962C218.187 3.66269 218.066 4.26986 218.066 4.88304V237.003C218.066 238.241 218.558 239.429 219.435 240.304C220.311 241.18 221.5 241.672 222.74 241.672H388.033C389.273 241.672 390.462 241.18 391.338 240.304C392.215 239.429 392.707 238.241 392.707 237.003V4.88304C392.707 3.64468 392.215 2.45704 391.338 1.58138C390.462 0.70573 389.273 0.213793 388.033 0.213793H222.74Z" fill="#EBEBEB"/>
<path d="M184.956 124.795L185.341 113.558L178.433 111.301C178.141 107.507 177.525 103.745 176.593 100.055L182.448 95.7794L178.476 85.1496L171.234 85.7311C169.52 82.3296 167.515 79.0822 165.242 76.0249L168.992 69.7736L161.288 61.5554L154.816 64.8649C151.905 62.3792 148.796 60.1341 145.52 58.1518L146.564 50.9769L136.292 46.3162L131.584 51.8235C127.952 50.6647 124.23 49.8066 120.456 49.258L118.744 42.2199L107.462 41.8351L105.168 48.7449C101.358 49.0462 97.5784 49.6612 93.8691 50.5835L89.5206 44.7683L78.9661 48.6679L79.5482 55.9027C76.1474 57.6453 72.8976 59.6677 69.8326 61.9488L63.6009 58.2117L55.3405 65.9082L58.6532 72.4075C56.1645 75.2997 53.9306 78.4012 51.9764 81.6776L44.7946 80.6001L40.1037 90.8622L45.6506 95.5656C44.4799 99.1917 43.6208 102.911 43.0826 106.683L35.9521 108.445L35.5669 119.681L42.5005 121.939C42.7884 125.745 43.4041 129.519 44.3409 133.219L38.4859 137.495L42.4663 148.048L49.708 147.466C51.4223 150.868 53.427 154.115 55.7 157.172L51.9507 163.424L59.6547 171.642L66.1261 168.332C69.0275 170.82 72.1313 173.063 75.4051 175.037L74.3266 182.212L84.5986 186.872L89.3323 181.365C92.9648 182.524 96.6867 183.382 100.46 183.931L102.172 190.969L113.454 191.354L115.68 184.452C119.488 184.151 123.264 183.536 126.971 182.614L131.251 188.429L141.814 184.487L141.257 177.252C144.654 175.499 147.904 173.475 150.973 171.197L157.204 174.943L165.465 167.246L162.152 160.747C164.641 157.855 166.875 154.753 168.829 151.477L176.011 152.554L180.702 142.292L175.155 137.589C176.329 133.964 177.188 130.244 177.723 126.472L184.956 124.795ZM108.943 161.2C100.117 160.901 91.577 157.993 84.4049 152.844C77.2327 147.695 71.7501 140.537 68.6504 132.275C65.5508 124.013 64.9734 115.018 66.9913 106.428C69.0092 97.8386 73.5318 90.0395 79.9869 84.0178C86.442 77.996 94.5398 74.022 103.256 72.5986C111.972 71.1751 120.915 72.366 128.953 76.0207C136.992 79.6753 143.765 85.6296 148.416 93.1303C153.067 100.631 155.386 109.341 155.082 118.159C154.675 129.977 149.588 141.151 140.937 149.222C132.287 157.293 120.781 161.602 108.952 161.2H108.943Z" fill="#EBEBEB"/>
<path d="M377.496 87.6296L380.329 84.9871L379.199 82.7551C380.046 81.747 380.805 80.6684 381.468 79.5311L383.95 79.9074L385.559 76.367L383.651 74.7421C384.06 73.4933 384.361 72.2115 384.549 70.911L386.989 70.3038L387.117 66.4213L384.729 65.6516C384.626 64.3399 384.417 63.0386 384.104 61.7606L386.116 60.2641L384.746 56.6296L382.255 56.8263C381.655 55.6536 380.96 54.5324 380.175 53.474L381.468 51.336L378.814 48.4969L376.571 49.6C375.569 48.7467 374.499 47.9773 373.37 47.2996L373.73 44.8196L370.194 43.2034L368.568 45.1104C367.313 44.7196 366.027 44.4336 364.724 44.2552L364.117 41.8265L360.23 41.6897L359.451 44.0842C358.137 44.1826 356.834 44.3943 355.557 44.717L354.067 42.7074L350.421 44.0671L350.626 46.5642C349.45 47.16 348.328 47.8552 347.271 48.6423L345.113 47.3509L342.28 49.9934L343.419 52.234C342.561 53.2321 341.79 54.3022 341.116 55.4323L338.634 55.0561L337.024 58.5965L338.933 60.2213C338.524 61.4701 338.223 62.752 338.034 64.0525L335.595 64.6596L335.466 68.5421L337.855 69.3118C337.955 70.6239 338.164 71.9253 338.479 73.2028L336.468 74.6908L337.837 78.3253L340.337 78.1372C340.931 79.3122 341.621 80.4363 342.4 81.498L341.107 83.6359L343.761 86.4751L345.987 85.3377C346.989 86.1911 348.059 86.9605 349.188 87.6382L348.82 90.1096L352.355 91.7259L353.982 89.8274C355.238 90.2156 356.523 90.5016 357.825 90.6826L358.433 93.1113L362.319 93.2481L363.098 90.8536C364.412 90.7552 365.715 90.5435 366.993 90.2208L368.482 92.2304L372.129 90.8707L371.923 88.3736C373.1 87.7787 374.222 87.0834 375.279 86.2955L377.496 87.6296ZM357.243 71.2701C356.495 70.4708 356 69.4676 355.823 68.3875C355.645 67.3074 355.792 66.199 356.245 65.2024C356.698 64.2058 357.437 63.3659 358.368 62.7888C359.299 62.2118 360.38 61.9236 361.475 61.9607C362.57 61.9978 363.63 62.3586 364.52 62.9973C365.409 63.636 366.089 64.524 366.474 65.549C366.858 66.5739 366.93 67.6898 366.679 68.7554C366.429 69.8209 365.868 70.7884 365.067 71.5352C363.994 72.5359 362.567 73.07 361.1 73.0203C359.633 72.9706 358.246 72.3411 357.243 71.2701V71.2701Z" fill="#EBEBEB"/>
<path d="M273.92 203.001L265.069 196.895C264.198 193.712 263.005 190.626 261.508 187.685L263.776 178.791L250.936 165.057L241.897 166.707C239.061 164.998 236.058 163.583 232.935 162.483V162.483L227.439 153.238L208.607 152.597L202.495 161.44C199.301 162.325 196.207 163.534 193.259 165.048L184.365 162.782L170.618 175.61L172.27 184.623C170.57 187.461 169.17 190.467 168.093 193.594L158.839 199.084L158.197 217.898L167.057 224.013C167.912 227.213 169.103 230.315 170.609 233.266V233.266L168.349 242.134L181.189 255.868L190.169 254.226C193.029 255.922 196.055 257.323 199.2 258.408L204.687 267.635L223.519 268.276L229.63 259.442C232.839 258.574 235.951 257.382 238.918 255.885L247.778 258.143L261.525 245.315L259.873 236.301C261.574 233.461 262.974 230.452 264.05 227.322V227.322L273.304 221.832L273.92 203.001ZM215.327 231.555C211.146 231.411 207.102 230.031 203.707 227.591C200.311 225.15 197.715 221.759 196.249 217.845C194.782 213.931 194.51 209.671 195.467 205.603C196.424 201.534 198.567 197.841 201.625 194.989C204.683 192.138 208.518 190.256 212.647 189.582C216.775 188.908 221.011 189.472 224.818 191.203C228.626 192.933 231.834 195.753 234.037 199.305C236.241 202.858 237.341 206.983 237.198 211.159C237.003 216.763 234.589 222.059 230.486 225.884C226.383 229.709 220.927 231.749 215.318 231.555H215.327Z" fill="#EBEBEB"/>
<path d="M294.079 149.655H294.019L279.193 149.151C278.893 149.143 278.6 149.061 278.34 148.911C278.08 148.762 277.861 148.55 277.704 148.296L273.715 141.582C271.559 140.797 269.475 139.83 267.483 138.692L261.08 139.838C260.782 139.892 260.475 139.871 260.188 139.775C259.901 139.679 259.642 139.513 259.436 139.291L249.31 128.464C249.098 128.239 248.948 127.964 248.873 127.665C248.798 127.365 248.801 127.052 248.882 126.754L250.5 120.417C249.499 118.363 248.68 116.225 248.052 114.029L241.606 109.582C241.357 109.41 241.155 109.178 241.018 108.907C240.882 108.637 240.816 108.337 240.827 108.034L241.332 93.2224C241.34 92.9229 241.422 92.63 241.572 92.3702C241.721 92.1105 241.933 91.8919 242.188 91.7344L248.925 87.7408C249.706 85.5948 250.671 83.5204 251.81 81.5408L250.628 75.1013C250.575 74.8037 250.597 74.4973 250.692 74.2104C250.788 73.9235 250.954 73.6653 251.176 73.4594L262.004 63.3683C262.229 63.1567 262.505 63.0063 262.805 62.9314C263.104 62.8566 263.418 62.8598 263.716 62.9407L270.077 64.5656C272.129 63.5679 274.262 62.7468 276.454 62.1112L280.905 55.6718C281.07 55.416 281.301 55.209 281.574 55.0722C281.846 54.9354 282.15 54.8737 282.454 54.8936L297.28 55.3981C297.58 55.4059 297.873 55.4882 298.133 55.6375C298.393 55.7868 298.612 55.9984 298.77 56.2533L302.767 62.9835C304.908 63.7672 306.979 64.7313 308.956 65.8654L315.419 64.6853C315.717 64.6316 316.023 64.6536 316.311 64.7492C316.598 64.8449 316.856 65.0111 317.062 65.2326L327.163 76.1104C327.375 76.3351 327.526 76.6104 327.6 76.9098C327.675 77.2092 327.672 77.5229 327.591 77.8208L325.965 84.1832C326.963 86.2333 327.785 88.3647 328.422 90.5543L334.859 95.0012C335.108 95.1732 335.31 95.4051 335.446 95.6756C335.582 95.9461 335.648 96.2465 335.638 96.549L335.133 111.361C335.125 111.66 335.042 111.953 334.893 112.213C334.744 112.473 334.532 112.691 334.277 112.849L327.54 116.842C326.759 118.985 325.794 121.057 324.655 123.034L325.836 129.482C325.89 129.779 325.868 130.086 325.772 130.373C325.677 130.66 325.51 130.918 325.289 131.124L314.452 141.232C314.227 141.444 313.952 141.595 313.652 141.67C313.352 141.745 313.038 141.741 312.74 141.659L306.448 139.992C304.384 140.99 302.239 141.811 300.037 142.446L295.594 148.877C295.425 149.121 295.198 149.32 294.934 149.456C294.67 149.592 294.376 149.66 294.079 149.655ZM280.306 145.568L293.146 146.004L297.426 139.846C297.669 139.494 298.03 139.239 298.444 139.128C300.855 138.474 303.192 137.577 305.421 136.451V136.451C305.808 136.26 306.252 136.214 306.671 136.323L312.663 137.854L322.079 129.088L321 122.965C320.921 122.532 321.003 122.085 321.231 121.708C322.5 119.589 323.547 117.346 324.356 115.012C324.493 114.592 324.779 114.236 325.16 114.012L331.597 110.189L332.034 97.3615L325.871 93.0856C325.549 92.8627 325.309 92.5416 325.186 92.1706V92.0252C324.534 89.6465 323.642 87.34 322.524 85.141C322.326 84.7498 322.277 84.2999 322.387 83.8754L323.928 77.8208L315.068 68.4138L308.913 69.5427C308.483 69.6221 308.039 69.5431 307.664 69.3203C305.536 68.0494 303.284 66.9979 300.944 66.1818C300.812 66.1354 300.686 66.0752 300.567 66.0023C300.318 65.8493 300.109 65.638 299.96 65.3865L296.176 59.0069L283.336 58.5708L279.056 64.7281C278.804 65.0923 278.426 65.3511 277.995 65.4549C275.614 66.1071 273.305 66.9981 271.104 68.1145C270.712 68.3124 270.262 68.361 269.837 68.2514L263.751 66.7035L254.335 75.469L255.456 81.6006C255.525 81.9846 255.468 82.3806 255.293 82.7294L255.208 82.8748C253.937 85.0018 252.89 87.2543 252.083 89.5965C251.942 89.9986 251.663 90.3379 251.296 90.5543L244.85 94.3769L244.414 107.205L250.585 111.48C250.938 111.724 251.193 112.084 251.304 112.498C251.947 114.899 252.839 117.227 253.967 119.442C254.03 119.564 254.079 119.693 254.112 119.827C254.181 120.108 254.181 120.401 254.112 120.682L252.571 126.711L261.345 136.118L267.457 134.998C267.884 134.921 268.325 135 268.698 135.22C270.839 136.487 273.101 137.536 275.452 138.35C275.872 138.484 276.228 138.767 276.454 139.145L280.306 145.568ZM288.241 129.353H287.291C280.166 129.228 273.379 126.297 268.407 121.197C263.435 116.097 260.68 109.241 260.743 102.123C260.806 95.0036 263.68 88.1976 268.741 83.1858C273.802 78.174 280.64 75.362 287.766 75.362C294.892 75.362 301.729 78.174 306.79 83.1858C311.851 88.1976 314.726 95.0036 314.789 102.123C314.851 109.241 312.097 116.097 307.125 121.197C302.153 126.297 295.366 129.228 288.241 129.353ZM288.241 78.8213C282.047 78.934 276.149 81.4857 271.828 85.9213C267.508 90.3568 265.116 96.3172 265.173 102.506C265.229 108.694 267.729 114.61 272.13 118.966C276.53 123.322 282.474 125.766 288.669 125.766C294.864 125.766 300.808 123.322 305.208 118.966C309.608 114.61 312.109 108.694 312.165 102.506C312.222 96.3172 309.829 90.3568 305.509 85.9213C301.189 81.4857 295.291 78.934 289.097 78.8213H288.241Z" fill="#EBEBEB"/>
<path d="M328.225 43.0751L322.079 41.4246L320.435 35.293L322.84 32.89L325.374 38.1407L330.63 40.672L328.225 43.0751Z" fill="#E0E0E0"/>
<path d="M328.601 38.9702C328.893 38.7106 329.128 38.3944 329.292 38.0408C329.457 37.6873 329.547 37.3039 329.558 36.9142C329.569 36.5244 329.501 36.1365 329.356 35.7743C329.212 35.412 328.996 35.0829 328.72 34.8072C328.444 34.5315 328.114 34.315 327.752 34.1709C327.389 34.0268 327.001 33.9582 326.611 33.9693C326.22 33.9803 325.837 34.0708 325.483 34.2352C325.129 34.3996 324.812 34.6344 324.552 34.9253L327.608 30.3501L331.709 32.4196L332.565 36.6955L328.601 38.9702Z" fill="#E0E0E0"/>
<path d="M322.353 33.3518L326.855 28.8535L332.984 30.5297L334.636 36.6613L330.134 41.1595L323.996 39.509L322.353 33.3518ZM330.527 37.029C330.929 36.6287 331.203 36.1183 331.315 35.5623C331.426 35.0063 331.37 34.4298 331.153 33.9058C330.936 33.3818 330.569 32.9338 330.097 32.6186C329.625 32.3034 329.07 32.1352 328.503 32.1352C327.935 32.1352 327.381 32.3034 326.909 32.6186C326.437 32.9338 326.069 33.3818 325.853 33.9058C325.636 34.4298 325.58 35.0063 325.691 35.5623C325.802 36.1183 326.077 36.6287 326.478 37.029C327.014 37.5656 327.739 37.8694 328.498 37.8742C329.256 37.879 329.985 37.5845 330.527 37.0547V37.029Z" fill="#F0F0F0"/>
<path d="M77.2284 206.738L80.524 205.857L81.4056 202.565L80.1216 201.282L78.7606 204.096L75.9358 205.455L77.2284 206.738Z" fill="#E0E0E0"/>
<path d="M77.04 204.54C76.8813 204.401 76.7528 204.232 76.6625 204.041C76.5722 203.851 76.522 203.644 76.515 203.433C76.508 203.223 76.5444 203.013 76.6219 202.817C76.6994 202.621 76.8163 202.443 76.9655 202.294C77.1146 202.145 77.2928 202.028 77.489 201.951C77.6852 201.873 77.8952 201.837 78.106 201.844C78.3168 201.851 78.524 201.901 78.7146 201.991C78.9052 202.081 79.0753 202.21 79.2142 202.368L77.5793 199.914L75.328 201.017L74.8486 203.326L77.04 204.54Z" fill="#E0E0E0"/>
<path d="M80.3785 201.539L77.9646 199.127L74.669 199.982L73.813 203.275L76.1841 205.712L79.4797 204.857L80.3785 201.539ZM75.9958 203.531C75.7796 203.316 75.6322 203.042 75.5722 202.743C75.5122 202.444 75.5423 202.135 75.6587 201.853C75.7752 201.571 75.9727 201.33 76.2262 201.161C76.4797 200.992 76.7779 200.901 77.0829 200.901C77.3879 200.901 77.6861 200.992 77.9396 201.161C78.1932 201.33 78.3906 201.571 78.5071 201.853C78.6235 202.135 78.6536 202.444 78.5936 202.743C78.5336 203.042 78.3862 203.316 78.17 203.531C77.8813 203.818 77.4904 203.98 77.0829 203.98C76.6754 203.98 76.2845 203.818 75.9958 203.531V203.531Z" fill="#F0F0F0"/>
<path d="M65.3642 26.2624L68.0948 28.9904C68.4385 29.3247 68.8992 29.5118 69.3788 29.5118C69.8585 29.5118 70.3192 29.3247 70.6628 28.9904V28.9904C70.9975 28.6471 71.1847 28.1868 71.1847 27.7076C71.1847 27.2284 70.9975 26.7682 70.6628 26.4249L67.9322 23.6969C67.5886 23.3625 67.1279 23.1754 66.6482 23.1754C66.1685 23.1754 65.7078 23.3625 65.3642 23.6969V23.6969C65.0296 24.0402 64.8423 24.5004 64.8423 24.9796C64.8423 25.4588 65.0296 25.9191 65.3642 26.2624V26.2624Z" fill="#F0F0F0"/>
<path d="M66.015 26.621C68.1239 25.8641 69.257 23.6471 68.5457 21.6691C67.8345 19.6912 65.5483 18.7012 63.4394 19.4581C61.3305 20.215 60.1974 22.432 60.9087 24.41C61.6199 26.3879 63.9061 27.3778 66.015 26.621Z" fill="#E0E0E0"/>
<path d="M60.4553 23.9467L60.8518 25.0493L68.9883 22.1292L68.5919 21.0266L60.4553 23.9467Z" fill="#F0F0F0"/>
<path d="M110.15 99.7388C110.099 99.7483 110.047 99.7483 109.996 99.7388C106.144 98.2508 103.841 96.7885 102.643 95.0439C101.705 95.219 100.735 95.0871 99.878 94.6677C98.8762 94.1784 98.0465 93.3972 97.4983 92.4271C97.2068 92.6514 96.8634 92.7987 96.4999 92.8555C96.1364 92.9123 95.7644 92.8767 95.4183 92.7521C94.3645 92.3556 93.4649 91.6336 92.8502 90.6911C92.4674 90.9707 91.9957 91.1014 91.5234 91.0588C88.9554 90.8536 85.5314 85.791 85.2832 80.3948C85.2832 80.2814 85.3283 80.1727 85.4086 80.0925C85.4888 80.0123 85.5977 79.9672 85.7112 79.9672C85.8247 79.9672 85.9336 80.0123 86.0138 80.0925C86.0941 80.1727 86.1392 80.2814 86.1392 80.3948C86.3703 85.5259 89.6574 90.0839 91.5919 90.2379C91.8786 90.2666 92.1649 90.1805 92.388 89.9984C91.7192 88.7805 91.2992 87.442 91.1522 86.0606C91.0053 84.6792 91.1344 83.2824 91.532 81.9512C92.2682 79.3857 92.9187 78.3766 93.6977 78.5305C95.17 78.8983 94.9817 84.5168 94.1942 88.1855C94.0737 88.8478 93.8267 89.4807 93.4666 90.0497C93.9717 90.8947 94.7333 91.5568 95.6408 91.9397C95.8828 92.0317 96.1461 92.0524 96.3995 91.9994C96.6529 91.9463 96.8857 91.8217 97.0703 91.6404C96.3941 89.9813 96.2571 87.7322 97.173 84.8503C98.3714 81.0619 98.8851 80.9592 99.1504 80.8994C99.2502 80.8784 99.3539 80.8848 99.4503 80.918C99.5468 80.9511 99.6324 81.0097 99.6983 81.0875C100.486 81.9427 99.5442 87.8605 98.5512 90.7681C98.4349 91.118 98.2738 91.4514 98.0719 91.7601C98.527 92.688 99.2763 93.4396 100.203 93.898C100.806 94.1929 101.477 94.32 102.146 94.2657C102.069 94.1033 102.001 93.9408 101.941 93.7697C101.265 91.9311 101.59 89.8103 102.951 87.2875C103.858 85.5772 104.595 84.8332 105.271 84.8332C105.453 84.8356 105.63 84.89 105.782 84.9901C105.933 85.0901 106.053 85.2316 106.127 85.3976C106.872 86.7744 106.332 91.3154 104.86 93.5645C104.518 94.0847 104.038 94.4993 103.473 94.7617C104.62 96.2668 106.794 97.5924 110.278 98.9435C110.392 98.9639 110.493 99.0286 110.558 99.1232C110.624 99.2178 110.65 99.3347 110.629 99.4481C110.609 99.5615 110.544 99.6621 110.45 99.7279C110.355 99.7936 110.238 99.8191 110.124 99.7987L110.15 99.7388ZM105.288 85.6541C105.288 85.6541 104.8 85.6541 103.721 87.6638C102.48 89.9557 102.172 91.8456 102.754 93.4448C102.827 93.6413 102.913 93.8327 103.011 94.0177C103.471 93.8209 103.864 93.494 104.141 93.077C105.339 91.247 105.913 87.4842 105.468 86.0133C105.408 85.7055 105.288 85.6541 105.288 85.6541ZM99.1504 82.0539C98.6845 83.0264 98.3008 84.0362 98.0034 85.0726C97.3443 86.8668 97.2312 88.8157 97.6781 90.674L97.7551 90.4602C98.6486 87.7455 99.1248 84.9112 99.1675 82.0539H99.1504ZM93.5094 79.3601C93.3638 79.4969 92.953 80.0356 92.3538 82.1137C91.6564 84.4593 91.8799 86.9821 92.9787 89.1689C93.153 88.786 93.2822 88.3843 93.3638 87.9717C94.2712 83.7642 94.0144 79.9672 93.535 79.3601H93.5094Z" fill="#263238"/>
<path d="M142.695 144.524C141.327 144.537 139.979 144.186 138.792 143.507C138.696 143.448 138.628 143.354 138.601 143.245C138.574 143.136 138.591 143.021 138.648 142.925C138.705 142.828 138.798 142.758 138.907 142.729C139.015 142.701 139.131 142.716 139.228 142.771C142.284 144.558 146.23 143.31 147.044 142.01C147.103 141.928 147.145 141.835 147.167 141.737C147.189 141.638 147.191 141.536 147.172 141.437C145.608 141.523 144.061 141.08 142.781 140.18C140.606 138.82 140.435 138.418 140.444 138.093C140.448 138 140.477 137.909 140.528 137.831C140.58 137.753 140.651 137.69 140.735 137.649C141.591 137.221 145.451 138.991 147.061 140.052C147.256 140.177 147.434 140.327 147.591 140.496C148.225 140.351 148.795 140.007 149.218 139.513C149.456 139.236 149.628 138.908 149.723 138.555H149.552C148.182 138.692 146.812 138.102 145.349 136.759C144.347 135.827 143.953 135.194 144.082 134.681C144.122 134.54 144.201 134.413 144.31 134.314C144.419 134.216 144.553 134.151 144.698 134.125C145.879 133.835 148.807 135.075 149.997 136.383C150.259 136.67 150.447 137.016 150.545 137.392C151.657 136.87 152.847 135.682 154.243 133.741C154.312 133.659 154.41 133.607 154.516 133.594C154.622 133.581 154.73 133.609 154.817 133.671C154.904 133.733 154.964 133.826 154.986 133.931C155.008 134.035 154.99 134.144 154.936 134.237C153.318 136.494 151.974 137.777 150.656 138.299C150.584 138.93 150.325 139.526 149.911 140.009C149.42 140.584 148.772 141.003 148.045 141.215C148.086 141.419 148.086 141.629 148.044 141.833C148.003 142.037 147.922 142.231 147.805 142.403C147.044 143.669 144.972 144.524 142.695 144.524ZM141.933 138.589C142.224 138.803 142.635 139.085 143.226 139.445C144.147 140.062 145.204 140.45 146.307 140.573C144.927 139.764 143.46 139.113 141.933 138.632V138.589ZM144.921 134.955C145.166 135.418 145.507 135.823 145.922 136.144C147.198 137.315 148.353 137.854 149.457 137.717H149.731C149.672 137.453 149.545 137.208 149.363 137.007C148.156 135.699 145.52 134.861 144.921 134.998V134.955Z" fill="#263238"/>
<path d="M154.029 143.387L140.692 145.807L128.58 79.7791L102.848 84.4484L60.9043 158.848L65.4069 183.4L119.206 173.6L122.887 193.68L148.619 189.01L144.938 168.931L158.274 166.511L154.029 143.387ZM86.5329 155.642L108.789 116.671L114.961 150.51L86.5329 155.642Z" fill="#FC6733"/>
<path d="M261.448 75.2552C261.043 71.1039 260.123 67.019 258.709 63.0947C257.257 59.334 255.236 55.8182 252.717 52.6701C249.738 49.0028 246.038 45.9846 241.846 43.802C237.28 41.2992 231.225 39.5575 223.681 38.5769C208.022 36.5416 195.816 39.318 187.062 46.9062C178.308 54.4945 172.544 69.0324 169.77 90.5201C168.66 98.5485 168.374 106.669 168.914 114.756C169.485 122.167 170.849 128.133 173.006 132.654C175.746 138.785 180.086 144.067 185.572 147.945C190.976 151.731 198.381 154.236 207.785 155.462C224.563 157.645 236.995 154.427 245.081 145.807C253.168 137.187 258.535 122.62 261.183 102.108C262.362 93.2008 262.451 84.1836 261.448 75.2552Z" fill="#FC6733"/>
<path d="M215.515 146.645C213.461 146.577 211.235 146.389 209.001 146.098C201.168 145.08 195.099 143.096 190.982 140.206C186.866 137.301 183.612 133.339 181.566 128.738V128.652C179.923 125.232 178.844 120.314 178.373 114.114C177.879 106.667 178.143 99.1885 179.161 91.7943C182.217 68.0889 188.525 58.1945 193.285 54.0726C198.832 49.2665 206.313 47.0944 216.166 47.4279C218.186 47.4963 220.326 47.6759 222.517 47.9667C228.843 48.8218 233.842 50.1901 237.386 52.1228C240.449 53.6973 243.16 55.8763 245.355 58.5281C247.276 60.9227 248.82 63.5959 249.935 66.4555C251.072 69.6478 251.811 72.9682 252.135 76.3413C253.028 84.5131 252.927 92.7629 251.835 100.91C249.464 119.331 244.876 132.27 238.208 139.393C233.26 144.67 225.838 147.09 215.515 146.705V146.645Z" fill="#263238"/>
<path d="M232.267 75.5375L232.378 72.2963L230.384 71.6464C230.3 70.5501 230.122 69.4629 229.853 68.3968L231.565 67.1568L230.392 64.138L228.304 64.309C227.814 63.3296 227.241 62.394 226.592 61.5126L227.67 59.7082L225.427 57.2966L223.561 58.2544C222.711 57.5431 221.803 56.9024 220.848 56.3388L221.147 54.2693L218.186 52.9267L216.833 54.5173C215.786 54.1787 214.712 53.927 213.623 53.7647L213.144 51.7294L209.891 51.6183L209.249 53.6108C208.152 53.6979 207.064 53.8753 205.996 54.141L204.746 52.4307L201.699 53.568L201.87 55.6547C200.892 56.1467 199.955 56.7187 199.071 57.365L197.274 56.2875L194.894 58.5024L195.853 60.3752C195.135 61.2103 194.49 62.1059 193.927 63.0519L191.855 62.7441L190.503 65.703L192.103 67.0541C191.761 68.0997 191.509 69.1726 191.35 70.261L189.313 70.7741L189.176 74.0666L191.179 74.7165C191.262 75.8129 191.44 76.9002 191.71 77.9661L189.998 79.2061L191.145 82.2506L193.233 82.0795C193.723 83.059 194.295 83.9946 194.945 84.8759L193.867 86.6804L196.092 89.0492L197.958 88.0914C198.793 88.8085 199.687 89.4549 200.629 90.0241L200.321 92.0936L203.283 93.4362L204.644 91.8456C205.691 92.1842 206.765 92.4359 207.854 92.5982L208.359 94.6249L211.612 94.7361L212.254 92.7435C213.351 92.6564 214.438 92.479 215.506 92.2133L216.748 93.9237L219.795 92.7863L219.632 90.6997C220.61 90.2057 221.546 89.6337 222.431 88.9893L224.229 90.0668L226.609 87.8519L225.65 85.9791C226.411 85.138 227.096 84.2308 227.696 83.2682L229.767 83.5761L231.12 80.6172L229.519 79.266C229.862 78.2207 230.114 77.1477 230.272 76.0591L232.267 75.5375ZM210.353 86.0304C207.818 85.9378 205.366 85.0967 203.309 83.6133C201.251 82.1299 199.679 80.0707 198.792 77.6957C197.905 75.3207 197.743 72.7364 198.325 70.269C198.907 67.8017 200.207 65.5619 202.063 63.8325C203.918 62.1031 206.244 60.9617 208.748 60.5522C211.253 60.1428 213.822 60.4837 216.132 61.532C218.442 62.5803 220.39 64.289 221.729 66.4422C223.068 68.5955 223.738 71.0968 223.655 73.6304C223.601 75.319 223.214 76.9802 222.515 78.5188C221.817 80.0573 220.821 81.4428 219.585 82.5958C218.349 83.7488 216.897 84.6465 215.313 85.2374C213.729 85.8282 212.043 86.1007 210.353 86.039V86.0304Z" fill="#FC6733"/>
<path opacity="0.3" d="M245.775 135.04L246.006 132.86L244.696 132.321C244.691 131.578 244.626 130.838 244.499 130.106L245.698 129.345L245.09 127.233H243.669C243.385 126.545 243.041 125.884 242.642 125.257L243.455 124.094L242.077 122.384L240.767 122.931C240.238 122.407 239.666 121.929 239.055 121.503L239.372 120.109L237.446 119.049L236.436 120.066C235.749 119.779 235.039 119.553 234.313 119.391L234.073 117.988L231.89 117.74L231.351 119.049C230.608 119.057 229.866 119.125 229.134 119.254L228.372 118.048L226.258 118.664V120.083C225.572 120.372 224.911 120.715 224.281 121.11L223.116 120.254L221.404 121.631L221.952 122.94C221.431 123.471 220.953 124.043 220.523 124.65L219.145 124.342L218.083 126.266L219.093 127.258C218.81 127.949 218.584 128.661 218.417 129.388L217.013 129.619L216.782 131.799L218.092 132.347C218.092 133.086 218.158 133.825 218.289 134.553L217.082 135.314L217.698 137.426H219.136C219.422 138.11 219.766 138.768 220.163 139.393L219.307 140.556L220.677 142.267L221.995 141.711C222.524 142.235 223.097 142.712 223.707 143.139L223.39 144.533L225.316 145.593L226.326 144.584C227.015 144.864 227.725 145.087 228.449 145.251L228.689 146.654L230.872 146.902L231.411 145.585C232.154 145.576 232.896 145.508 233.628 145.379L234.39 146.585L236.496 145.97V144.55C237.181 144.262 237.843 143.919 238.473 143.524L239.629 144.379L241.341 143.011L240.784 141.702C241.308 141.171 241.789 140.599 242.222 139.992L243.6 140.3L244.662 138.376L243.652 137.384C243.931 136.696 244.154 135.986 244.32 135.263L245.775 135.04ZM234.758 134.185C234.396 134.847 233.845 135.387 233.176 135.737C232.506 136.086 231.748 136.229 230.997 136.148C230.246 136.067 229.536 135.765 228.957 135.281C228.378 134.796 227.956 134.151 227.744 133.427C227.532 132.703 227.539 131.932 227.766 131.212C227.992 130.492 228.427 129.856 229.016 129.383C229.605 128.91 230.321 128.623 231.073 128.557C231.825 128.491 232.581 128.649 233.243 129.011C234.131 129.499 234.789 130.318 235.073 131.29C235.357 132.261 235.244 133.306 234.758 134.194V134.185Z" fill="#FC6733"/>
<path d="M257.904 98.0884L255.336 96.3267C255.085 95.4105 254.74 94.5223 254.309 93.6757L254.96 91.1102L251.262 87.1507L248.694 87.6296C247.881 87.142 247.02 86.738 246.126 86.4238L244.542 83.7557L239.124 83.5675L237.36 86.1331C236.443 86.3843 235.554 86.7282 234.707 87.1593L232.139 86.5093L228.175 90.2037L228.655 92.7692C228.165 93.5805 227.76 94.4402 227.448 95.3347L224.777 96.9168L224.589 102.33L227.157 104.092C227.404 105.015 227.748 105.909 228.184 106.76L227.533 109.325L231.231 113.285L233.799 112.814C234.613 113.301 235.473 113.705 236.367 114.02L237.951 116.68L243.369 116.868L245.133 114.302C246.058 114.052 246.956 113.708 247.812 113.276L250.38 113.926L254.343 110.232L253.864 107.666C254.354 106.855 254.758 105.995 255.071 105.101L257.742 103.519L257.904 98.0884ZM241.015 106.315C239.811 106.274 238.646 105.877 237.667 105.174C236.688 104.472 235.94 103.495 235.517 102.368C235.094 101.24 235.015 100.013 235.29 98.8407C235.565 97.6684 236.182 96.604 237.062 95.7818C237.942 94.9597 239.047 94.4167 240.236 94.2216C241.425 94.0264 242.646 94.1879 243.743 94.6855C244.841 95.1831 245.766 95.9946 246.401 97.0174C247.037 98.0401 247.355 99.2282 247.315 100.432C247.26 102.046 246.565 103.572 245.384 104.675C244.202 105.778 242.631 106.368 241.015 106.315Z" fill="white"/>
<path d="M276.488 54.8765L276.933 53.799C277.237 53.6337 277.524 53.4389 277.789 53.2174H278.782L279.946 51.5071L279.57 50.5921C279.717 50.2736 279.831 49.9413 279.912 49.6001L280.768 48.8133L280.408 46.8122L279.33 46.3675C279.164 46.064 278.97 45.7776 278.748 45.5123V44.5203L277.036 43.3573L276.12 43.7336C275.781 43.6176 275.431 43.5373 275.076 43.4941L274.288 42.6389L272.285 42.9981L271.84 44.0756C271.521 44.2377 271.22 44.4326 270.941 44.6572H269.948L268.784 46.3675L269.161 47.2825C269.045 47.6241 268.965 47.9766 268.921 48.3344L268.065 49.1212L268.424 51.1223L269.503 51.567C269.669 51.8855 269.867 52.1864 270.094 52.4649V53.4483L271.806 54.6114L272.722 54.2351C273.06 54.3511 273.41 54.4313 273.766 54.4745L274.562 55.3297L276.488 54.8765ZM272.208 49.3264C272.127 48.8798 272.18 48.4192 272.361 48.0029C272.542 47.5866 272.843 47.2334 273.225 46.988C273.607 46.7427 274.054 46.6163 274.508 46.6248C274.962 46.6333 275.404 46.7763 275.777 47.0358C276.149 47.2953 276.437 47.6595 276.602 48.0823C276.767 48.5051 276.803 48.9674 276.705 49.4106C276.607 49.8538 276.38 50.2579 276.051 50.5718C275.723 50.8857 275.309 51.0951 274.862 51.1736C274.265 51.2782 273.651 51.1427 273.154 50.7966C272.656 50.4505 272.316 49.922 272.208 49.3264Z" fill="#FC6733"/>
<path d="M253.042 49.2067L252.392 48.6594C253.805 46.9098 255.55 45.4566 257.528 44.3835L257.921 45.1446C256.045 46.1673 254.387 47.5473 253.042 49.2067Z" fill="#FC6733"/>
<path d="M259.873 44.3407L259.539 43.554C262.696 42.1667 266.153 41.5989 269.589 41.9035L269.511 42.7587C266.216 42.4602 262.899 43.0046 259.873 44.3407Z" fill="#FC6733"/>
<path d="M258.255 50.2585L257.545 49.7796C259.61 47.0009 262.61 45.0604 265.993 44.3151L266.156 45.1702C262.996 45.863 260.191 47.6693 258.255 50.2585Z" fill="#FC6733"/>
<path d="M201.451 132.552C201.394 132.552 201.337 132.541 201.284 132.519C201.231 132.497 201.183 132.465 201.143 132.424L199.345 130.576C198.433 130.49 197.53 130.321 196.649 130.072L193.85 131.303C193.787 131.338 193.716 131.356 193.644 131.356C193.572 131.356 193.502 131.338 193.439 131.303L188.748 128.199C188.689 128.159 188.641 128.106 188.608 128.043C188.576 127.98 188.559 127.911 188.56 127.84L188.602 124.795C188.027 124.08 187.52 123.313 187.087 122.504L184.682 121.571C184.615 121.545 184.555 121.503 184.508 121.447C184.462 121.392 184.43 121.326 184.417 121.255L183.295 115.748C183.28 115.677 183.284 115.604 183.305 115.536C183.326 115.467 183.364 115.405 183.415 115.354L185.264 113.558C185.349 112.648 185.515 111.746 185.76 110.865L184.528 108.077C184.493 108.014 184.475 107.943 184.475 107.872C184.475 107.8 184.493 107.729 184.528 107.666L187.635 102.98C187.672 102.919 187.725 102.869 187.789 102.836C187.852 102.803 187.923 102.788 187.995 102.792L191.042 102.835C191.759 102.264 192.527 101.76 193.336 101.329L194.269 98.9265C194.295 98.8592 194.338 98.7996 194.393 98.7532C194.449 98.7068 194.515 98.6752 194.586 98.6614L200.098 97.5411C200.169 97.5271 200.242 97.5308 200.31 97.5517C200.379 97.5726 200.442 97.61 200.492 97.6608L202.281 99.508C203.193 99.5927 204.095 99.7587 204.978 100.004L207.768 98.7725C207.831 98.7381 207.902 98.7201 207.974 98.7201C208.045 98.7201 208.116 98.7381 208.179 98.7725L212.87 101.877C212.929 101.916 212.977 101.97 213.009 102.033C213.042 102.095 213.059 102.165 213.058 102.236L213.016 105.289C213.587 106.002 214.092 106.766 214.522 107.572L216.927 108.504C216.995 108.53 217.054 108.573 217.101 108.628C217.147 108.684 217.179 108.75 217.193 108.821L218.314 114.328C218.329 114.398 218.326 114.471 218.305 114.54C218.284 114.609 218.246 114.671 218.194 114.721L216.345 116.517C216.26 117.425 216.094 118.324 215.849 119.203L217.082 121.999C217.116 122.062 217.134 122.133 217.134 122.204C217.134 122.276 217.116 122.347 217.082 122.41L214 127.113C213.959 127.171 213.905 127.218 213.843 127.25C213.78 127.283 213.711 127.3 213.64 127.301L210.593 127.258C209.876 127.829 209.108 128.333 208.299 128.763L207.366 131.166C207.34 131.234 207.297 131.293 207.242 131.34C207.186 131.386 207.12 131.418 207.049 131.432L201.537 132.552H201.451ZM196.623 129.191H196.743C197.667 129.463 198.616 129.64 199.576 129.721C199.68 129.729 199.778 129.775 199.85 129.85L201.562 131.645L206.613 130.619L207.52 128.285C207.559 128.188 207.632 128.109 207.725 128.062C208.582 127.618 209.391 127.088 210.139 126.48C210.176 126.447 210.22 126.421 210.267 126.405C210.314 126.389 210.364 126.382 210.413 126.386L213.384 126.429L216.234 122.153L215.036 119.434C215.002 119.34 215.002 119.237 215.036 119.143C215.306 118.219 215.484 117.271 215.566 116.312C215.574 116.208 215.62 116.111 215.695 116.038L217.492 114.328L216.465 109.283L214.128 108.376C214.028 108.339 213.946 108.266 213.897 108.171C213.454 107.317 212.923 106.512 212.314 105.768C212.249 105.688 212.216 105.588 212.219 105.486L212.262 102.518L207.982 99.6705L205.26 100.868C205.166 100.901 205.063 100.901 204.969 100.868C204.042 100.597 203.09 100.42 202.127 100.337C202.023 100.329 201.926 100.284 201.853 100.209L200.141 98.4134L195.091 99.4396L194.149 101.766C194.11 101.862 194.037 101.941 193.944 101.988C193.087 102.432 192.279 102.962 191.53 103.57C191.452 103.637 191.35 103.671 191.247 103.664L188.277 103.621L185.427 107.897L186.625 110.617C186.652 110.674 186.667 110.737 186.667 110.801C186.667 110.864 186.652 110.927 186.625 110.984C186.373 111.887 186.207 112.812 186.129 113.747C186.121 113.85 186.075 113.948 186 114.02L184.203 115.731L185.23 120.776L187.567 121.683C187.67 121.724 187.752 121.804 187.798 121.905C188.24 122.752 188.767 123.552 189.373 124.291C189.439 124.37 189.476 124.47 189.476 124.573L189.433 127.541L193.713 130.388L196.435 129.191C196.5 129.176 196.567 129.176 196.632 129.191H196.623ZM200.835 126.42C198.774 126.418 196.753 125.859 194.985 124.801C193.218 123.743 191.77 122.227 190.797 120.413C189.823 118.599 189.359 116.555 189.455 114.499C189.551 112.443 190.203 110.451 191.342 108.735C192.431 107.089 193.928 105.754 195.689 104.86C197.449 103.965 199.412 103.543 201.384 103.633C203.357 103.724 205.273 104.324 206.943 105.376C208.614 106.428 209.983 107.895 210.917 109.633C211.85 111.372 212.316 113.323 212.268 115.295C212.22 117.268 211.661 119.194 210.645 120.886C209.629 122.578 208.191 123.977 206.471 124.947C204.752 125.917 202.809 126.425 200.835 126.42ZM192.052 109.206C190.899 110.944 190.289 112.985 190.297 115.071C190.306 117.156 190.933 119.192 192.099 120.921C193.266 122.651 194.92 123.995 196.851 124.786C198.783 125.576 200.906 125.777 202.952 125.362C204.997 124.947 206.874 123.935 208.344 122.455C209.814 120.974 210.812 119.091 211.211 117.045C211.61 114.998 211.393 112.878 210.587 110.955C209.78 109.031 208.421 107.39 206.681 106.238C205.529 105.463 204.234 104.925 202.871 104.654C201.509 104.384 200.106 104.387 198.745 104.663C197.384 104.939 196.091 105.483 194.942 106.263C193.793 107.043 192.811 108.043 192.052 109.206Z" fill="white"/>
<path d="M351.783 138.908C359.908 135.78 365.701 128.373 367.293 119.113C370.502 100.436 356.751 83.6924 332.917 79.5969C310.651 75.7708 290.72 85.5958 285.107 108.869L312.077 113.503C314.918 105.427 320.264 103.438 327.791 104.731C338.61 106.59 340.7 112.281 339.702 118.088C338.488 125.151 332.444 125.567 325.231 124.327L313.314 122.28L309.322 145.508L323.748 147.987C334.254 149.792 336.878 153.313 335.826 159.434C334.612 166.497 330.224 170.429 318.777 168.462C309.212 166.818 304.133 162.552 304.416 153.39L277.446 148.756C274.385 174.083 291.228 189.743 314.748 193.784C339.837 198.095 358.562 188.709 362.338 166.737C364.388 154.808 360.464 144.762 351.783 138.908Z" fill="#FC6733"/>
</svg>
