<svg width="428" height="294" viewBox="0 0 428 294" fill="none" xmlns="http://www.w3.org/2000/svg"><path d="M385.114 293.786h-18.558V294h18.558v-.214zM184.956 124.795l.385-11.237-6.908-2.257a66.88 66.88 0 0 0-1.84-11.246l5.855-4.276-3.972-10.63-7.242.582a66.19 66.19 0 0 0-5.992-9.706l3.749-6.251-7.704-8.219-6.471 3.31a70.6 70.6 0 0 0-9.296-6.713l1.044-7.175-10.272-4.66-4.708 5.507a69.505 69.505 0 0 0-11.128-2.566l-1.712-7.038-11.282-.385-2.294 6.91a69.47 69.47 0 0 0-11.3 1.839l-4.347-5.816-10.555 3.9.582 7.235a68.9 68.9 0 0 0-9.716 6.046l-6.231-3.737-8.26 7.696 3.312 6.5a66.215 66.215 0 0 0-6.677 9.27L44.795 80.6l-4.691 10.262 5.547 4.704a66.958 66.958 0 0 0-2.569 11.117l-7.13 1.762-.385 11.236 6.933 2.258c.288 3.806.904 7.58 1.84 11.28l-5.854 4.276 3.98 10.553 7.242-.582a66.172 66.172 0 0 0 5.992 9.706l-3.75 6.252 7.705 8.218 6.471-3.31a68.945 68.945 0 0 0 9.279 6.705l-1.079 7.175 10.273 4.66 4.733-5.507a69.556 69.556 0 0 0 11.128 2.566l1.712 7.038 11.282.385 2.226-6.902a69.422 69.422 0 0 0 11.29-1.838l4.28 5.815 10.563-3.942-.556-7.235a70.75 70.75 0 0 0 9.716-6.055l6.231 3.746 8.261-7.697-3.313-6.499a66.186 66.186 0 0 0 6.677-9.27l7.182 1.077 4.691-10.262-5.547-4.703a66.304 66.304 0 0 0 2.568-11.117l7.233-1.677zM108.943 161.2a44.668 44.668 0 0 1-24.538-8.356 44.614 44.614 0 0 1-15.755-20.569 44.567 44.567 0 0 1-1.659-25.847 44.596 44.596 0 0 1 12.996-22.41 44.686 44.686 0 0 1 48.966-7.997 44.634 44.634 0 0 1 19.463 17.11 44.58 44.58 0 0 1-7.479 56.092 44.665 44.665 0 0 1-31.985 11.977h-.009zm268.553-73.57l2.833-2.643-1.13-2.232a23.086 23.086 0 0 0 2.269-3.224l2.482.376 1.609-3.54-1.908-1.625c.409-1.249.71-2.53.898-3.831l2.44-.607.128-3.883-2.388-.77a24.38 24.38 0 0 0-.625-3.89l2.012-1.497-1.37-3.634-2.491.196a23.898 23.898 0 0 0-2.08-3.352l1.293-2.138-2.654-2.84-2.242 1.104a24.015 24.015 0 0 0-3.202-2.3l.36-2.48-3.536-1.617-1.626 1.907a23.78 23.78 0 0 0-3.844-.855l-.607-2.428-3.887-.137-.778 2.394c-1.315.099-2.618.31-3.895.633l-1.49-2.01-3.646 1.36.205 2.497a23.086 23.086 0 0 0-3.355 2.078l-2.157-1.291-2.834 2.642 1.139 2.241a22.907 22.907 0 0 0-2.303 3.198l-2.482-.376-1.61 3.54 1.909 1.625a22.884 22.884 0 0 0-.899 3.831l-2.439.608-.129 3.882 2.389.77c.1 1.312.309 2.613.625 3.89l-2.012 1.489 1.37 3.634 2.499-.188a23.935 23.935 0 0 0 2.063 3.361l-1.293 2.138 2.654 2.84 2.226-1.138a23.932 23.932 0 0 0 3.201 2.3l-.368 2.472 3.535 1.616 1.627-1.899c1.256.389 2.541.675 3.843.856l.608 2.428 3.886.137.779-2.394a22.891 22.891 0 0 0 3.895-.633l1.489 2.01 3.647-1.36-.206-2.497a22.896 22.896 0 0 0 3.356-2.078l2.217 1.334zm-20.253-16.36a5.529 5.529 0 0 1 1.125-8.481 5.543 5.543 0 0 1 8.106 2.76 5.527 5.527 0 0 1-1.407 5.986 5.542 5.542 0 0 1-7.824-.265zM273.92 203.001l-8.851-6.106a48.553 48.553 0 0 0-3.561-9.21l2.268-8.894-12.84-13.734-9.039 1.65a48.727 48.727 0 0 0-8.962-4.224l-5.496-9.245-18.832-.641-6.112 8.843a48.678 48.678 0 0 0-9.236 3.608l-8.894-2.266-13.747 12.828 1.652 9.013a47.659 47.659 0 0 0-4.177 8.971l-9.254 5.49-.642 18.814 8.86 6.115a47.11 47.11 0 0 0 3.552 9.253l-2.26 8.868 12.84 13.734 8.98-1.642a49.097 49.097 0 0 0 9.031 4.182l5.487 9.227 18.832.641 6.112-8.834a49.068 49.068 0 0 0 9.287-3.557l8.86 2.258 13.747-12.828-1.652-9.014a47.574 47.574 0 0 0 4.177-8.979l9.254-5.49.616-18.831zm-58.593 28.554a21.16 21.16 0 0 1-11.62-3.964 21.14 21.14 0 0 1-7.458-9.746 21.107 21.107 0 0 1-.782-12.242 21.128 21.128 0 0 1 6.158-10.614 21.162 21.162 0 0 1 23.193-3.786 21.134 21.134 0 0 1 12.38 19.956 21.135 21.135 0 0 1-6.712 14.725 21.17 21.17 0 0 1-15.168 5.671h.009zm78.752-81.9h-.06l-14.826-.504a1.802 1.802 0 0 1-1.489-.855l-3.989-6.714a40.485 40.485 0 0 1-6.232-2.89l-6.403 1.146a1.8 1.8 0 0 1-1.644-.547l-10.126-10.827a1.805 1.805 0 0 1-.428-1.71l1.618-6.337a39.16 39.16 0 0 1-2.448-6.388l-6.446-4.447a1.795 1.795 0 0 1-.779-1.548l.505-14.811a1.8 1.8 0 0 1 .856-1.489l6.737-3.993a39.567 39.567 0 0 1 2.885-6.2l-1.182-6.44a1.805 1.805 0 0 1 .548-1.642l10.828-10.09a1.807 1.807 0 0 1 1.712-.428l6.361 1.625a40.162 40.162 0 0 1 6.377-2.455l4.451-6.44a1.704 1.704 0 0 1 1.549-.777l14.826.504a1.807 1.807 0 0 1 1.49.855l3.997 6.73a40.222 40.222 0 0 1 6.189 2.883l6.463-1.18a1.808 1.808 0 0 1 1.643.547l10.101 10.877a1.803 1.803 0 0 1 .428 1.71l-1.626 6.363a40.228 40.228 0 0 1 2.457 6.371l6.437 4.447a1.806 1.806 0 0 1 .779 1.548l-.505 14.812a1.813 1.813 0 0 1-.856 1.488l-6.737 3.993a39.492 39.492 0 0 1-2.885 6.192l1.181 6.448a1.798 1.798 0 0 1-.547 1.642l-10.837 10.108a1.805 1.805 0 0 1-1.712.427l-6.292-1.667a40.52 40.52 0 0 1-6.411 2.454l-4.443 6.431a1.813 1.813 0 0 1-1.515.778zm-13.773-4.087l12.84.436 4.28-6.158a1.806 1.806 0 0 1 1.018-.718 36.893 36.893 0 0 0 6.977-2.677 1.801 1.801 0 0 1 1.25-.128l5.992 1.531 9.416-8.766-1.079-6.123c-.079-.433.003-.88.231-1.257a35.94 35.94 0 0 0 3.125-6.696c.137-.42.423-.776.804-1l6.437-3.823.437-12.827-6.163-4.276a1.802 1.802 0 0 1-.685-.915v-.146a36.45 36.45 0 0 0-2.662-6.884 1.802 1.802 0 0 1-.137-1.266l1.541-6.054-8.86-9.407-6.155 1.129a1.8 1.8 0 0 1-1.249-.223 36.63 36.63 0 0 0-6.72-3.138 1.969 1.969 0 0 1-.377-.18 1.802 1.802 0 0 1-.607-.615l-3.784-6.38-12.84-.436-4.28 6.157c-.252.364-.63.623-1.061.727a36.615 36.615 0 0 0-6.891 2.66 1.808 1.808 0 0 1-1.267.136l-6.086-1.547-9.416 8.765 1.121 6.132c.069.384.012.78-.163 1.129l-.085.145a35.901 35.901 0 0 0-3.125 6.722c-.141.402-.42.741-.787.957l-6.446 3.823-.436 12.828 6.171 4.275c.353.244.608.604.719 1.018a35.591 35.591 0 0 0 2.663 6.944 1.792 1.792 0 0 1 .145 1.24l-1.541 6.029 8.774 9.407 6.112-1.12c.427-.077.868.002 1.241.222a37.087 37.087 0 0 0 6.754 3.13c.42.134.776.417 1.002.795l3.852 6.423zm7.935-16.214h-.95a27.04 27.04 0 0 1-18.884-8.157 26.984 26.984 0 0 1 .334-38.011 27.038 27.038 0 0 1 38.049 0 26.987 26.987 0 0 1 7.999 18.937 26.988 26.988 0 0 1-7.664 19.074 27.04 27.04 0 0 1-18.884 8.157zm0-50.533a23.51 23.51 0 0 0-16.413 7.1 23.46 23.46 0 0 0 .302 33.045 23.504 23.504 0 0 0 16.539 6.8 23.504 23.504 0 0 0 16.539-6.8 23.462 23.462 0 0 0 .301-33.045 23.507 23.507 0 0 0-16.412-7.1h-.856z" fill="#EBEBEB"/><path d="M328.225 43.075l-6.146-1.65-1.644-6.132 2.405-2.403 2.534 5.25 5.256 2.532-2.405 2.403z" fill="#E0E0E0"/><path d="M328.601 38.97a2.874 2.874 0 0 0 .957-2.056 2.85 2.85 0 0 0-.839-2.107 2.865 2.865 0 0 0-3.236-.572 2.87 2.87 0 0 0-.931.69l3.056-4.575 4.101 2.07.856 4.276-3.964 2.274z" fill="#E0E0E0"/><path d="M322.352 33.352l4.503-4.498 6.129 1.676 1.652 6.131-4.503 4.498-6.137-1.65-1.644-6.157zm8.175 3.677a2.864 2.864 0 0 0-2.024-4.894 2.866 2.866 0 0 0-2.025 4.894 2.879 2.879 0 0 0 4.049.026v-.026z" fill="#F0F0F0"/><path d="M77.228 206.738l3.296-.881.882-3.292-1.284-1.283-1.362 2.814-2.824 1.359 1.292 1.283z" fill="#E0E0E0"/><path d="M77.04 204.54a1.524 1.524 0 0 1-.525-1.107 1.537 1.537 0 0 1 1.591-1.589 1.546 1.546 0 0 1 1.108.524l-1.635-2.454-2.251 1.103-.48 2.309 2.192 1.214z" fill="#E0E0E0"/><path d="M80.378 201.539l-2.413-2.412-3.296.855-.856 3.293 2.371 2.437 3.296-.855.898-3.318zm-4.382 1.992a1.538 1.538 0 0 1 1.087-2.63 1.545 1.545 0 0 1 1.424.952 1.536 1.536 0 0 1-.337 1.678 1.543 1.543 0 0 1-2.174 0zM65.364 26.262l2.73 2.728a1.841 1.841 0 0 0 2.569 0 1.838 1.838 0 0 0 0-2.565l-2.73-2.728a1.841 1.841 0 0 0-2.569 0 1.838 1.838 0 0 0 0 2.565z" fill="#F0F0F0"/><path d="M66.015 26.621c2.109-.757 3.242-2.974 2.53-4.952-.71-1.978-2.997-2.968-5.106-2.21-2.109.756-3.242 2.973-2.53 4.951.71 1.978 2.997 2.968 5.106 2.211z" fill="#E0E0E0"/><path d="M60.455 23.947l.397 1.102 8.136-2.92-.396-1.102-8.137 2.92z" fill="#F0F0F0"/><path d="M110.15 99.739a.42.42 0 0 1-.154 0c-3.852-1.488-6.155-2.95-7.353-4.695a4.439 4.439 0 0 1-2.765-.376 5.51 5.51 0 0 1-2.38-2.24 2.193 2.193 0 0 1-2.08.324 5.289 5.289 0 0 1-2.568-2.06c-.383.279-.854.41-1.327.367-2.568-.205-5.992-5.268-6.24-10.664a.427.427 0 0 1 .856 0c.231 5.13 3.518 9.689 5.453 9.843.287.029.573-.058.796-.24a10.487 10.487 0 0 1-.856-8.047c.736-2.565 1.387-3.574 2.166-3.42 1.472.367 1.284 5.986.496 9.654a5.24 5.24 0 0 1-.727 1.865 4.63 4.63 0 0 0 2.174 1.89 1.353 1.353 0 0 0 1.43-.3c-.677-1.659-.814-3.908.102-6.79 1.198-3.788 1.712-3.89 1.977-3.95a.566.566 0 0 1 .548.188c.788.855-.154 6.773-1.147 9.68-.116.35-.277.683-.48.992a4.689 4.689 0 0 0 2.132 2.138 3.735 3.735 0 0 0 1.943.368 5.068 5.068 0 0 1-.205-.496c-.676-1.839-.351-3.96 1.01-6.482.907-1.71 1.644-2.455 2.32-2.455a.952.952 0 0 1 .856.565c.745 1.377.205 5.917-1.267 8.167-.342.52-.822.934-1.387 1.197 1.147 1.505 3.321 2.83 6.805 4.182a.431.431 0 0 1 .351.504.435.435 0 0 1-.505.35l.026-.06zm-4.862-14.085s-.488 0-1.567 2.01c-1.241 2.292-1.549 4.182-.967 5.78.073.197.159.389.257.574.46-.197.853-.524 1.13-.94 1.198-1.831 1.772-5.594 1.327-7.065-.06-.308-.18-.359-.18-.359zm-6.138-3.6c-.466.972-.85 1.982-1.147 3.019a9.68 9.68 0 0 0-.325 5.601l.077-.214a28.238 28.238 0 0 0 1.413-8.406h-.018zm-5.64-2.694c-.146.137-.557.676-1.156 2.754a9.612 9.612 0 0 0 .625 7.055c.174-.383.303-.785.385-1.197.907-4.208.65-8.005.171-8.612h-.026zm49.185 65.164a7.705 7.705 0 0 1-3.903-1.017.427.427 0 0 1 .436-.736c3.056 1.788 7.002.539 7.816-.761a.749.749 0 0 0 .128-.573 6.971 6.971 0 0 1-4.391-1.257c-2.174-1.36-2.346-1.762-2.337-2.087a.524.524 0 0 1 .291-.444c.856-.428 4.716 1.342 6.326 2.403.195.125.373.275.53.444a3.03 3.03 0 0 0 1.627-.983c.238-.277.411-.605.505-.958h-.171c-1.37.137-2.739-.453-4.203-1.796-1.002-.932-1.396-1.565-1.267-2.078a.785.785 0 0 1 .616-.556c1.181-.29 4.109.95 5.299 2.258.262.287.45.633.548 1.009 1.112-.521 2.302-1.71 3.698-3.651a.424.424 0 0 1 .574-.07.426.426 0 0 1 .119.566c-1.618 2.257-2.962 3.54-4.28 4.062a3.182 3.182 0 0 1-.745 1.71 3.882 3.882 0 0 1-1.866 1.206 1.568 1.568 0 0 1-.24 1.189c-.761 1.265-2.833 2.12-5.11 2.12zm-.762-5.935c.291.214.702.496 1.293.856a6.919 6.919 0 0 0 3.081 1.128 21.304 21.304 0 0 0-4.374-1.941v-.043zm2.988-3.634c.245.463.586.868 1.001 1.189 1.276 1.171 2.431 1.71 3.536 1.573h.273a1.568 1.568 0 0 0-.368-.71c-1.207-1.308-3.843-2.146-4.442-2.009v-.043z" fill="#263238"/><path d="M154.029 143.387l-13.337 2.42-12.112-66.028-25.732 4.67-41.944 74.399 4.503 24.552 53.8-9.8 3.68 20.08 25.732-4.67-3.681-20.079 13.336-2.42-4.245-23.124zm-67.496 12.255l22.256-38.971 6.172 33.839-28.428 5.132zm174.915-80.387a50.275 50.275 0 0 0-2.739-12.16 39.402 39.402 0 0 0-5.992-10.425 34.58 34.58 0 0 0-10.871-8.868c-4.566-2.503-10.62-4.245-18.165-5.225-15.659-2.035-27.865.741-36.619 8.33-8.754 7.588-14.518 22.126-17.292 43.613a119.045 119.045 0 0 0-.856 24.236c.571 7.411 1.935 13.377 4.092 17.898a37.427 37.427 0 0 0 12.566 15.291c5.404 3.786 12.809 6.291 22.213 7.517 16.778 2.184 29.21-1.035 37.296-9.655 8.087-8.62 13.454-23.187 16.102-43.699a110.569 110.569 0 0 0 .265-26.853z" fill="#FC6733"/><path d="M215.515 146.645a68.762 68.762 0 0 1-6.514-.547c-7.833-1.018-13.902-3.002-18.019-5.892a27.927 27.927 0 0 1-9.416-11.468v-.086c-1.643-3.42-2.722-8.338-3.193-14.538a110.18 110.18 0 0 1 .788-22.32c3.056-23.705 9.364-33.6 14.124-37.721 5.547-4.806 13.028-6.979 22.881-6.645 2.02.068 4.16.248 6.351.539 6.326.855 11.325 2.223 14.869 4.156a25.445 25.445 0 0 1 7.969 6.405 30.2 30.2 0 0 1 4.58 7.928 41.207 41.207 0 0 1 2.2 9.885c.893 8.172.792 16.422-.3 24.569-2.371 18.421-6.959 31.36-13.627 38.483-4.948 5.277-12.37 7.697-22.693 7.312v-.06z" fill="#263238"/><path d="M232.267 75.537l.111-3.24-1.994-.65a19.315 19.315 0 0 0-.531-3.25l1.712-1.24-1.173-3.019-2.088.171a19.13 19.13 0 0 0-1.712-2.796l1.078-1.805-2.242-2.411-1.866.957a20.406 20.406 0 0 0-2.714-1.915l.3-2.07-2.962-1.342-1.353 1.59a20.017 20.017 0 0 0-3.21-.752l-.479-2.035-3.253-.112-.642 1.993a20.057 20.057 0 0 0-3.253.53l-1.249-1.71-3.048 1.137.171 2.087a19.942 19.942 0 0 0-2.799 1.71l-1.797-1.078-2.38 2.215.959 1.873a19.043 19.043 0 0 0-1.926 2.677l-2.072-.308-1.352 2.959 1.6 1.351a19.279 19.279 0 0 0-.753 3.207l-2.037.513-.137 3.293 2.003.65a19.11 19.11 0 0 0 .531 3.25l-1.712 1.24 1.147 3.044 2.088-.171c.49.979 1.063 1.915 1.712 2.796l-1.078 1.804 2.225 2.37 1.867-.959a19.872 19.872 0 0 0 2.67 1.933l-.308 2.07 2.962 1.342 1.361-1.59c1.047.338 2.121.59 3.21.752l.505 2.027 3.253.111.642-1.992a20.057 20.057 0 0 0 3.253-.53l1.241 1.71 3.047-1.138-.163-2.086a20.386 20.386 0 0 0 2.8-1.71l1.797 1.077 2.38-2.215-.959-1.873a19.1 19.1 0 0 0 2.046-2.71l2.072.307 1.352-2.959-1.601-1.351c.343-1.045.595-2.118.754-3.207l1.994-.522zM210.353 86.03a12.847 12.847 0 0 1-7.044-2.417 12.826 12.826 0 0 1-4.984-13.344 12.827 12.827 0 0 1 3.738-6.437 12.845 12.845 0 0 1 19.666 2.61 12.825 12.825 0 0 1-6.416 18.795c-1.584.591-3.27.864-4.96.802v-.008z" fill="#FC6733"/><path opacity=".3" d="M245.775 135.04l.231-2.18-1.31-.539a13.49 13.49 0 0 0-.197-2.215l1.199-.761-.608-2.112h-1.421a12.724 12.724 0 0 0-1.027-1.976l.813-1.163-1.378-1.71-1.31.547a12.99 12.99 0 0 0-1.712-1.428l.317-1.394-1.926-1.06-1.01 1.017a12.658 12.658 0 0 0-2.123-.675l-.24-1.403-2.183-.248-.539 1.309c-.743.008-1.485.077-2.217.205l-.762-1.206-2.114.616v1.419c-.686.289-1.347.632-1.977 1.027l-1.165-.855-1.712 1.376.548 1.309a13.984 13.984 0 0 0-1.429 1.71l-1.378-.308-1.062 1.924 1.01.992a13.728 13.728 0 0 0-.676 2.13l-1.404.231-.231 2.18 1.31.548c0 .739.066 1.478.197 2.206l-1.207.761.616 2.112h1.438c.286.684.63 1.342 1.027 1.967l-.856 1.163 1.37 1.711 1.318-.556a13.133 13.133 0 0 0 1.712 1.428l-.317 1.394 1.926 1.06 1.01-1.009c.689.28 1.399.503 2.123.667l.24 1.403 2.183.248.539-1.317a13.736 13.736 0 0 0 2.217-.206l.762 1.206 2.106-.615v-1.42a13.769 13.769 0 0 0 1.977-1.026l1.156.855 1.712-1.368-.557-1.309a14.057 14.057 0 0 0 1.438-1.71l1.378.308 1.062-1.924-1.01-.992c.279-.688.502-1.398.668-2.121l1.455-.223zm-11.017-.855a3.822 3.822 0 0 1-3.761 1.963 3.82 3.82 0 0 1-3.253-2.721 3.808 3.808 0 0 1 1.272-4.044 3.826 3.826 0 0 1 4.227-.372 3.824 3.824 0 0 1 1.515 5.183v-.009z" fill="#FC6733"/><path d="M257.904 98.088l-2.568-1.761a14 14 0 0 0-1.027-2.651l.651-2.566-3.698-3.96-2.568.48a14.054 14.054 0 0 0-2.568-1.206l-1.584-2.668-5.418-.188-1.764 2.565a14 14 0 0 0-2.653 1.026l-2.568-.65-3.964 3.695.48 2.565c-.49.811-.895 1.671-1.207 2.566l-2.671 1.582-.188 5.413 2.568 1.762c.247.923.591 1.817 1.027 2.668l-.651 2.565 3.698 3.96 2.568-.471a14.18 14.18 0 0 0 2.568 1.206l1.584 2.66 5.418.188 1.764-2.566a14.13 14.13 0 0 0 2.679-1.026l2.568.65 3.963-3.694-.479-2.566c.49-.811.894-1.671 1.207-2.565l2.671-1.582.162-5.43zm-16.889 8.227a6.096 6.096 0 0 1-5.498-3.947 6.085 6.085 0 0 1 1.545-6.586 6.095 6.095 0 0 1 6.681-1.096 6.085 6.085 0 0 1 1.641 9.989 6.11 6.11 0 0 1-4.369 1.64z" fill="#fff"/><path d="M276.488 54.877l.445-1.078c.304-.165.591-.36.856-.581h.993l1.164-1.71-.376-.916a5.27 5.27 0 0 0 .342-.992l.856-.787-.36-2-1.078-.446a5.274 5.274 0 0 0-.582-.855v-.992l-1.712-1.163-.916.377a5.145 5.145 0 0 0-1.044-.24l-.788-.855-2.003.36-.445 1.077a5.19 5.19 0 0 0-.899.581h-.993l-1.164 1.71.377.916a5.27 5.27 0 0 0-.24 1.051l-.856.787.359 2.001 1.079.445c.166.319.364.62.591.898v.983l1.712 1.163.916-.376c.338.116.688.196 1.044.24l.796.855 1.926-.453zm-4.28-5.55a2.293 2.293 0 1 1 4.512-.82 2.293 2.293 0 0 1-4.512.82zm-19.166-.12l-.65-.548a17.057 17.057 0 0 1 5.136-4.276l.393.762a16.364 16.364 0 0 0-4.879 4.062zm6.831-4.867l-.334-.786a20.486 20.486 0 0 1 10.05-1.65l-.077.855a19.506 19.506 0 0 0-9.639 1.582zm-1.618 5.919l-.71-.48a14.38 14.38 0 0 1 8.448-5.464l.163.855a13.466 13.466 0 0 0-7.901 5.089z" fill="#FC6733"/><path d="M201.451 132.552a.436.436 0 0 1-.308-.128l-1.798-1.848a15.144 15.144 0 0 1-2.696-.504l-2.799 1.231a.424.424 0 0 1-.411 0l-4.691-3.104a.428.428 0 0 1-.188-.359l.042-3.045a14.798 14.798 0 0 1-1.515-2.291l-2.405-.933a.42.42 0 0 1-.173-.124.419.419 0 0 1-.092-.192l-1.122-5.507a.434.434 0 0 1 .12-.394l1.849-1.796c.085-.91.251-1.812.497-2.693l-1.233-2.788a.423.423 0 0 1 0-.411l3.107-4.686a.388.388 0 0 1 .36-.188l3.047.043a15.015 15.015 0 0 1 2.294-1.506l.933-2.402a.43.43 0 0 1 .317-.266l5.513-1.12a.432.432 0 0 1 .393.12l1.789 1.847c.912.085 1.815.25 2.697.496l2.79-1.232a.43.43 0 0 1 .411 0l4.691 3.105a.42.42 0 0 1 .188.359l-.042 3.053a14.793 14.793 0 0 1 1.506 2.283l2.406.932a.428.428 0 0 1 .265.317l1.121 5.507a.424.424 0 0 1-.12.393l-1.849 1.796a15.324 15.324 0 0 1-.496 2.686l1.233 2.796a.433.433 0 0 1 0 .411L214 127.113a.44.44 0 0 1-.36.188l-3.047-.043a14.935 14.935 0 0 1-2.294 1.505l-.933 2.403a.432.432 0 0 1-.317.266l-5.512 1.12h-.086zm-4.828-3.361h.12c.924.272 1.873.449 2.833.53a.426.426 0 0 1 .274.129l1.712 1.795 5.051-1.026.907-2.334a.427.427 0 0 1 .206-.223 14.169 14.169 0 0 0 2.413-1.582.376.376 0 0 1 .274-.094l2.971.043 2.85-4.276-1.198-2.719a.428.428 0 0 1 0-.291c.27-.924.448-1.872.53-2.831a.428.428 0 0 1 .129-.274l1.797-1.71-1.027-5.045-2.337-.907a.426.426 0 0 1-.231-.205 13.898 13.898 0 0 0-1.583-2.403.42.42 0 0 1-.094-.282l.042-2.968-4.28-2.847-2.722 1.197a.44.44 0 0 1-.291 0 14.592 14.592 0 0 0-2.842-.531.427.427 0 0 1-.274-.128l-1.712-1.796-5.05 1.027-.942 2.326a.431.431 0 0 1-.205.222c-.857.444-1.665.974-2.414 1.582a.394.394 0 0 1-.283.094l-2.97-.043-2.85 4.276 1.198 2.72a.431.431 0 0 1 0 .367 14.88 14.88 0 0 0-.496 2.763.426.426 0 0 1-.129.273l-1.797 1.711 1.027 5.045 2.337.907a.426.426 0 0 1 .231.222c.442.847.969 1.647 1.575 2.386a.441.441 0 0 1 .103.282l-.043 2.968 4.28 2.847 2.722-1.197a.437.437 0 0 1 .197 0h-.009zm4.212-2.771a11.392 11.392 0 0 1-11.38-11.921 11.383 11.383 0 0 1 1.887-5.764 11.417 11.417 0 0 1 19.575.898 11.39 11.39 0 0 1-4.446 15.314 11.41 11.41 0 0 1-5.636 1.473zm-8.783-17.214a10.535 10.535 0 0 0 .047 11.715 10.558 10.558 0 0 0 19.112-3.876 10.54 10.54 0 0 0-4.53-10.807 10.489 10.489 0 0 0-11.739.025 10.477 10.477 0 0 0-2.89 2.943z" fill="#fff"/><path d="M364.51 151.109l-13.43-1.813 8.885-66.54-25.92-3.499-62.873 57.836-3.304 24.74 54.176 7.303-2.705 20.234 25.92 3.497 2.705-20.233 13.431 1.821 3.115-23.346zm-67.983-9.15l33.179-30.213-4.554 34.07-28.625-3.857z" fill="#FC6733"/></svg>