<svg width="326" height="247" viewBox="0 0 326 247" fill="none" xmlns="http://www.w3.org/2000/svg"><path opacity=".4" d="M129.591 115.652l-.506 14.728 9.082 2.959a87.445 87.445 0 0 0 2.42 14.74l-7.698 5.604 5.222 13.932 9.521-.762a86.747 86.747 0 0 0 7.878 12.722l-4.929 8.194 10.128 10.771 8.509-4.338a92.791 92.791 0 0 0 12.222 8.799l-1.373 9.404 13.505 6.109 6.189-7.218a91.643 91.643 0 0 0 14.631 3.362l2.251 9.225 14.833.504 3.016-9.056a91.696 91.696 0 0 0 14.856-2.41l5.717 7.622 13.876-5.111-.765-9.483a90.667 90.667 0 0 0 12.773-7.924l8.193 4.898 10.861-10.088-4.356-8.519a86.83 86.83 0 0 0 8.779-12.15l9.442 1.412 6.167-13.45-7.292-6.165a87.592 87.592 0 0 0 3.376-14.571l9.375-2.309.506-14.728-9.116-2.959a86.649 86.649 0 0 0-2.42-14.785l7.698-5.604-5.233-13.831-9.521.762a86.788 86.788 0 0 0-7.878-12.722l4.929-8.194-10.128-10.771-8.509 4.338a90.559 90.559 0 0 0-12.199-8.788l1.418-9.404-13.505-6.109-6.224 7.219a91.644 91.644 0 0 0-14.63-3.363l-2.251-9.225-14.833-.504-2.926 9.045a91.694 91.694 0 0 0-14.844 2.41l-5.628-7.622-13.887 5.167.731 9.483a92.968 92.968 0 0 0-12.773 7.936l-8.193-4.91-10.861 10.088 4.356 8.519a86.862 86.862 0 0 0-8.779 12.15l-9.442-1.412-6.167 13.45 7.293 6.165a86.571 86.571 0 0 0-3.377 14.571l-9.51 2.197zm99.938-47.715a58.859 58.859 0 0 1 32.262 10.952 58.503 58.503 0 0 1 20.713 26.959 58.243 58.243 0 0 1 2.181 33.877 58.412 58.412 0 0 1-17.086 29.374 58.794 58.794 0 0 1-30.593 14.967 58.915 58.915 0 0 1-33.785-4.485 58.622 58.622 0 0 1-25.588-22.426 58.277 58.277 0 0 1-8.764-32.805 58.35 58.35 0 0 1 18.596-40.713 58.828 58.828 0 0 1 42.053-15.7h.011z" fill="#EBEBEB"/><path d="M104.574 206.195l6.139 5.716 4.646-2.784a49.906 49.906 0 0 0 7.244 4.479l-.478 5.44 7.879 2.837 3.203-4.36a49.412 49.412 0 0 0 8.359 1.408l1.696 5.163 8.506-.279 1.29-5.261a52.595 52.595 0 0 0 8.335-2.037l3.533 4.094 7.637-3.493-.816-5.334a51.733 51.733 0 0 0 6.905-4.978l4.785 2.519 5.725-6.15-2.803-4.632a51.748 51.748 0 0 0 4.473-7.237l5.455.466 2.94-7.868-4.364-3.206a51.282 51.282 0 0 0 1.4-8.356l5.148-1.675-.295-8.395-5.28-1.309a49.397 49.397 0 0 0-1.965-8.294l4.109-3.515-3.487-7.655-5.349.827a49.99 49.99 0 0 0-4.985-6.909l2.448-4.84-6.197-5.853-4.66 2.8a49.625 49.625 0 0 0-7.244-4.479l.478-5.44-7.886-2.93-3.203 4.36a49.383 49.383 0 0 0-8.358-1.408l-1.697-5.163-8.393.318-1.29 5.261a51.385 51.385 0 0 0-8.296 1.925l-3.519-4.111-7.636 3.493.801 5.351a51.555 51.555 0 0 0-6.905 4.978l-4.812-2.454-5.725 6.149 2.803 4.632a51.6 51.6 0 0 0-4.472 7.238l-5.442-.483-2.939 7.867 4.35 3.224a52.55 52.55 0 0 0-1.4 8.356l-5.148 1.674.294 8.395 5.28 1.309a49.326 49.326 0 0 0 1.829 8.586l-4.109 3.515 3.487 7.655 5.349-.827a49.54 49.54 0 0 0 4.985 6.909l-2.358 4.771zm16.619-60.503a33.123 33.123 0 0 1 16.648-9.626 33.17 33.17 0 0 1 19.2 1.24 33.212 33.212 0 0 1 15.292 11.688 33.193 33.193 0 0 1 6.238 18.204 33.117 33.117 0 0 1-19.333 31.319 33.156 33.156 0 0 1-19.063 2.575 33.206 33.206 0 0 1-17.297-8.441 33.208 33.208 0 0 1-10.611-23.143 33.118 33.118 0 0 1 8.909-23.83l.017.014zM88.58 67.802l3.532 3.29 2.674-1.603a28.752 28.752 0 0 0 4.168 2.578l-.275 3.13 4.534 1.632 1.843-2.509a28.41 28.41 0 0 0 4.81.81l.976 2.972 4.895-.16.742-3.028a30.254 30.254 0 0 0 4.796-1.173l2.033 2.357 4.394-2.01-.469-3.07a29.7 29.7 0 0 0 3.973-2.865l2.754 1.45 3.295-3.539-1.614-2.665a29.729 29.729 0 0 0 2.574-4.165l3.139.269 1.692-4.528-2.511-1.845c.401-1.578.67-3.186.806-4.808l2.962-.964-.17-4.83-3.038-.754a28.433 28.433 0 0 0-1.131-4.773l2.364-2.022-2.006-4.405-3.078.475a28.716 28.716 0 0 0-2.869-3.975l1.409-2.785-3.566-3.368-2.681 1.611a28.514 28.514 0 0 0-4.169-2.577l.275-3.13-4.538-1.686-1.842 2.509a28.434 28.434 0 0 0-4.81-.81l-.977-2.972-4.83.183-.742 3.027a29.488 29.488 0 0 0-4.773 1.108l-2.025-2.366-4.394 2.01.46 3.08a29.721 29.721 0 0 0-3.973 2.864L90.43 22.36l-3.294 3.539 1.613 2.665a29.718 29.718 0 0 0-2.574 4.165l-3.13-.278-1.692 4.527 2.503 1.855a30.242 30.242 0 0 0-.806 4.808l-2.962.964.17 4.83 3.038.754a28.393 28.393 0 0 0 1.052 4.94l-2.364 2.023 2.006 4.405 3.078-.476c.84 1.405 1.8 2.735 2.869 3.976l-1.358 2.745zm9.563-34.815a19.06 19.06 0 0 1 9.579-5.54 19.11 19.11 0 0 1 23.438 17.914 19.058 19.058 0 0 1-11.125 18.022 19.079 19.079 0 0 1-10.97 1.483 19.108 19.108 0 0 1-9.953-4.858 19.108 19.108 0 0 1-6.106-13.317 19.073 19.073 0 0 1 5.127-13.713l.01.009z" fill="#FC6733"/><path opacity=".3" d="M19.694 113.294l3.207 3.455 2.747-1.395a28.7 28.7 0 0 0 3.875 2.799l-.478 3.045 4.296 1.978 2.031-2.338c1.521.502 3.085.869 4.674 1.096l.724 2.977 4.746.145.984-2.927c1.606-.131 3.2-.4 4.765-.803l1.809 2.487 4.474-1.674-.207-3.096a27.983 27.983 0 0 0 4.13-2.54l2.619 1.583 3.523-3.242-1.352-2.732a30.23 30.23 0 0 0 2.836-3.937l3.046.447 2.023-4.346-2.303-2.002a30.14 30.14 0 0 0 1.162-4.7l3.052-.71.213-4.757-2.906-.944c-.116-1.606-.36-3.2-.731-4.763l2.47-1.833-1.605-4.46-3.053.264a29.26 29.26 0 0 0-2.489-4.115l1.633-2.635-3.208-3.455-2.76 1.383a26.452 26.452 0 0 0-3.862-2.787l.49-3.059-4.308-1.964-2.056 2.366a28.034 28.034 0 0 0-4.66-1.083l-.663-3.049-4.733-.158-.982 2.953c-1.607.131-3.2.4-4.765.803l-1.81-2.487-4.473 1.674.193 3.084a29.968 29.968 0 0 0-4.117 2.552l-2.618-1.583-3.523 3.242 1.366 2.744a30.442 30.442 0 0 0-2.837 3.937l-3.046-.447-2.01 4.332 2.302 2.002a30.155 30.155 0 0 0-1.161 4.7l-3.04.695-.227 4.746 2.918.93a30.17 30.17 0 0 0 .72 4.777l-2.47 1.833 1.604 4.459 3.054-.263a29.615 29.615 0 0 0 2.486 4.089l-1.72 2.707zM36.83 96.376a8.265 8.265 0 0 1-.255-4.79 8.428 8.428 0 0 1 6.77-6.298 8.19 8.19 0 0 1 4.743.617 8.084 8.084 0 0 1 3.562 3.159 8.196 8.196 0 0 1 1.18 4.636 8.43 8.43 0 0 1-5.44 7.478c-2.06.773-4.33.7-6.312-.202a8.108 8.108 0 0 1-4.262-4.612l.014.012z" fill="#FC6733"/><path d="M44.053 174.356l3.555-.923c1.01.485 2.068.866 3.156 1.137l1.78 2.565 6.387-.228 1.56-2.656c1.063-.347 2.088-.8 3.06-1.353l3.6.655 4.36-4.677-.921-3.555a16.541 16.541 0 0 0 1.138-3.156l2.565-1.783-.224-6.387-2.655-1.558a16.205 16.205 0 0 0-1.352-3.06l.657-3.601-4.674-4.357-3.556.923a15.96 15.96 0 0 0-3.17-1.15l-1.781-2.565-6.386.228-1.568 2.65c-1.063.347-2.088.8-3.06 1.352l-3.593-.648-4.359 4.677.921 3.555a16.667 16.667 0 0 0-1.159 3.179l-2.565 1.783.225 6.386 2.655 1.559A16.175 16.175 0 0 0 40 166.407l-.657 3.602 4.71 4.347zm5.737-21.399a7.187 7.187 0 0 1 11.085.688 7.182 7.182 0 0 1 .287 7.977 7.187 7.187 0 0 1-11.005 1.496 7.193 7.193 0 0 1-.367-10.161z" fill="#fff"/></svg>