<svg width="326" height="247" viewBox="0 0 326 247" fill="none" xmlns="http://www.w3.org/2000/svg">
<path opacity="0.4" d="M129.591 115.652L129.085 130.38L138.167 133.339C138.552 138.312 139.361 143.243 140.587 148.079L132.889 153.683L138.111 167.615L147.632 166.853C149.886 171.312 152.522 175.568 155.51 179.575L150.581 187.769L160.709 198.54L169.218 194.202C173.045 197.46 177.133 200.403 181.44 203.001L180.067 212.405L193.572 218.514L199.761 211.296C204.537 212.815 209.431 213.939 214.392 214.658L216.643 223.883L231.476 224.387L234.492 215.331C239.502 214.936 244.471 214.13 249.348 212.921L255.065 220.543L268.941 215.432L268.176 205.949C272.647 203.665 276.92 201.014 280.949 198.025L289.142 202.923L300.003 192.835L295.647 184.316C298.919 180.526 301.856 176.46 304.426 172.166L313.868 173.578L320.035 160.128L312.743 153.963C314.282 149.211 315.411 144.336 316.119 139.392L325.494 137.083L326 122.355L316.884 119.396C316.506 114.408 315.696 109.461 314.464 104.611L322.162 99.0071L316.929 85.1756L307.408 85.9377C305.154 81.4794 302.518 77.223 299.53 73.2159L304.459 65.0223L294.331 54.2508L285.822 58.5885C282.008 55.3273 277.927 52.3879 273.623 49.8009L275.041 40.3968L261.536 34.2881L255.312 41.5065C250.536 39.9876 245.643 38.8629 240.682 38.1439L238.431 28.9191L223.598 28.4147L220.672 37.4601C215.666 37.8557 210.701 38.6617 205.828 39.87L200.2 32.2481L186.313 37.4153L187.044 46.8978C182.578 49.1946 178.306 51.8485 174.271 54.8336L166.078 49.9242L155.217 60.012L159.573 68.5306C156.301 72.3214 153.364 76.3865 150.794 80.6808L141.352 79.2686L135.185 92.719L142.478 98.8838C140.934 103.635 139.804 108.51 139.101 113.455L129.591 115.652ZM229.529 67.9366C241.134 68.3292 252.361 72.1408 261.791 78.8892C271.22 85.6376 278.428 95.0195 282.504 105.848C286.579 116.677 287.338 128.467 284.685 139.725C282.032 150.984 276.086 161.206 267.599 169.099C259.112 176.992 248.466 182.2 237.006 184.066C225.547 185.932 213.789 184.371 203.221 179.581C192.652 174.791 183.747 166.986 177.633 157.155C171.518 147.324 168.468 135.908 168.869 124.35C169.403 108.86 176.092 94.2155 187.465 83.6365C198.838 73.0575 213.965 67.4103 229.518 67.9366L229.529 67.9366Z" fill="#EBEBEB"/>
<path d="M104.574 206.195L110.713 211.911L115.359 209.127C117.642 210.824 120.065 212.322 122.603 213.606L122.125 219.046L130.004 221.883L133.207 217.523C135.948 218.231 138.745 218.702 141.566 218.931L143.262 224.094L151.768 223.815L153.058 218.554C155.887 218.103 158.675 217.422 161.393 216.517L164.926 220.611L172.563 217.118L171.747 211.784C174.182 210.317 176.491 208.652 178.652 206.806L183.437 209.325L189.162 203.175L186.359 198.543C188.046 196.258 189.542 193.837 190.832 191.306L196.287 191.772L199.227 183.904L194.863 180.698C195.559 177.956 196.028 175.161 196.263 172.342L201.411 170.667L201.116 162.272L195.836 160.963C195.421 158.147 194.764 155.372 193.871 152.669L197.98 149.154L194.493 141.499L189.144 142.326C187.682 139.885 186.014 137.574 184.159 135.417L186.607 130.577L180.41 124.724L175.75 127.524C173.468 125.826 171.045 124.328 168.506 123.045L168.984 117.605L161.098 114.675L157.895 119.035C155.155 118.327 152.358 117.856 149.537 117.627L147.84 112.464L139.447 112.782L138.157 118.043C135.343 118.454 132.568 119.098 129.861 119.968L126.342 115.857L118.706 119.35L119.507 124.701C117.072 126.167 114.763 127.832 112.602 129.679L107.79 127.225L102.065 133.374L104.868 138.006C103.181 140.291 101.685 142.712 100.396 145.244L94.9545 144.761L92.0152 152.628L96.3645 155.852C95.6736 158.595 95.2053 161.389 94.9641 164.208L89.8165 165.882L90.1114 174.277L95.3914 175.586C95.7446 178.497 96.3565 181.37 97.22 184.172L93.1112 187.687L96.5981 195.342L101.947 194.515C103.407 196.957 105.075 199.268 106.932 201.424L104.574 206.195ZM121.193 145.692C125.667 140.908 131.46 137.559 137.841 136.066C144.221 134.573 150.902 135.005 157.041 137.306C163.18 139.607 168.501 143.674 172.333 148.994C176.165 154.314 178.335 160.649 178.571 167.198C178.806 173.747 177.095 180.217 173.654 185.791C170.213 191.365 165.197 195.794 159.238 198.517C153.28 201.24 146.646 202.136 140.175 201.092C133.703 200.048 127.685 197.111 122.878 192.651C119.673 189.681 117.086 186.107 115.265 182.136C113.444 178.164 112.425 173.873 112.267 169.508C112.109 165.144 112.814 160.792 114.343 156.702C115.872 152.613 118.194 148.866 121.176 145.678L121.193 145.692Z" fill="#FC6733"/>
<path d="M88.5794 67.8022L92.1123 71.0912L94.7858 69.4894C96.0993 70.4656 97.4938 71.3279 98.9539 72.0668L98.6789 75.1971L103.213 76.8293L105.056 74.3203C106.633 74.7278 108.242 74.9989 109.866 75.1307L110.842 78.1017L115.737 77.9414L116.479 74.9139C118.107 74.6544 119.711 74.2622 121.275 73.7414L123.308 76.0978L127.702 74.0876L127.233 71.0182C128.634 70.1742 129.963 69.2161 131.206 68.1535L133.96 69.603L137.255 66.0643L135.641 63.3991C136.612 62.084 137.473 60.6909 138.215 59.2342L141.354 59.5026L143.046 54.9752L140.535 53.1301C140.936 51.5524 141.205 49.9441 141.341 48.3217L144.303 47.358L144.133 42.5273L141.095 41.774C140.856 40.1535 140.478 38.5567 139.964 37.0012L142.328 34.979L140.322 30.5737L137.244 31.0495C136.403 29.6452 135.443 28.3152 134.375 27.074L135.784 24.2887L132.218 20.9208L129.537 22.5323C128.224 21.5551 126.829 20.6927 125.368 19.9548L125.643 16.8246L121.105 15.1386L119.263 17.6475C117.685 17.24 116.076 16.9688 114.453 16.8371L113.476 13.8661L108.646 14.049L107.904 17.0765C106.285 17.3128 104.688 17.6833 103.131 18.1843L101.106 15.8183L96.7116 17.8285L97.1725 20.9075C95.7715 21.7515 94.4426 22.7096 93.1993 23.7722L90.4302 22.3598L87.1358 25.8986L88.7489 28.5637C87.7779 29.8789 86.9171 31.2719 86.1752 32.7287L83.0442 32.4506L81.3528 36.978L83.8556 38.8327C83.458 40.4111 83.1885 42.0192 83.0497 43.6411L80.0876 44.6048L80.2573 49.4355L83.2956 50.1888C83.4988 51.8636 83.851 53.517 84.3478 55.1294L81.9835 57.1516L83.99 61.5569L87.0677 61.0811C87.908 62.4862 88.8679 63.8163 89.9366 65.0566L88.5794 67.8022ZM98.1426 32.9868C100.717 30.2339 104.051 28.3064 107.722 27.4475C111.394 26.5885 115.238 26.8368 118.771 28.1608C122.304 29.4849 125.366 31.8254 127.571 34.8868C129.775 37.9482 131.024 41.5934 131.16 45.3619C131.295 49.1305 130.31 52.8536 128.331 56.0611C126.351 59.2686 123.464 61.8168 120.035 63.3838C116.607 64.9509 112.789 65.4665 109.065 64.8658C105.342 64.265 101.878 62.5747 99.1125 60.0082C97.2682 58.2991 95.7793 56.2428 94.7314 53.9575C93.6835 51.6722 93.0972 49.2029 93.0062 46.6913C92.9152 44.1798 93.3213 41.6754 94.201 39.3222C95.0808 36.9689 96.4171 34.8131 98.133 32.9784L98.1426 32.9868Z" fill="#FC6733"/>
<path opacity="0.3" d="M19.6935 113.294L22.9013 116.749L25.6479 115.354C26.8592 116.393 28.1553 117.329 29.523 118.153L29.0447 121.198L33.3408 123.176L35.3722 120.838C36.8931 121.34 38.4571 121.707 40.046 121.934L40.7705 124.911L45.5158 125.056L46.5001 122.129C48.1063 121.998 49.7004 121.729 51.2648 121.326L53.0737 123.813L57.5477 122.139L57.3406 119.043C58.7877 118.318 60.17 117.468 61.4716 116.503L64.0898 118.086L67.6128 114.844L66.2608 112.112C67.3103 110.878 68.2589 109.561 69.0974 108.175L72.1429 108.622L74.1665 104.276L71.8632 102.274C72.3762 100.74 72.7647 99.1678 73.025 97.5741L76.0769 96.8646L76.2904 92.1068L73.3843 91.1633C73.2682 89.5567 73.0236 87.9638 72.6529 86.4L75.1226 84.5668L73.5181 80.1076L70.4645 80.3707C69.7488 78.9321 68.9166 77.556 67.9763 76.2559L69.6086 73.6208L66.4008 70.1659L63.6404 71.5489C62.4399 70.5059 61.1477 69.5732 59.7791 68.762L60.2696 65.7032L55.9613 63.739L53.9054 66.1049C52.3874 65.612 50.8285 65.2497 49.2455 65.0216L48.5822 61.9735L43.8492 61.8153L42.8665 64.7677C41.2603 64.8993 39.6663 65.1679 38.1018 65.5707L36.2929 63.0843L31.8189 64.7578L32.0121 67.8423C30.5741 68.5799 29.1971 69.4334 27.8949 70.3944L25.2767 68.8113L21.7538 72.0527L23.1196 74.7967C22.0707 76.0317 21.1221 77.3482 20.2831 78.7336L17.2375 78.2868L15.2261 82.6193L17.5295 84.6208C17.0165 86.1553 16.628 87.7271 16.3677 89.3208L13.328 90.0163L13.1006 94.762L16.019 95.6914C16.131 97.3024 16.3715 98.9 16.7382 100.469L14.2685 102.302L15.873 106.761L18.9265 106.498C19.6443 107.927 20.4758 109.294 21.4131 110.587L19.6935 113.294ZM36.8307 96.3756C36.2743 94.8462 36.1855 93.179 36.5756 91.5851C36.9658 89.9911 37.8173 88.542 39.0225 87.4211C40.2277 86.3002 41.7324 85.5578 43.3462 85.2879C44.96 85.0181 46.6104 85.2328 48.0886 85.9049C49.5668 86.5771 50.8064 87.6765 51.6505 89.064C52.4946 90.4516 52.9054 92.0649 52.8307 93.6999C52.7561 95.3349 52.1995 96.9181 51.2312 98.2491C50.263 99.5802 48.9267 100.599 47.3914 101.178C45.3313 101.951 43.0611 101.878 41.0788 100.976C39.0965 100.074 37.5638 98.4148 36.8169 96.3636L36.8307 96.3756Z" fill="#FC6733"/>
<path d="M44.0532 174.356L47.6083 173.433C48.6187 173.918 49.6759 174.299 50.7635 174.57L52.5449 177.135L58.931 176.907L60.4908 174.251C61.5539 173.904 62.5791 173.451 63.5509 172.898L67.1517 173.553L71.5103 168.876L70.5896 165.321C71.0751 164.31 71.4567 163.253 71.7282 162.165L74.2933 160.382L74.0689 153.995L71.4136 152.437C71.07 151.373 70.6173 150.348 70.0625 149.377L70.7194 145.776L66.0446 141.419L62.4895 142.342C61.4762 141.848 60.4135 141.462 59.3191 141.192L57.5377 138.627L51.1515 138.855L49.5841 141.505C48.5214 141.852 47.4962 142.305 46.5241 142.857L42.9308 142.209L38.5723 146.886L39.493 150.441C38.9999 151.459 38.6117 152.524 38.3345 153.62L35.7694 155.403L35.9938 161.789L38.6491 163.348C38.9927 164.412 39.4455 165.437 40.0002 166.407L39.3433 170.009L44.0532 174.356ZM49.7903 152.957C50.7586 151.917 52.0134 151.187 53.396 150.86C54.7787 150.532 56.2271 150.622 57.5582 151.118C58.8893 151.614 60.0434 152.493 60.8746 153.645C61.7058 154.797 62.1767 156.169 62.2279 157.589C62.2791 159.009 61.9083 160.412 61.1622 161.622C60.4162 162.831 59.3285 163.793 58.0365 164.384C56.7446 164.976 55.3065 165.171 53.9039 164.946C52.5014 164.72 51.1973 164.084 50.1567 163.118C48.7622 161.819 47.9405 160.019 47.8718 158.114C47.8031 156.209 48.4931 154.354 49.7903 152.957Z" fill="white"/>
</svg>
