<svg width="150" height="150" viewBox="0 0 150 150" fill="none" xmlns="http://www.w3.org/2000/svg">
<g filter="url(#filter0_d_2_138)">
<circle cx="75" cy="65" r="25" fill="white"/>
</g>
<circle cx="75" cy="65" r="25" fill="white"/>
<circle cx="75.236" cy="64.7641" r="21.934" fill="#FC6733"/>
<path d="M67.5121 57.5297C66.1241 57.5297 65 58.6544 65 60.0414C65 61.4284 66.1241 62.5531 67.5121 62.5531C68.8991 62.5531 70.0238 61.4284 70.0238 60.0414C70.024 58.6544 68.8995 57.5297 67.5121 57.5297Z" fill="white"/>
<path d="M72.5359 57.5297C71.1479 57.5297 70.0242 58.6544 70.0242 60.0414C70.0242 61.4284 71.1481 62.5531 72.5359 62.5531C73.9229 62.5531 75.0476 61.4284 75.0476 60.0414C75.0476 58.6544 73.9229 57.5297 72.5359 57.5297Z" fill="white"/>
<path d="M77.5598 57.5297C76.1722 57.5297 75.0481 58.6544 75.0481 60.0414C75.0481 61.4284 76.1722 62.5531 77.5598 62.5531C78.9468 62.5531 80.0715 61.4284 80.0715 60.0414C80.0717 58.6544 78.9472 57.5297 77.5598 57.5297Z" fill="white"/>
<path d="M70.0239 62.5534C68.636 62.5534 67.5122 63.6781 67.5122 65.0655C67.5122 66.4525 68.6362 67.5772 70.0239 67.5772C71.4109 67.5772 72.5356 66.4525 72.5356 65.0655C72.5361 63.6783 71.4111 62.5534 70.0239 62.5534Z" fill="white"/>
<path d="M75.0478 62.5534C73.6599 62.5534 72.5361 63.6781 72.5361 65.0655C72.5361 66.4525 73.6601 67.5772 75.0478 67.5772C76.4348 67.5772 77.5596 66.4525 77.5596 65.0655C77.5596 63.6783 76.4348 62.5534 75.0478 62.5534Z" fill="white"/>
<path d="M72.5359 67.5772C71.1479 67.5772 70.0242 68.7019 70.0242 70.0889C70.0242 71.4763 71.1481 72.6006 72.5359 72.6006C73.9229 72.6006 75.0476 71.4761 75.0476 70.0889C75.0476 68.7019 73.9229 67.5772 72.5359 67.5772Z" fill="white"/>
<path d="M75.0478 72.601C73.6599 72.601 72.5361 73.7257 72.5361 75.1131C72.5361 76.5001 73.6599 77.6248 75.0478 77.6248C76.4348 77.6248 77.5596 76.5001 77.5596 75.1131C77.5596 73.7257 76.4348 72.601 75.0478 72.601Z" fill="white"/>
<path d="M77.5598 67.5772C76.1722 67.5772 75.0481 68.7019 75.0481 70.0889C75.0481 71.4763 76.1722 72.6006 77.5598 72.6006C78.9468 72.6006 80.0715 71.4761 80.0715 70.0889C80.0719 68.7019 78.9472 67.5772 77.5598 67.5772Z" fill="white"/>
<path d="M80.0718 62.5534C78.6842 62.5534 77.5601 63.6781 77.5601 65.0655C77.5601 66.4525 78.6842 67.5772 80.0718 67.5772C81.4592 67.5772 82.5835 66.4525 82.5835 65.0655C82.5837 63.6783 81.4592 62.5534 80.0718 62.5534Z" fill="white"/>
<path d="M82.5837 57.5297C81.1961 57.5297 80.072 58.6544 80.072 60.0414C80.072 61.4284 81.1961 62.5531 82.5837 62.5531C83.9711 62.5531 85.0958 61.4284 85.0958 60.0414C85.0956 58.6544 83.9709 57.5297 82.5837 57.5297Z" fill="white"/>
<path d="M72.85 54.5596C73.5428 54.8239 74.2957 54.9319 74.9794 55.1864C75.0015 55.1944 73.9148 57.5296 73.8708 57.5296H76.7493C76.9553 57.5296 77.3906 56.5754 77.488 56.4184C77.9145 55.7279 78.3675 54.6847 79.0623 54.2316C79.7221 53.8023 80.5697 53.8145 81.3277 53.8145L81.3275 52.4801C81.3275 52.4519 77.6264 52.4975 77.3008 52.5218C76.2233 52.6003 75.0389 52.4791 73.9749 52.2967C72.956 52.1219 72.0912 51.8521 71.2543 51.2499L71.3064 53.7884C71.3119 54.0647 72.6378 54.4793 72.85 54.5596" fill="white"/>
<defs>
<filter id="filter0_d_2_138" x="0" y="0" width="150" height="150" filterUnits="userSpaceOnUse" color-interpolation-filters="sRGB">
<feFlood flood-opacity="0" result="BackgroundImageFix"/>
<feColorMatrix in="SourceAlpha" type="matrix" values="0 0 0 0 0 0 0 0 0 0 0 0 0 0 0 0 0 0 127 0" result="hardAlpha"/>
<feOffset dy="10"/>
<feGaussianBlur stdDeviation="25"/>
<feColorMatrix type="matrix" values="0 0 0 0 0 0 0 0 0 0 0 0 0 0 0 0 0 0 0.1 0"/>
<feBlend mode="normal" in2="BackgroundImageFix" result="effect1_dropShadow_2_138"/>
<feBlend mode="normal" in="SourceGraphic" in2="effect1_dropShadow_2_138" result="shape"/>
</filter>
</defs>
</svg>
