<svg width="37" height="38" viewBox="0 0 37 38" fill="none" xmlns="http://www.w3.org/2000/svg"><path d="M36.58 22.925l-2.41-3.623c-.19-.279-.19-.465 0-.744.803-1.16 1.56-2.369 2.363-3.53.898-1.394.425-2.787-1.135-3.345a140.764 140.764 0 0 0-4.017-1.486c-.284-.093-.378-.28-.425-.558-.048-1.44-.142-2.88-.237-4.32-.095-1.533-1.323-2.416-2.788-1.997-1.418.371-2.836.743-4.254 1.16-.33.094-.473 0-.709-.231-.898-1.115-1.843-2.23-2.74-3.345-.994-1.208-2.506-1.208-3.498 0-.898 1.115-1.796 2.183-2.694 3.298-.237.326-.473.372-.804.279-1.37-.372-2.788-.743-3.781-1.022-1.938-.465-3.072.325-3.167 1.858-.094 1.44-.189 2.927-.236 4.367 0 .325-.095.465-.425.557-1.37.511-2.789 1.022-4.16 1.58-1.418.557-1.89 1.95-1.04 3.205l2.411 3.624c.189.278.189.464 0 .743-.85 1.208-1.654 2.462-2.458 3.716-.756 1.208-.283 2.602 1.04 3.113 1.418.511 2.788 1.068 4.206 1.58.284.092.379.278.426.557.047 1.394.236 2.787.189 4.18 0 1.44 1.228 2.649 2.977 2.138 1.37-.418 2.789-.744 4.16-1.115.283-.093.425-.047.614.185.898 1.115 1.843 2.23 2.788 3.345 1.04 1.208 2.505 1.208 3.498 0a96.228 96.228 0 0 0 2.741-3.391c.19-.232.331-.279.615-.232 1.418.371 2.883.743 4.3 1.115 1.466.371 2.695-.511 2.79-1.998.094-1.44.188-2.927.236-4.367 0-.325.141-.464.425-.557 1.37-.511 2.694-1.022 4.064-1.533 1.513-.558 1.986-1.951 1.135-3.206zm-11.438-.186s.757 2.044-2.221 2.648c-.898.186-1.985.186-3.025.093-1.134.047-2.268-.046-3.214-.093-2.142-.105-2.6-1.115-2.6-1.115 0 .837-.283 1.116-.33 1.162-.237.14-.52.232-.85.232H10.68c-.803 0-1.513-.65-1.513-1.487v-5.853c0-.79.662-1.487 1.513-1.487h2.22c.378 0 .71.14.993.372a4.17 4.17 0 0 1 .803-1.347C16.352 14.61 18.1 9.871 18.1 9.871s-.283-1.718.567-1.718c.804 0 2.742.557 1.607 3.995-1.181 3.484 0 2.927 0 2.927.284-.047.52-.093.756-.14 0 0 3.356-.743 4.632.372.993.883.237 2.09.237 2.09s1.418 1.208-.048 2.695c-.047 0 .851 1.486-.709 2.647z" fill="#FC6733"/></svg>