<?xml version="1.0" standalone="no"?>
<!DOCTYPE svg PUBLIC "-//W3C//DTD SVG 1.1//EN" "http://www.w3.org/Graphics/SVG/1.1/DTD/svg11.dtd" >
<svg xmlns="http://www.w3.org/2000/svg">
<metadata>Generated by IcoMoon</metadata>
<defs>
<font id="icomoon" horiz-adv-x="1024">
<font-face units-per-em="1024" ascent="960" descent="-64" />
<missing-glyph horiz-adv-x="1024" />
<glyph unicode="&#x20;" horiz-adv-x="512" d="" />
<glyph unicode="&#xe900;" glyph-name="adres" d="M166.572 516.366c0 186.915 156.196 337.992 345.131 337.992 189.464 0 345.663-151.077 345.663-337.992 0-94.19-34.255-181.635-90.639-255.748-62.196-81.754-138.864-152.986-225.153-208.901-19.753-12.922-37.576-13.897-59.251 0-86.784 55.915-163.448 127.147-225.115 208.901-56.422 74.113-90.636 161.558-90.636 255.748zM397.956 505.841c0-62.615 51.095-111.865 113.746-111.865 62.693 0 114.278 49.25 114.278 111.865 0 62.129-51.585 113.775-114.278 113.775-62.651 0-113.746-51.646-113.746-113.775z" />
<glyph unicode="&#xe901;" glyph-name="arrow_down" d="M209.586 609.796c10.693 10.692 27.425 11.665 39.215 2.917l3.378-2.917 259.801-259.787 259.803 259.787c10.692 10.692 27.425 11.665 39.213 2.917l3.379-2.917c10.692-10.692 11.662-27.424 2.915-39.214l-2.915-3.378-281.098-281.098c-10.692-10.692-27.425-11.662-39.215-2.915l-3.378 2.915-281.098 281.098c-11.762 11.762-11.762 30.831 0 42.592z" />
<glyph unicode="&#xe902;" glyph-name="arrow_slide" horiz-adv-x="853" d="M813.265 402.743c24.99 24.994 24.99 65.519 0 90.513l-407.295 407.292c-24.994 24.994-65.516 24.994-90.51 0s-24.994-65.516 0-90.51l362.039-362.039-362.040-362.039c-24.994-24.994-24.994-65.515 0-90.509s65.516-24.994 90.51 0l407.296 407.292zM563.209 384h204.8v128h-204.8v-128z" />
<glyph unicode="&#xe903;" glyph-name="back" d="M836.373 391.078h-504.845l197.167-186.697c23.057-22.771 23.057-58.441 0-81.207-23.057-22.012-61.218-22.012-84.275 0l-299.725 284.604c-22.26 21.248-22.26 59.196 0 80.444l299.725 284.605c23.057 22.009 61.218 22.009 84.275 0 11.132-11.384 17.489-25.88 17.489-40.224 0-14.42-6.357-29.599-17.489-40.224l-197.167-187.457h504.845c33.391 0 59.627-25.045 59.627-56.922 0-31.117-26.236-56.922-59.627-56.922z" />
<glyph unicode="&#xe904;" glyph-name="best" d="M835.302 457.982h8.535c30.346 0 54.994 24.652 54.994 54.996s-24.653 54.995-54.994 54.995h-174.469c-10.435 0-17.065 8.532-16.123 18.962 11.377 75.858 27.494 101.461 35.082 180.158 7.588 75.857-100.506 89.133-115.676 18.962-29.394-130.853-137.49-218.086-172.575-244.636-7.586-5.688-11.376-13.275-11.376-22.758v-312.905c0-11.377 6.641-20.864 17.064-25.605 37.925-16.118 82.492-52.152 211.447-52.152h201.021c30.346 0 54.994 24.653 54.994 54.994 0 30.346-24.653 54.999-54.994 54.999h6.641c27.494 0 53.1 19.912 56.893 47.406 4.746 33.193-21.806 62.587-54.994 62.587h6.641c27.494 0 53.1 19.912 56.893 47.406 3.794 34.145-21.806 62.593-54.994 62.593l-0.010-0.002zM318.541 533.85h-135.597c-15.173 0-27.494-12.329-27.494-27.494v-290.148c0-15.176 12.329-27.494 27.494-27.494l135.597-0.010c15.173 0 27.494 12.329 27.494 27.494v290.152c0 15.166-12.322 27.494-27.494 27.494v0.007zM251.215 249.39c-16.118 0-29.392 13.276-29.392 29.394s13.275 29.389 29.392 29.389c16.119 0 29.393-13.271 29.393-29.389 0-16.123-13.275-29.394-29.393-29.394z" />
<glyph unicode="&#xe905;" glyph-name="btn_arrow" d="M581.752 54.154l402.864 394.483-402.864 393.21-130.377-128.525 186.439-174.336h-598.429v-181.971h599.732l-189.046-174.336 131.681-128.525z" />
<glyph unicode="&#xe906;" glyph-name="calendar" d="M860.021 532.117h-715.757c-16.625 0-30.118 13.493-30.118 30.118s13.493 30.118 30.118 30.118h715.757c16.625 0 30.118-13.493 30.118-30.118s-13.493-30.118-30.118-30.118zM680.719 375.294c-16.625 0-30.28 13.493-30.28 30.118s13.294 30.118 29.919 30.118h0.361c16.625 0 30.118-13.493 30.118-30.118s-13.493-30.118-30.118-30.118zM502.514 375.294c-16.625 0-30.278 13.493-30.278 30.118s13.292 30.118 29.917 30.118h0.361c16.625 0 30.118-13.493 30.118-30.118s-13.493-30.118-30.118-30.118zM323.965 375.294c-16.625 0-30.318 13.493-30.318 30.118s13.332 30.118 29.957 30.118h0.361c16.625 0 30.118-13.493 30.118-30.118s-13.493-30.118-30.118-30.118zM680.719 219.208c-16.625 0-30.28 13.493-30.28 30.118s13.294 30.118 29.919 30.118h0.361c16.625 0 30.118-13.493 30.118-30.118s-13.493-30.118-30.118-30.118zM502.514 219.208c-16.625 0-30.278 13.493-30.278 30.118s13.292 30.118 29.917 30.118h0.361c16.625 0 30.118-13.493 30.118-30.118s-13.493-30.118-30.118-30.118zM323.965 219.208c-16.625 0-30.318 13.493-30.318 30.118s13.332 30.118 29.957 30.118h0.361c16.625 0 30.118-13.493 30.118-30.118s-13.493-30.118-30.118-30.118zM664.353 697.285c-16.625 0-30.118 13.493-30.118 30.118v132.156c0 16.625 13.493 30.118 30.118 30.118s30.118-13.493 30.118-30.118v-132.156c0-16.625-13.493-30.118-30.118-30.118zM339.941 697.285c-16.625 0-30.118 13.493-30.118 30.118v132.156c0 16.625 13.493 30.118 30.118 30.118s30.118-13.493 30.118-30.118v-132.156c0-16.625-13.493-30.118-30.118-30.118zM332.147 766.029c-104.126 0-161.47-55.537-161.47-156.371v-363.38c0-103.038 57.344-159.744 161.47-159.744h339.645c104.129 0 161.473 55.657 161.473 156.696v366.428c0.163 49.594-13.173 88.145-39.635 114.648-27.226 27.306-69.192 41.723-121.477 41.723h-340.007zM671.792 26.299h-339.645c-136.734 0-221.706 84.293-221.706 219.979v363.38c0 133.642 84.972 216.607 221.706 216.607h340.007c68.632 0 125.374-20.561 164.123-59.392 37.629-37.788 57.422-92.12 57.224-157.295v-366.348c0-133.807-84.974-216.931-221.708-216.931z" />
<glyph unicode="&#xe907;" glyph-name="calendar_left" d="M288.358 487.856l372.099 387.935c21.663 21.256 54.795 21.256 75.184 0s20.389-55.799 0-78.384l-335.144-349.407 335.144-349.409c20.389-21.251 20.389-57.126 0-78.384-20.389-21.251-53.521-21.251-75.184 0l-372.099 389.265c-20.389 21.257-20.389 55.798 0 78.384z" />
<glyph unicode="&#xe908;" glyph-name="calendar_right" d="M735.642 408.144l-372.099-387.937c-21.663-21.251-54.795-21.251-75.184 0-20.389 21.258-20.389 55.801 0 78.384l335.144 349.409-335.144 349.407c-20.389 21.257-20.389 57.128 0 78.384s53.521 21.257 75.184 0l372.099-389.263c20.389-21.257 20.389-55.798 0-78.384z" />
<glyph unicode="&#xe909;" glyph-name="close" d="M886.050 62.839c26.135 26.459 26.345 69.148 0.472 95.346l-285.542 289.109 275.672 279.117c25.873 26.196 25.663 68.883-0.472 95.345s-68.295 26.675-94.168 0.479l-275.669-279.116-275.676 279.123c-25.872 26.196-68.032 25.983-94.167-0.479s-26.346-69.148-0.473-95.345l275.676-279.124-285.547-289.121c-25.872-26.192-25.661-68.881 0.473-95.34 26.135-26.465 68.295-26.675 94.167-0.484l285.547 289.121 285.539-289.109c25.873-26.197 68.033-25.987 94.168 0.478z" />
<glyph unicode="&#xe90b;" glyph-name="crumbs_arrow" d="M801.116 409.292c22.61 21.114 22.61 56.303 0 77.416l-487.365 457.457c-25.122 21.113-62.804 21.113-85.414 0l-57.78-53.957c-22.61-21.113-22.61-56.303 0-79.762l386.877-361.274-386.877-363.619c-22.61-23.459-22.61-58.649 0-79.761l57.78-53.957c22.61-21.109 60.292-21.109 85.414 0l487.365 457.457z" />
<glyph unicode="&#xe90c;" glyph-name="delete" d="M890.331 79.411c25.329 25.322 25.534 66.18 0.461 91.246l-276.688 276.688 267.121 267.121c25.073 25.070 24.869 65.923-0.461 91.247-25.322 25.325-66.172 25.529-91.246 0.459l-267.12-267.121-267.128 267.128c-25.070 25.070-65.922 24.866-91.247-0.459s-25.529-66.177-0.459-91.247l267.129-267.128-276.694-276.695c-25.070-25.066-24.866-65.924 0.459-91.246s66.177-25.527 91.247-0.461l276.694 276.696 276.686-276.688c25.073-25.066 65.924-24.861 91.246 0.461z" />
<glyph unicode="&#xe90d;" glyph-name="delete2" d="M521.912 76.318c-54.412 0-107.46 0.602-159.945 1.687-67.142 1.325-113.604 44.857-121.193 113.604-12.649 114.043-34.294 382.855-34.495 385.546-1.366 16.585 11.003 31.121 27.588 32.446 16.344 0.442 31.122-11.043 32.447-27.588 0.201-2.73 21.805-270.614 34.334-383.778 4.297-39.075 25.379-59.229 62.564-59.994 100.392-2.126 202.833-2.247 313.266-0.241 39.514 0.765 60.874 20.522 65.295 60.518 12.445 112.194 34.129 380.765 34.37 383.495 1.325 16.545 15.986 28.11 32.407 27.588 16.589-1.365 28.955-15.862 27.63-32.446-0.241-2.731-22.004-272.225-34.533-385.263-7.794-70.156-54.133-112.845-124.085-114.128-53.532-0.922-105.173-1.446-155.65-1.446zM861.684 679.088h-680.978c-16.625 0-30.118 13.493-30.118 30.118s13.493 30.118 30.118 30.118h680.978c16.625 0 30.118-13.493 30.118-30.118s-13.493-30.118-30.118-30.118zM730.498 679.099c-45.701 0-85.378 32.567-94.371 77.382l-9.758 48.831c-2.048 7.429-10.521 13.894-20.159 13.894h-169.984c-9.638 0-18.11-6.466-20.56-15.742l-9.356-46.984c-8.955-44.815-48.67-77.382-94.369-77.382-16.625 0-30.118 13.493-30.118 30.118s13.493 30.118 30.118 30.118c17.107 0 31.965 12.207 35.338 28.993l9.758 48.831c9.918 37.426 42.325 62.283 79.189 62.283h169.984c36.862 0 69.268-24.857 78.785-60.476l10.204-50.638c3.331-16.786 18.191-28.993 35.298-28.993 16.625 0 30.118-13.493 30.118-30.118s-13.493-30.118-30.118-30.118z" />
<glyph unicode="&#xe90e;" d="M512 960c282.77 0 512-229.23 512-512s-229.23-512-512-512c-282.77 0-512 229.23-512 512s229.23 512 512 512z" />
<glyph unicode="&#xe90f;" d="M380.843 229.717c0 5.175-0.995 7.765-2.987 7.765l-13.739-6.571c0 2.786-1.593 4.779-4.779 5.973l-4.779 0.597c-3.186 0-7.168-1.395-11.947-4.181-0.797 1.993-1.792 3.981-2.987 5.973s-2.19 3.785-2.987 5.376c-5.177 9.954-10.354 20.907-15.531 32.853-4.779 12.343-9.358 24.094-13.739 35.243-3.982 11.149-7.168 19.913-9.557 26.283-1.593 5.175-3.385 12.941-5.376 23.296s-3.982 23.497-5.973 39.424c4.381-2.786 7.765-4.181 10.155-4.181 2.787 0 5.376 4.181 7.765 12.544 1.195-1.591 3.385-2.389 6.571-2.389 2.389 0 4.181 0.798 5.376 2.389l9.557 14.336 10.752-3.584h0.597c0.797 0 1.593 0.397 2.389 1.195s1.991 1.591 3.584 2.389c3.186 1.993 5.575 2.987 7.168 2.987l1.792-0.597c9.955-4.779 16.327-13.538 19.115-26.283 7.168-30.263 14.336-45.397 21.504-45.397s15.531 7.565 25.088 22.699c4.779 7.565 9.557 16.329 14.336 26.283 5.175 9.954 10.355 21.107 15.531 33.451 0.798-4.779 1.591-7.168 2.389-7.168 1.993 0 5.376 4.979 10.155 14.933 5.175 9.954 13.342 23.693 24.491 41.216 6.37 10.752 14.336 22.899 23.893 36.437 9.954 13.539 20.51 27.477 31.659 41.813s21.901 27.875 32.256 40.619c10.752 12.743 20.309 23.694 28.672 32.853s14.537 15.133 18.517 17.92c15.134 10.354 27.081 20.309 35.84 29.867-0.397-2.787-0.994-5.376-1.792-7.765-0.397-1.991-0.597-3.385-0.597-4.181 0-1.593 0.798-2.389 2.389-2.389l16.725 8.363v-2.389c0-3.186 0.798-4.779 2.389-4.779 1.195 0 3.584 1.792 7.168 5.376s5.577 6.173 5.973 7.765l-1.195-8.363 20.309 11.947-4.779-10.752c6.37 4.381 10.953 6.571 13.739 6.571 1.591 0 2.786-0.995 3.584-2.987 0.798-1.593 1.195-3.186 1.195-4.779 0-2.389-0.994-5.177-2.987-8.363s-4.578-6.969-7.765-11.349c-2.389-3.186-6.37-7.965-11.947-14.336-5.175-5.973-13.141-14.933-23.893-26.88-10.752-11.549-25.088-27.677-43.008-48.384-4.779-5.177-12.147-14.336-22.101-27.477-9.954-12.745-21.303-27.678-34.048-44.8-12.343-16.725-24.691-33.651-37.035-50.773s-23.296-32.653-32.853-46.592c-9.557-13.538-16.329-23.693-20.309-30.464l-37.035-62.72c-7.966-13.538-14.537-24.691-19.712-33.451-5.177-8.363-9.159-14.135-11.947-17.323-5.973-7.168-12.544-13.538-19.712-19.115l-5.376 2.987-4.779-2.987-5.376-5.973z" />
<glyph unicode="&#xe910;" glyph-name="donwload" d="M698.667 576.103h37.333c41.233 0 74.667-32.756 74.667-73.161v-365.781c0-40.405-33.434-73.161-74.667-73.161h-447.998c-41.236 0-74.668 32.755-74.668 73.161v365.781c0 40.405 33.432 73.161 74.668 73.161h37.331c20.619 0 37.338-16.374 37.338-36.577 0-20.201-16.719-36.585-37.338-36.585h-37.331v-365.781h447.998v365.781h-37.333c-20.617 0-37.338 16.384-37.338 36.585 0 20.203 16.721 36.577 37.338 36.577v0zM549.329 707.113v-313.91c0-20.203-16.708-36.578-37.329-36.578s-37.329 16.375-37.329 36.578v313.91l-41.865-41.016c-14.58-14.287-38.218-14.287-52.799 0s-14.581 37.447 0 51.727l105.595 103.466c14.579 14.28 38.217 14.28 52.796 0l105.596-103.466c14.579-14.281 14.579-37.44 0-51.727-14.583-14.287-38.221-14.287-52.8 0l-41.865 41.016z" />
<glyph unicode="&#xe911;" glyph-name="error" d="M512.003 828.781c-209.978 0-380.8-170.822-380.8-380.8s170.822-380.801 380.8-380.801c209.974 0 380.797 170.822 380.797 380.801s-170.822 380.8-380.797 380.8zM512-0.032c-247.027 0-448 200.973-448 448.001s200.973 448 448 448c247.027 0 448-200.973 448-448s-200.973-448.001-448-448.001zM511.725 386.454c-18.547 0-33.6 15.053-33.6 33.6v197.971c0 18.547 15.053 33.6 33.6 33.6s33.6-15.053 33.6-33.6v-197.971c0-18.547-15.053-33.6-33.6-33.6zM512.18 233.12c-24.774 0-45.024 20.026-45.024 44.8s19.846 44.799 44.576 44.799h0.448c24.774 0 44.8-20.024 44.8-44.799s-20.026-44.8-44.8-44.8z" />
<glyph unicode="&#xe912;" glyph-name="faq_arrow" d="M209.615 609.855c10.692 10.692 27.425 11.665 39.215 2.916l3.378-2.916 259.801-259.786 259.803 259.786c10.692 10.692 27.425 11.665 39.213 2.916l3.379-2.916c10.692-10.692 11.662-27.425 2.915-39.215l-2.915-3.378-281.099-281.096c-10.692-10.692-27.425-11.668-39.215-2.915l-3.378 2.915-281.098 281.096c-11.762 11.762-11.762 30.831 0 42.593z" />
<glyph unicode="&#xe913;" glyph-name="footer_message1" d="M1000.425 709.941c7.201 23.885 0 40.605-33.615 40.605h-112.049c-28.812 0-41.616-15.127-48.822-31.847 0 0-56.823-138.534-137.658-227.705-26.41-26.274-37.613-34.235-52.019-34.235-7.205 0-17.608 7.962-17.608 31.847v221.336c0 28.662-8.006 40.605-32.014 40.605h-176.074c-17.608 0-28.812-13.535-28.812-25.478 0-27.070 40.017-33.439 44.819-108.279v-164.012c0-35.828-6.402-42.197-20.809-42.197-37.616 0-130.455 138.534-184.878 297.768-11.205 29.458-21.609 42.197-50.421 42.197h-112.048c-32.014 0-38.416-15.127-38.416-31.847 0-29.459 37.616-175.954 176.875-369.424 92.84-132.163 223.295-203.82 341.744-203.82 71.229 0 80.035 15.923 80.035 42.994v100.315c0 31.849 6.4 38.218 29.612 38.218 16.808 0 44.819-7.962 111.248-71.657 76.032-75.636 88.837-109.871 131.254-109.871h112.049c32.014 0 48.021 15.923 38.414 46.974-10.403 31.050-46.42 76.432-94.441 130.573-26.41 31.051-65.624 63.694-76.833 80.414-16.803 21.497-12.004 31.050 0 49.362 0 0.796 136.862 191.878 150.467 257.164z" />
<glyph unicode="&#xe914;" glyph-name="footer_message2" d="M718.944 960h-413.889c-168.209 0-305.055-136.847-305.055-305.055v-413.889c0-168.211 136.847-305.056 305.055-305.056h413.889c168.211 0 305.056 136.845 305.056 305.056v413.889c0 168.209-136.851 305.055-305.056 305.055zM920.986 241.056c0-111.584-90.458-202.042-202.042-202.042h-413.889c-111.583 0-202.041 90.458-202.041 202.042v413.889c0 111.585 90.458 202.041 202.041 202.041h413.889c111.584 0 202.042-90.456 202.042-202.041v-413.889zM512.030 712.875c-146.035 0-264.843-118.808-264.843-264.841 0-146.031 118.808-264.84 264.843-264.84 146.037 0 264.84 118.803 264.84 264.84 0 146.035-118.803 264.841-264.84 264.841zM512.030 286.202c-89.376 0-161.828 72.454-161.828 161.83s72.454 161.828 161.828 161.828c89.377 0 161.826-72.452 161.826-161.828 0-89.374-72.451-161.83-161.826-161.83zM777.395 647.393c35.053 0 63.462 28.412 63.462 63.46s-28.41 63.46-63.462 63.46c-35.046 0-63.456-28.412-63.456-63.46s28.41-63.46 63.456-63.46z" />
<glyph unicode="&#xe915;" glyph-name="hotel" d="M188.656 317.088c0 204.851 141.412 370.912 315.852 370.912h22.296c174.438 0 315.852-166.061 315.852-370.912 0-20.48-14.144-37.088-31.584-37.088h-590.831c-17.444 0-31.585 16.608-31.585 37.088zM433.907 744.727c0 48.2 33.273 87.273 74.318 87.273h14.863c41.045 0 74.319-39.073 74.319-87.273 0-4.82-3.327-8.727-7.432-8.727h-148.636c-4.105 0-7.432 3.907-7.432 8.727zM157.626 202.906c6.441 17.651 21.219 29.094 37.57 29.094h636.747c17.005 0 32.23-12.365 38.24-31.046l23.149-72c10.093-31.398-9.664-64.954-38.246-64.954h-686.166c-29.345 0-49.13 35.232-37.57 66.906l26.276 72z" />
<glyph unicode="&#xe916;" glyph-name="item-option" d="M298.667 447.957c0-70.69-57.308-128-128-128s-128 57.31-128 128c0 70.694 57.308 128.001 128 128.001s128-57.306 128-128.001zM640 447.957c0-70.69-57.306-128-128-128s-128 57.31-128 128c0 70.694 57.306 128.001 128 128.001s128-57.306 128-128.001zM853.333 319.957c70.694 0 128 57.31 128 128 0 70.694-57.306 128.001-128 128.001s-128-57.306-128-128.001c0-70.69 57.306-128 128-128z" />
<glyph unicode="&#xe917;" glyph-name="like" d="M19.616 481.074c82.057-253.149 406.246-457.837 492.399-508.503 86.447 51.185 412.978 258.139 492.397 508.27 52.151 161.686 3.745 366.492-188.577 427.951-93.176 29.656-201.863 11.607-276.897-45.964-15.685-11.955-37.458-12.187-53.26-0.348-79.482 59.254-183.311 76.606-277.952 46.312-192.032-61.401-240.259-266.207-188.11-427.718z" />
<glyph unicode="&#xe918;" glyph-name="like_card" d="M163.145 442.748c59.819-186.112 296.149-336.597 358.954-373.845 63.019 37.632 301.056 189.781 358.955 373.675 38.016 118.868 2.731 269.439-137.472 314.623-67.925 21.803-147.157 8.533-201.856-33.792-11.435-8.789-27.307-8.96-38.827-0.256-57.941 43.563-133.632 56.32-202.624 34.048-139.989-45.141-175.147-195.712-137.131-314.452zM522.142-0.047c-5.291 0-10.539 1.28-15.317 3.883-13.355 7.296-327.936 180.693-404.608 419.371-0.043 0-0.043 0.043-0.043 0.043-48.128 150.271 5.461 339.114 178.475 394.879 81.237 26.283 169.77 14.72 241.365-30.464 69.376 43.861 161.536 55.979 241.152 30.464 173.184-55.851 226.944-244.651 178.859-394.879-74.197-235.947-391.083-411.947-404.523-419.328-4.779-2.645-10.069-3.968-15.36-3.968z" />
<glyph unicode="&#xe919;" glyph-name="like2" d="M19.616 481.074c82.057-253.149 406.246-457.837 492.399-508.503 86.447 51.185 412.978 258.139 492.397 508.27 52.151 161.686 3.745 366.492-188.577 427.951-93.176 29.656-201.863 11.607-276.897-45.964-15.685-11.955-37.458-12.187-53.26-0.348-79.482 59.254-183.311 76.606-277.952 46.312-192.032-61.401-240.259-266.207-188.11-427.718z" />
<glyph unicode="&#xe91a;" glyph-name="lock" d="M733.816 632.821c0 119.716-99.159 216.687-222.389 216.687-121.599 0-220.755-96.97-221.163-216.687v-61.574c-69.124-21.589-119.559-84.201-119.559-158.984v-198.253c0-92.576 76.754-167.641 171.422-167.641h339.863c94.63 0 171.381 75.065 171.381 167.641v198.253c0 74.783-50.393 137.395-119.555 158.984v61.574zM512.243 779.673c82.834 0 150.164-65.844 150.164-146.852v-52.914h-300.734v53.712c0.408 80.609 67.736 146.054 150.57 146.054zM547.744 269.041c0-19.552-15.914-35.117-35.909-35.117-19.586 0-35.5 15.565-35.5 35.117v88.594c0 19.152 15.914 34.715 35.5 34.715 19.995 0 35.909-15.563 35.909-34.715v-88.594z" />
<glyph unicode="&#xe91b;" glyph-name="login" d="M770.142 677.614c0-143.215-114.828-258.051-258.145-258.051-143.267 0-258.145 114.836-258.145 258.051s114.877 258.002 258.145 258.002c143.316 0 258.145-114.786 258.145-258.002zM511.997-39.621c-211.511 0-390.095 34.377-390.095 167.007 0 132.686 179.706 165.844 390.095 165.844 211.56 0 390.096-34.377 390.096-167.014 0-132.681-179.707-165.837-390.096-165.837z" />
<glyph unicode="&#xe91c;" glyph-name="login2" d="M737.869 648.905c0-125.313-100.477-225.795-225.879-225.795-125.359 0-225.877 100.481-225.877 225.795s100.518 225.751 225.877 225.751c125.402 0 225.879-100.438 225.879-225.751zM511.99 21.325c-185.072 0-341.334 30.080-341.334 146.131 0 116.096 157.244 145.114 341.334 145.114 185.117 0 341.335-30.080 341.335-146.138 0-116.096-157.248-145.107-341.335-145.107z" />
<glyph unicode="&#xe91d;" glyph-name="logo" d="M149.901 576.982c10.674-4.342 19.806-11.802 26.215-21.416 6.47-10.081 9.786-21.879 9.52-33.872 0-22.368-8.016-39.929-24.048-52.683s-37.854-19.156-65.466-19.202c-26.925 0-49.186 6.603-66.781 19.809s-27.375 32.326-29.341 57.358h48.416c3.552-21.035 19.134-31.553 46.746-31.553 28.062 0 42.093 10.291 42.093 30.875 0.215 3.707-0.463 7.41-1.979 10.798-1.515 3.386-3.822 6.356-6.724 8.655-5.778 4.497-15.677 6.745-29.696 6.745h-33.746v41.939h27.707c24.723 0 37.085 7.817 37.085 23.45 0 19.488-12.918 29.221-38.754 29.197-11.841 0-21.017-2.177-27.529-6.532-6.572-4.355-10.976-11.814-13.179-22.308h-48.132c2.368 24.152 11.722 42.605 28.062 55.359s37.144 19.131 62.412 19.131c25.41 0 46.001-6.377 61.772-19.131 7.545-5.761 13.628-13.232 17.752-21.804 4.123-8.573 6.171-18.004 5.977-27.523 0.068-9.816-2.589-19.458-7.673-27.84-4.944-8.313-12.122-15.055-20.709-19.453zM340.555 638.367h47.742v-184.532h-47.742v71.136h-82.48v-71.136h-47.742v184.532h47.742v-68.102h82.48v68.102zM556.904 638.371h47.741l-0.319-184.532h-47.741v24.986c-6.417-9.255-15.031-16.756-25.061-21.823-10.028-5.067-21.158-7.54-32.379-7.195-11.387-0.268-22.69 2.017-33.087 6.692s-19.625 11.619-27.015 20.328c-15.819 17.988-23.718 41.083-23.694 69.279 0.024 28.198 7.98 51.291 23.871 69.28 7.316 8.677 16.457 15.614 26.764 20.312s21.524 7.037 32.841 6.851c11.401 0.329 22.699-2.236 32.85-7.457s18.828-12.932 25.228-22.417v25.699zM509.838 495.421c6.279-0.162 12.522 1.010 18.318 3.441 5.798 2.429 11.018 6.060 15.322 10.658 4.533 4.919 8.052 10.689 10.358 16.98 2.304 6.291 3.347 12.979 3.069 19.676 0.521 13.479-4.309 26.613-13.426 36.514-4.314 4.601-9.547 8.233-15.358 10.657-5.809 2.424-12.064 3.585-18.352 3.406-6.245 0.204-12.46-0.946-18.222-3.373s-10.936-6.073-15.169-10.69c-8.883-10.014-13.534-23.112-12.966-36.514-0.556-13.46 4.178-26.6 13.179-36.584 4.221-4.601 9.37-8.247 15.102-10.689 5.733-2.444 11.919-3.63 18.145-3.482zM756.948 638.367h54.738v-184.532h-47.741v65.425l3.019 54.681-75.803-120.106h-55.095v184.532h47.742v-65.425l-2.345-54.038 75.484 119.463zM156.306 363.534h54.703v-184.532h-47.599v65.425l3.339 63.068-57.261-82.557h-1.314l-57.119 82.521 3.019-63.068v-65.425h-47.741v184.532h55.094l47.421-65.782 47.457 65.818zM330.889 367.708c30.051 0 53.803-10.399 71.257-31.196 17.452-20.796 24.972-46.638 22.555-77.524h-140.914c1.563-14.278 6.678-25.235 15.346-32.874 9.009-7.721 20.559-11.793 32.394-11.421 8.743-0.155 17.377 1.985 25.044 6.211 6.973 3.727 12.501 9.697 15.701 16.954h49.41c-5.332-19.28-17.432-35.966-34.065-46.973-16.62-10.689-36.004-16.225-55.733-15.918-28.418 0-51.685 9.054-69.801 27.162s-27.126 41.047-27.032 68.816c0 27.697 9.011 50.731 27.032 69.101s40.957 27.59 68.806 27.662zM330.534 328.090c-10.254 0.372-20.313-2.888-28.418-9.209-7.718-6.388-13.307-14.993-16.020-24.663h87.81c-2.287 9.689-7.678 18.353-15.345 24.663-8.001 6.221-17.918 9.429-28.027 9.066v0.143zM540.571 174.966c-12.66-0.305-25.248 1.981-37.001 6.723-11.752 4.739-22.42 11.834-31.357 20.85-8.936 9.015-15.952 19.765-20.622 31.592s-6.895 24.487-6.538 37.205c-0.316 12.721 1.949 25.373 6.658 37.187 4.709 11.812 11.761 22.538 20.729 31.522 18.045 18.442 40.861 27.663 68.449 27.663 21.869 0.418 43.233-6.629 60.6-19.988 8.497-6.494 15.611-14.636 20.919-23.943s8.704-19.589 9.986-30.239h-49.091c-2.277 9.059-7.805 16.954-15.524 22.164-7.987 5.229-17.359 7.917-26.89 7.711-6.473 0.29-12.933-0.835-18.932-3.301-5.999-2.464-11.392-6.211-15.807-10.977-8.987-10.447-13.541-24.016-12.682-37.799-0.799-13.739 3.821-27.242 12.86-37.584 4.349-4.716 9.658-8.434 15.568-10.897s12.279-3.618 18.674-3.379c9.574-0.191 18.987 2.493 27.032 7.709 7.864 5.241 13.472 13.273 15.701 22.487h48.985c-3.577-23.485-13.984-41.772-31.225-54.861-17.396-13.208-38.69-20.193-60.493-19.845zM806.031 363.534v-45.295h-56.834v-139.201h-47.706v139.201h-56.407v45.295h160.947zM960.623 363.534h47.742l-0.321-184.532h-47.776v24.984c-6.4-9.264-15.005-16.771-25.030-21.84-10.027-5.069-21.156-7.535-32.374-7.178-11.392-0.273-22.702 2.010-33.106 6.685s-19.639 11.621-27.032 20.335c-15.795 17.99-23.694 41.083-23.694 69.28s7.958 51.29 23.871 69.279c7.316 8.677 16.457 15.614 26.766 20.311 10.307 4.698 21.523 7.038 32.84 6.851 11.406 0.333 22.711-2.231 32.869-7.453 10.156-5.221 18.84-12.933 25.245-22.42v25.699zM913.521 220.583c6.298-0.172 12.558 0.995 18.374 3.425s11.054 6.067 15.372 10.673c8.624 10.221 13.358 23.185 13.358 36.586 0 13.399-4.734 26.363-13.358 36.584-4.321 4.601-9.561 8.231-15.377 10.655s-12.075 3.586-18.369 3.408c-6.243 0.198-12.455-0.956-18.217-3.383-5.76-2.427-10.935-6.069-15.172-10.68-8.883-10.016-13.546-23.108-13.001-36.514-0.575-13.462 4.161-26.61 13.179-36.584 4.21-4.605 9.353-8.25 15.080-10.694 5.729-2.444 11.911-3.63 18.132-3.476zM779.641 721.067h-111.858v-36.228h111.858v36.228zM874.981 469.151c1.988 1.772 4.553 2.749 7.211 2.749s5.222-0.978 7.211-2.749c0.923-0.91 1.655-1.997 2.156-3.195s0.758-2.483 0.758-3.784c0-1.299-0.258-2.586-0.758-3.784s-1.232-2.284-2.156-3.193c-1.999-1.751-4.56-2.715-7.211-2.715s-5.212 0.964-7.211 2.715c-0.923 0.91-1.655 1.995-2.156 3.193s-0.758 2.485-0.758 3.784c0 1.3 0.258 2.586 0.758 3.784s1.232 2.285 2.156 3.195zM940.822 518.013c1.188-0.012 2.372-0.084 3.553-0.215v-16.811c-1.321 0.154-2.649 0.236-3.98 0.249-5.028 0.237-9.974-1.36-13.923-4.497-1.884-1.942-3.323-4.273-4.219-6.832s-1.225-5.282-0.968-7.98v-27.984h-16.27v62.713h16.27v-10.959c1.592 3.828 4.326 7.067 7.823 9.272 3.499 2.205 7.59 3.268 11.713 3.043zM992.085 516.654h16.268v-62.819h-16.268v8.673c-2.115-3.178-4.995-5.765-8.376-7.52-3.379-1.753-7.146-2.618-10.948-2.511-3.038-0.154-6.074 0.364-8.89 1.517-2.818 1.152-5.349 2.913-7.414 5.158-4.193 5.059-6.325 11.523-5.968 18.096v39.262h16.27v-35.692c-0.249-3.415 0.693-6.81 2.664-9.602 1.143-1.15 2.528-2.031 4.050-2.579 1.522-0.55 3.149-0.754 4.758-0.597 1.898-0.128 3.801 0.166 5.574 0.855 1.773 0.691 3.374 1.763 4.692 3.142 2.604 3.289 3.874 7.446 3.553 11.636l0.036 32.98z" />
<glyph unicode="&#xe91e;" d="M149.901 576.982c10.674-4.342 19.806-11.802 26.215-21.416 6.47-10.081 9.786-21.879 9.52-33.872 0-22.368-8.016-39.929-24.048-52.683s-37.854-19.156-65.466-19.202c-26.925 0-49.186 6.603-66.781 19.809s-27.375 32.326-29.341 57.358h48.416c3.552-21.035 19.134-31.553 46.746-31.553 28.062 0 42.093 10.291 42.093 30.875 0.215 3.707-0.463 7.41-1.979 10.798-1.515 3.386-3.822 6.356-6.724 8.655-5.778 4.497-15.677 6.745-29.696 6.745h-33.746v41.94h27.707c24.723 0 37.085 7.817 37.085 23.45 0 19.488-12.918 29.221-38.754 29.197-11.841 0-21.017-2.177-27.529-6.532-6.572-4.355-10.976-11.814-13.179-22.308h-48.132c2.368 24.152 11.722 42.605 28.062 55.359s37.144 19.131 62.412 19.131c25.41 0 46.001-6.377 61.772-19.131 7.545-5.761 13.628-13.232 17.752-21.804 4.123-8.573 6.171-18.004 5.977-27.523 0.068-9.816-2.589-19.458-7.673-27.84-4.944-8.313-12.122-15.055-20.709-19.453z" />
<glyph unicode="&#xe91f;" d="M340.555 638.367h47.742v-184.532h-47.742v71.136h-82.48v-71.136h-47.742v184.532h47.742v-68.102h82.48v68.102z" />
<glyph unicode="&#xe920;" d="M556.904 638.371h47.741l-0.319-184.532h-47.741v24.986c-6.417-9.255-15.031-16.756-25.061-21.823-10.028-5.067-21.158-7.54-32.379-7.195-11.387-0.268-22.69 2.017-33.087 6.692s-19.625 11.619-27.015 20.328c-15.819 17.988-23.718 41.083-23.694 69.279 0.024 28.198 7.98 51.291 23.871 69.28 7.316 8.677 16.457 15.614 26.764 20.312s21.524 7.037 32.841 6.851c11.401 0.329 22.699-2.236 32.85-7.457s18.828-12.932 25.228-22.417v25.699zM509.838 495.421c6.279-0.162 12.522 1.010 18.318 3.441 5.798 2.429 11.018 6.060 15.322 10.658 4.533 4.919 8.052 10.689 10.358 16.98 2.304 6.291 3.347 12.979 3.069 19.676 0.521 13.479-4.309 26.613-13.426 36.514-4.314 4.601-9.547 8.233-15.358 10.657-5.809 2.424-12.064 3.585-18.352 3.406-6.245 0.204-12.46-0.946-18.222-3.373s-10.936-6.073-15.169-10.69c-8.883-10.014-13.534-23.112-12.966-36.514-0.556-13.46 4.178-26.6 13.179-36.584 4.221-4.601 9.37-8.247 15.102-10.689 5.733-2.444 11.919-3.63 18.145-3.482z" />
<glyph unicode="&#xe921;" d="M756.948 638.367h54.738v-184.532h-47.741v65.425l3.019 54.681-75.803-120.106h-55.095v184.532h47.742v-65.425l-2.345-54.038 75.484 119.463z" />
<glyph unicode="&#xe922;" d="M156.306 363.534h54.703v-184.532h-47.599v65.425l3.339 63.068-57.261-82.557h-1.314l-57.119 82.521 3.019-63.068v-65.425h-47.741v184.532h55.094l47.421-65.782 47.457 65.818z" />
<glyph unicode="&#xe923;" d="M330.889 367.708c30.051 0 53.803-10.399 71.257-31.196 17.452-20.796 24.972-46.638 22.555-77.524h-140.914c1.563-14.278 6.678-25.235 15.346-32.874 9.009-7.721 20.559-11.793 32.394-11.421 8.743-0.155 17.377 1.985 25.044 6.211 6.973 3.727 12.501 9.697 15.701 16.954h49.41c-5.332-19.28-17.432-35.966-34.065-46.973-16.62-10.689-36.004-16.225-55.733-15.918-28.418 0-51.685 9.054-69.801 27.162s-27.126 41.047-27.032 68.816c0 27.697 9.011 50.731 27.032 69.101s40.957 27.59 68.806 27.662zM330.534 328.090c-10.254 0.372-20.313-2.888-28.418-9.209-7.718-6.388-13.307-14.993-16.020-24.663h87.81c-2.287 9.689-7.678 18.353-15.345 24.663-8.001 6.221-17.918 9.429-28.027 9.066v0.143z" />
<glyph unicode="&#xe924;" d="M540.588 174.966c-12.66-0.305-25.248 1.981-37.001 6.723-11.752 4.739-22.422 11.834-31.358 20.85-8.936 9.015-15.952 19.765-20.622 31.592s-6.893 24.487-6.538 37.205c-0.316 12.721 1.951 25.373 6.659 37.187 4.707 11.812 11.761 22.538 20.727 31.522 18.046 18.442 40.863 27.663 68.451 27.663 21.869 0.418 43.233-6.629 60.6-19.988 8.497-6.494 15.611-14.636 20.919-23.943s8.704-19.589 9.986-30.239h-49.092c-2.275 9.059-7.803 16.954-15.522 22.164-7.987 5.229-17.359 7.917-26.89 7.711-6.473 0.29-12.935-0.835-18.932-3.301-5.999-2.464-11.392-6.211-15.809-10.977-8.987-10.447-13.539-24.016-12.681-37.799-0.8-13.739 3.82-27.242 12.86-37.584 4.347-4.716 9.658-8.434 15.568-10.897s12.279-3.618 18.674-3.379c9.573-0.191 18.985 2.493 27.032 7.709 7.864 5.241 13.471 13.273 15.7 22.487h48.985c-3.575-23.485-13.983-41.772-31.223-54.861-17.398-13.208-38.69-20.193-60.493-19.845z" />
<glyph unicode="&#xe925;" d="M806.031 363.534v-45.295h-56.834v-139.201h-47.706v139.201h-56.407v45.295h160.947z" />
<glyph unicode="&#xe926;" d="M960.623 363.529h47.742l-0.321-184.532h-47.776v24.986c-6.4-9.264-15.005-16.773-25.030-21.84-10.027-5.069-21.156-7.537-32.374-7.178-11.392-0.273-22.702 2.010-33.106 6.683-10.404 4.675-19.639 11.622-27.032 20.337-15.795 17.988-23.694 41.081-23.694 69.279s7.958 51.29 23.871 69.28c7.316 8.677 16.457 15.614 26.766 20.311 10.307 4.697 21.523 7.037 32.84 6.851 11.406 0.333 22.711-2.231 32.869-7.453 10.156-5.222 18.84-12.933 25.245-22.422v25.699zM913.521 220.58c6.298-0.172 12.558 0.993 18.374 3.424s11.054 6.067 15.372 10.675c8.624 10.22 13.358 23.185 13.358 36.584 0 13.401-4.734 26.365-13.358 36.586-4.321 4.599-9.561 8.231-15.377 10.655s-12.075 3.584-18.369 3.408c-6.243 0.196-12.455-0.957-18.217-3.384-5.76-2.425-10.935-6.067-15.172-10.679-8.883-10.016-13.546-23.11-13.001-36.514-0.575-13.464 4.161-26.61 13.179-36.586 4.21-4.603 9.353-8.25 15.080-10.694 5.729-2.444 11.911-3.628 18.132-3.475z" />
<glyph unicode="&#xe927;" d="M779.641 721.067h-111.858v-36.228h111.858v36.228z" />
<glyph unicode="&#xe928;" d="M874.981 469.151c1.988 1.772 4.553 2.749 7.211 2.749s5.222-0.978 7.211-2.749c0.923-0.91 1.655-1.997 2.156-3.195s0.758-2.483 0.758-3.784c0-1.299-0.258-2.586-0.758-3.784s-1.232-2.284-2.156-3.193c-1.999-1.751-4.56-2.715-7.211-2.715s-5.212 0.964-7.211 2.715c-0.923 0.91-1.655 1.995-2.156 3.193s-0.758 2.485-0.758 3.784c0 1.3 0.258 2.586 0.758 3.784s1.232 2.285 2.156 3.195z" />
<glyph unicode="&#xe929;" d="M940.822 518.013c1.188-0.012 2.372-0.084 3.553-0.215v-16.811c-1.321 0.154-2.649 0.236-3.98 0.249-5.028 0.237-9.974-1.36-13.923-4.497-1.884-1.942-3.323-4.273-4.219-6.832s-1.225-5.282-0.968-7.98v-27.984h-16.27v62.713h16.27v-10.959c1.592 3.828 4.326 7.067 7.823 9.272 3.499 2.205 7.59 3.268 11.713 3.043z" />
<glyph unicode="&#xe92a;" d="M992.101 516.651h16.27v-62.821h-16.27v8.673c-2.113-3.176-4.995-5.763-8.375-7.518s-7.146-2.618-10.948-2.511c-3.038-0.155-6.074 0.362-8.892 1.516-2.816 1.154-5.347 2.915-7.414 5.159-4.192 5.057-6.325 11.522-5.967 18.096v39.262h16.268v-35.693c-0.247-3.413 0.695-6.808 2.664-9.602 1.145-1.149 2.528-2.029 4.052-2.579 1.522-0.55 3.147-0.753 4.758-0.597 1.898-0.126 3.801 0.166 5.574 0.857s3.374 1.763 4.692 3.14c2.604 3.289 3.874 7.446 3.552 11.636l0.036 32.981z" />
<glyph unicode="&#xe92b;" glyph-name="mail" horiz-adv-x="1067" d="M709.333 800h-522.667c-29.704 0-58.192-10.536-79.196-29.289s-32.804-44.189-32.804-70.711v-333.331c0-26.526 11.8-51.959 32.804-70.711 21.004-18.756 49.492-29.291 79.196-29.291h522.667c29.705 0 58.193 10.534 79.198 29.291 21.001 18.752 32.802 44.186 32.802 70.711v333.331c0 26.522-11.802 51.957-32.802 70.711-21.005 18.754-49.493 29.289-79.198 29.289zM709.333 733.333l-242.667-149c-5.675-2.926-12.113-4.466-18.667-4.466s-12.992 1.54-18.667 4.466l-242.667 149h522.667z" />
<glyph unicode="&#xe92c;" glyph-name="more" d="M326.977 810.656c-107.904 0-177.664-73.941-177.664-188.416v-348.499c0-114.477 69.76-188.416 177.664-188.416h369.836c108.032 0 177.83 73.939 177.83 188.416v348.499c0 114.475-69.798 188.416-177.747 188.416h-369.919zM696.813 21.325h-369.836c-144.555 0-241.664 101.459-241.664 252.416v348.499c0 150.955 97.109 252.416 241.664 252.416h369.919c144.595 0 241.747-101.461 241.747-252.416v-348.499c0-150.957-97.152-252.416-241.83-252.416zM511.75 245.331c-17.664 0-32 14.336-32 32v170.669c0 17.664 14.336 32 32 32s32-14.336 32-32v-170.669c0-17.664-14.336-32-32-32zM511.942 567.292c-23.595 0-42.88 19.072-42.88 42.667s18.901 42.667 42.454 42.667h0.426c23.595 0 42.667-19.072 42.667-42.667s-19.072-42.667-42.667-42.667z" />
<glyph unicode="&#xe92d;" glyph-name="more2" d="M327.245 874.669h369.92c144.64 0 241.495-101.546 241.495-252.586v-348.628c0-150.615-96.855-252.119-241.495-252.119h-369.92c-144.64 0-241.92 101.504-241.92 252.119v348.628c0 151.040 97.28 252.586 241.92 252.586zM511.565 573.4c-20.053 0-36.693 16.682-36.693 37.12 0 20.906 16.64 37.546 37.548 37.546 20.48 0 37.12-16.64 37.12-37.546 0-20.438-16.64-37.12-37.975-37.12zM549.11 286.679c0-20.48-16.64-37.12-37.545-37.12-20.48 0-37.12 16.64-37.12 37.12v188.587c0 20.522 16.64 37.546 37.12 37.546 20.905 0 37.545-17.024 37.545-37.546v-188.587z" />
<glyph unicode="&#xe92e;" glyph-name="ok" d="M338.16 849.5h348.161c136.132 0 227.286-95.574 227.286-237.729v-328.123c0-141.71-91.154-237.285-227.286-237.285h-348.161c-136.132 0-227.689 95.575-227.689 237.285v328.123c0 142.155 91.558 237.729 227.689 237.729zM489.15 327.861l190.744 190.747c13.655 13.654 13.655 35.74 0 49.795-13.649 13.654-36.141 13.654-49.79 0l-165.851-165.848-70.275 70.274c-13.654 13.654-36.141 13.654-49.795 0s-13.653-35.739 0-49.794l95.574-95.174c6.826-6.825 15.661-10.035 24.496-10.035 9.236 0 18.071 3.211 24.897 10.035z" />
<glyph unicode="&#xe92f;" glyph-name="pay_wrapper-sistem1" d="M186.042 597.012c-11.765-13.564-30.588-24.262-49.412-22.734-2.353 18.34 6.863 37.826 17.647 49.862 11.765 13.946 32.353 23.88 49.019 24.644 1.962-19.104-5.686-37.826-17.254-51.772zM203.101 570.648c-27.256 1.528-50.589-15.092-63.53-15.092-13.137 0-32.941 14.328-54.51 13.946-28.039-0.382-54.118-15.856-68.431-40.501-29.412-49.289-7.647-122.267 20.784-162.385 13.922-19.868 30.588-41.647 52.549-40.882 20.784 0.763 29.020 13.181 54.118 13.181 25.294 0 32.549-13.181 54.51-12.8 22.746 0.381 37.060 19.868 50.98 39.737 15.882 22.542 22.353 44.512 22.745 45.658-0.392 0.381-43.922 16.621-44.313 65.527-0.392 40.883 34.314 60.369 35.882 61.515-19.609 28.274-50.196 31.331-60.783 32.095zM360.552 626.051v-297.832h47.449v101.824h65.687c60 0 102.157 40.119 102.157 98.195s-41.372 97.813-100.587 97.813h-114.706zM408.002 587.078h54.708c41.175 0 64.705-21.397 64.705-59.032s-23.53-59.223-64.902-59.223h-54.511v118.255zM662.512 325.925c29.804 0 57.452 14.709 70.001 38.017h0.98v-35.724h43.922v148.247c0 42.984-35.294 70.685-89.608 70.685-50.393 0-87.646-28.083-89.020-66.673h42.745c3.53 18.34 20.98 30.375 44.901 30.375 29.019 0 45.295-13.182 45.295-37.444v-16.43l-59.215-3.439c-55.099-3.248-84.902-25.217-84.902-63.426 0-38.589 30.784-64.189 74.901-64.189zM675.258 361.267c-25.295 0-41.374 11.844-41.374 29.993 0 18.723 15.491 29.612 45.098 31.33l52.746 3.249v-16.812c0-27.893-24.313-47.761-56.471-47.761zM836.042 247.216c46.275 0 68.040 17.193 87.058 69.349l83.334 227.72h-48.234l-55.882-175.95h-0.98l-55.882 175.95h-49.608l80.392-216.832-4.315-13.181c-7.254-22.353-19.020-30.949-40-30.949-3.725 0-10.981 0.381-13.92 0.763v-35.724c2.745-0.765 14.509-1.146 18.038-1.146z" />
<glyph unicode="&#xe930;" d="M482.167 452.605v-117.713h-37.344v290.699h99.041c11.822 0.247 23.576-1.85 34.583-6.169s21.050-10.776 29.549-18.997c8.586-7.722 15.418-17.192 20.038-27.774 4.622-10.582 6.923-22.030 6.752-33.576 0.245-11.607-2.022-23.13-6.646-33.78s-11.495-20.173-20.145-27.918c-17.318-16.515-38.695-24.764-64.133-24.749l-61.697-0.023zM482.167 589.802v-101.477h62.625c6.867-0.204 13.698 1.028 20.060 3.616s12.115 6.475 16.89 11.414c4.749 4.617 8.523 10.14 11.101 16.241s3.905 12.658 3.905 19.281c0 6.624-1.327 13.18-3.905 19.282s-6.353 11.624-11.101 16.241c-4.714 5.042-10.447 9.025-16.818 11.684-6.369 2.659-13.232 3.934-20.133 3.74l-62.625-0.023z" />
<glyph unicode="&#xe931;" d="M720.836 540.279c27.6 0 49.389-7.376 65.361-22.128 15.974-14.752 23.954-34.978 23.938-60.677v-122.584h-35.72v27.602h-1.624c-15.462-22.731-36.029-34.095-61.697-34.095-21.912 0-40.243 6.493-54.995 19.484-7.080 5.961-12.74 13.426-16.567 21.853-3.829 8.427-5.728 17.601-5.562 26.855 0 20.58 7.778 36.948 23.335 49.102 15.555 12.155 36.322 18.247 62.299 18.278 22.175 0 40.436-4.059 54.786-12.177v8.536c0.042 6.308-1.319 12.547-3.988 18.264s-6.574 10.768-11.437 14.788c-9.875 8.91-22.745 13.771-36.045 13.615-20.859 0-37.366-8.798-49.519-26.396l-32.89 20.713c18.093 25.978 44.865 38.967 80.324 38.967zM672.521 395.776c-0.026-4.753 1.086-9.441 3.241-13.677s5.289-7.897 9.144-10.676c8.26-6.497 18.51-9.939 29.017-9.742 15.758 0.026 30.865 6.299 42.006 17.442 12.37 11.643 18.554 25.305 18.554 40.986-11.643 9.276-27.879 13.916-48.708 13.916-15.169 0-27.819-3.658-37.946-10.971-10.228-7.423-15.308-16.446-15.308-27.279z" />
<glyph unicode="&#xe932;" d="M1015.159 533.784l-124.695-286.569h-38.549l46.273 100.27-81.992 186.299h40.591l59.261-142.879h0.813l57.637 142.879h40.661z" />
<glyph unicode="&#xe933;" d="M331.27 477.979c0.014 11.38-0.95 22.741-2.877 33.957h-157.491v-64.318h90.204c-1.845-10.274-5.752-20.066-11.485-28.788s-13.171-16.193-21.869-21.962v-41.751h53.834c31.523 29.064 49.684 72.043 49.684 122.862z" />
<glyph unicode="&#xe934;" d="M170.897 314.782c45.066 0 83.014 14.798 110.685 40.313l-53.834 41.749c-14.985-10.16-34.282-15.958-56.85-15.958-43.56 0-80.532 29.365-93.753 68.935h-55.458v-43.026c13.9-27.66 35.214-50.911 61.562-67.158s56.694-24.853 87.649-24.855z" />
<glyph unicode="&#xe935;" d="M77.123 449.822c-6.99 20.735-6.99 43.19 0 63.925v43.026h-55.458c-11.693-23.268-17.783-48.948-17.783-74.988s6.090-51.72 17.783-74.989l55.458 43.026z" />
<glyph unicode="&#xe936;" d="M170.897 582.678c23.816 0.389 46.829-8.609 64.064-25.050l47.664 47.665c-30.224 28.388-70.266 43.974-111.729 43.49-30.955-0.001-61.301-8.606-87.649-24.855s-47.662-39.499-61.562-67.159l55.458-43.026c13.221 39.57 50.193 68.934 93.753 68.934z" />
<glyph unicode="&#xe937;" d="M887.17 490.686c-9.412 0-19.703-3.285-28.022-11.822-7.662-7.881-11.6-17.729-11.6-29.112 0-5.254 1.094-10.287 3.062-15.324 1.972-5.037 4.817-9.415 8.32-13.134 3.721-3.943 8.099-7.005 12.699-8.974 4.814-1.971 9.189-3.066 14.883-3.066 4.157 0 8.1 0.658 12.040 1.971 3.721 1.095 8.975 4.156 10.945 7.439v-7.879h17.076v78.153h-17.294v-7.884c-2.406 3.94-7.006 6.571-10.727 7.884-3.721 1.095-7.441 1.749-11.382 1.749zM797.854 490.468c-3.94 0-7.664-0.439-11.386-1.753s-8.313-3.939-10.723-7.88v7.88h-17.295v-107.487h17.072v37.215c1.971-3.284 7.224-6.126 10.946-7.44 3.721-1.316 7.881-1.967 12.040-1.967 5.692 0 10.072 1.091 14.888 3.062 4.6 1.968 8.979 5.036 12.699 8.978 3.505 3.72 6.35 8.098 8.32 13.135 1.968 4.816 3.061 10.070 3.061 15.324 0 11.383-3.942 21.231-11.603 29.112-8.318 8.537-18.388 11.822-28.018 11.822zM937.080 488.715l33.275-73.334-14.447-33.93h17.952l45.314 107.265h-18.174l-22.104-55.163-23.644 55.163h-18.174zM887.828 475.58c6.127 0 11.601-1.97 16.2-6.567 4.595-4.816 6.345-11.821 6.345-18.607 0-7.443-1.528-14.448-6.127-19.261-4.597-4.814-10.073-6.567-16.64-6.567s-11.82 2.626-15.977 6.785c-4.6 4.818-6.79 11.164-6.79 18.171 0 7.443 2.19 14.227 6.79 19.043 3.94 4.159 9.412 6.782 16.199 7.003zM797.2 475.362c6.567 0 12.258-2.625 16.2-7.003 4.599-4.816 6.789-11.386 6.789-19.048 0-7.005-2.19-13.353-6.789-18.167-3.941-4.161-9.411-6.785-15.978-6.785s-12.044 1.749-16.64 6.567c-4.378 4.814-6.131 12.039-6.131 19.261 0 7.005 1.752 13.791 6.349 18.607 4.378 4.597 9.853 6.567 16.2 6.567z" />
<glyph unicode="&#xe938;" d="M287.575 480.176c-11.821 0-21.452-3.943-23.203-14.669-0.437-2.846-0.438-5.472 0.218-8.974 2.627-13.787 26.27-17.509 29.553-26.047 0.657-1.53 0.437-3.72 0.218-4.814-0.657-2.189-1.97-4.378-6.567-4.378-4.16 0-6.567 2.409-6.567 5.909v6.349h-17.731v-5.036c0-14.888 11.603-19.266 24.080-19.266 12.040 0 21.893 4.161 23.426 15.105 0.875 5.692 0.22 9.412 0 10.946-2.845 13.789-28.023 17.95-29.774 25.829-0.22 1.313-0.22 2.626 0 3.502 0.437 2.189 1.971 4.378 6.131 4.378 3.94 0 6.131-2.406 6.131-5.909v-4.16h16.418v4.596c0 14.448-12.918 16.64-22.332 16.64v0zM703.065 479.74c-11.823 0-21.676-3.94-23.208-16.418 0-1.094-0.218-3.284-0.218-4.378v-27.8c0-1.314-0.001-2.189 0.218-4.378 1.095-12.040 11.603-16.418 23.208-16.418 11.818 0 22.327 4.378 23.421 16.418 0.221 2.189 0.219 3.065 0.219 4.378v17.731h-23.422v-9.633h6.785v-9.628c0-0.659 0.001-1.753-0.218-2.411-0.44-1.749-1.971-4.815-6.785-4.815-4.816 0-6.567 2.846-6.567 5.037-0.22 0.654-0.222 1.531-0.222 2.407v30.207c0 1.094 0.002 2.19 0.222 3.066 0.435 1.532 1.752 4.814 6.567 4.814 5.035 0 6.346-3.282 6.567-4.814 0.219-1.095 0.218-2.625 0.218-2.625v-3.724h16.636v2.189c0 0 0.001 2.408-0.218 4.378-1.094 12.478-11.385 16.418-23.203 16.418v0zM503.204 479.299c-11.602 0-21.234-3.721-22.985-14.447-0.438-2.846-0.658-5.473 0.218-8.756 2.406-13.351 25.61-17.073 28.894-25.611 0.657-1.53 0.436-3.503 0.218-4.814-0.438-2.189-1.971-4.378-6.349-4.378-4.16 0-6.567 2.409-6.567 5.909v6.349h-17.513v-5.036c0-14.669 11.603-19.044 23.862-19.044 11.821 0 21.671 3.942 23.203 14.888 0.876 5.692 0.221 9.407 0 10.723-2.845 13.789-27.581 17.73-29.33 25.392-0.438 1.313-0.219 2.626 0 3.502 0.437 2.189 1.969 4.378 5.909 4.378s6.131-2.406 6.131-5.909v-4.16h16.418v4.596c0 14.229-12.914 16.418-22.109 16.418v0zM334.423 477.769l-12.258-66.109h17.731l9.193 60.2h0.222l8.974-60.2h17.73l-12.258 66.109h-29.334zM390.68 477.769l-1.53-66.109h16.636l0.441 59.541h0.435l10.946-59.541h16.854l10.945 59.541h0.441l0.436-59.541h16.636l-1.53 66.109h-26.928l-8.317-50.567h-0.218l-8.102 50.567h-27.146zM541.726 477.769v-47.501c0-1.314 0.219-3.72 0.219-4.378 1.094-12.475 10.726-16.418 22.985-16.418 12.261 0 22.114 4.16 23.208 16.418 0 0.659 0.219 3.065 0.219 4.378v47.501h-16.854v-48.595c0-0.876-0.005-1.971-0.222-2.625-0.219-1.754-1.745-4.818-6.345-4.818-4.597 0-5.914 3.065-6.136 4.377-0.219 0.876-0.218 1.755-0.218 2.63v49.032h-16.854zM606.745 477.769v-65.45h16.2l-0.876 53.85h0.435l16.2-53.85h23.643v65.45h-16.418l0.873-51.88h-0.218l-15.324 51.88h-24.516z" />
<glyph unicode="&#xe939;" d="M190.166 475.582c-2.189 17.075-8.319 32.617-19.045 44.001-11.383 10.726-26.926 16.856-44.001 19.045-16.418 2.189-27.583 1.532-27.583 1.532s-11.164 0.438-27.582-1.532c-17.075-2.189-32.617-8.319-44-19.045-10.727-11.383-16.856-26.926-19.045-44.001-2.189-16.418-1.751-27.582-1.751-27.582s-0.438-11.164 1.532-27.583c2.189-17.073 8.318-32.618 19.045-44.001 11.383-10.726 26.926-16.854 44-19.043 16.418-2.189 27.582-1.535 27.582-1.535s11.164-0.435 27.583 1.535c17.075 2.189 32.618 8.317 44.001 19.043 10.726 11.381 16.855 26.928 19.045 44.001 2.189 16.418 1.532 27.583 1.532 27.583s0.875 11.164-1.313 27.582z" />
<glyph unicode="&#xe93a;" d="M41.315 474.926v-48.378h8.974v13.789h7.444c2.627 0 5.037 0.441 7.008 1.316 1.97 0.872 3.94 2.19 5.473 3.72s2.844 3.284 3.72 5.473c0.876 2.189 1.313 4.377 1.313 6.785s-0.437 4.596-1.313 6.785c-0.876 2.189-2.187 3.94-3.72 5.473s-3.284 2.848-5.473 3.724c-2.189 0.876-4.381 1.313-7.008 1.313h-16.418zM50.072 466.824h7.008c1.313 0 2.625-0.221 3.72-0.658s1.972-1.091 2.848-1.967c0.657-0.876 1.311-1.753 1.749-2.847s0.658-2.188 0.658-3.502c0-1.313-0.221-2.407-0.658-3.502s-0.873-1.972-1.749-2.847c-0.876-0.876-1.753-1.533-2.848-1.971s-2.406-0.654-3.72-0.654h-7.008v17.949zM96.042 465.511c-2.626 0-4.813-0.437-7.221-1.313-2.189-0.876-4.38-1.968-6.131-3.72s-3.284-3.723-4.378-6.131c-1.095-2.408-1.531-5.255-1.531-8.32s0.654-5.909 1.749-8.317 2.627-4.377 4.378-6.131c1.751-1.53 3.942-2.844 6.131-3.72 2.408-0.877 4.595-1.313 7.003-1.313 2.627 0 4.819 0.433 7.008 1.313 2.188 1.095 4.159 2.407 5.472 4.161v-5.473h8.974v38.963h-8.974v-5.032c-1.532 1.532-3.284 2.844-5.472 3.72-1.971 0.876-4.381 1.313-7.008 1.313zM120.563 465.293l15.759-36.996-8.098-19.484h9.193l22.985 56.48h-9.414l-10.069-26.487-10.945 26.487h-9.411zM97.577 457.191c1.532 0 3.064-0.219 4.596-1.095 1.532-0.657 2.625-1.313 3.721-2.407 1.094-0.876 1.75-2.188 2.407-3.502 0.657-1.311 0.876-2.843 0.876-4.378 0-1.53-0.22-3.060-0.876-4.378-0.657-1.313-1.313-2.407-2.407-3.501s-2.407-1.755-3.721-2.411c-1.313-0.657-2.844-0.873-4.596-0.873s-3.287 0.436-4.601 0.873c-1.313 0.659-2.625 1.316-3.719 2.411-0.876 1.094-1.75 2.401-2.407 3.72-0.657 1.313-0.876 2.846-0.876 4.378s0.22 3.064 0.876 4.378c0.438 1.313 1.313 2.407 2.407 3.502s2.187 1.75 3.719 2.407c1.532 0.657 3.068 0.876 4.601 0.876z" />
<glyph unicode="&#xe93b;" glyph-name="person" d="M511.171 448.105h0.214l2.675-0.105c104.739 0 189.94 86.138 189.94 192.010 0 105.79-85.078 191.859-190.954 191.859h-0.234l-2.89 0.131c-104.739 0-189.923-86.138-189.923-192.010 0.013-105.811 85.11-191.909 191.17-191.892l0.001 0.007zM509.106 783.391l4.967-0.020c78.182 0 141.812-64.305 141.812-143.345 0-79.047-63.636-143.364-141.812-143.364v-0.006l-4.142 0.006c-78.182 0-141.788 64.317-141.806 143.364 0 79.041 63.617 143.339 140.981 143.364v0.001zM715.507 412.381c-14.586 4.665-28.563 6.9-42.746 6.9h-321.572c-13.949 0-28.304-2.321-42.692-6.9-50.529-16.127-84.498-58.884-84.498-106.436v-241.946h575.942l0.058 241.926c0.019 47.547-33.926 90.32-84.493 106.455zM739.814 117.594h-455.667v188.333c0 24.97 17.925 47.478 44.59 55.981 7.96 2.502 15.345 3.747 22.518 3.747l321.57 0.007c7.168 0 14.509-1.229 22.47-3.746 26.701-8.513 44.582-30.982 44.544-55.983l-0.026-188.339z" />
<glyph unicode="&#xe93c;" glyph-name="person3" d="M737.877 648.915c0-125.313-100.477-225.794-225.877-225.794-125.359 0-225.877 100.481-225.877 225.794s100.518 225.752 225.877 225.752c125.4 0 225.877-100.438 225.877-225.752zM512 21.333c-185.072 0-341.333 30.083-341.333 146.136 0 116.093 157.243 145.112 341.333 145.112 185.116 0 341.333-30.083 341.333-146.136 0-116.099-157.241-145.112-341.333-145.112z" />
<glyph unicode="&#xe93d;" glyph-name="phone" d="M493.002 428.798c162.099-162.050 198.871 25.423 302.080-77.712 99.499-99.474 156.687-119.403 30.618-245.433-15.789-12.688-116.117-165.361-468.707 187.129-352.633 352.534-200.046 452.965-187.353 468.752 126.37 126.379 145.956 68.859 245.456-30.614 103.208-103.179-84.189-140.072 77.905-302.122z" />
<glyph unicode="&#xe93e;" glyph-name="place_contacts-error" d="M512.003 828.781c-209.978 0-380.8-170.822-380.8-380.8s170.822-380.801 380.8-380.801c209.974 0 380.797 170.822 380.797 380.801s-170.822 380.8-380.797 380.8zM512-0.032c-247.027 0-448 200.973-448 448.001s200.973 448 448 448c247.027 0 448-200.973 448-448s-200.973-448.001-448-448.001zM511.725 386.454c-18.547 0-33.6 15.053-33.6 33.6v197.971c0 18.547 15.053 33.6 33.6 33.6s33.6-15.053 33.6-33.6v-197.971c0-18.547-15.053-33.6-33.6-33.6zM512.18 233.12c-24.774 0-45.024 20.026-45.024 44.8s19.846 44.799 44.576 44.799h0.448c24.774 0 44.8-20.024 44.8-44.799s-20.026-44.8-44.8-44.8z" />
<glyph unicode="&#xe93f;" glyph-name="place_contacts-item1" d="M511.992 21.294c-235.52 0-426.667 190.72-426.667 426.665 0 235.519 191.147 426.666 426.667 426.666 235.948 0 426.668-191.146 426.668-426.666 0-235.945-190.72-426.665-426.668-426.665zM648.1 289.664c5.12-2.985 10.665-4.69 16.64-4.69 10.665 0 21.33 5.545 27.305 15.785 8.96 14.935 4.265 34.56-11.095 43.945l-151.89 90.455v197.119c0 17.92-14.51 32-32.002 32-17.494 0-32-14.080-32-32v-215.464c0-11.095 5.974-21.335 15.786-27.31l167.255-99.84z" />
<glyph unicode="&#xe940;" glyph-name="place_contacts-item2" d="M149.325 519.759c0 196.261 164.006 354.891 362.387 354.891 198.939 0 362.948-158.63 362.948-354.891 0-98.9-35.968-190.712-95.171-268.536-65.311-85.842-145.807-160.635-236.411-219.341-20.741-13.568-39.455-14.592-62.214 0-91.124 58.706-171.621 133.499-236.371 219.341-59.243 77.824-95.168 169.636-95.168 268.536zM392.279 508.709c0-65.747 53.65-117.459 119.433-117.459 65.824 0 119.993 51.712 119.993 117.459 0 65.235-54.17 119.463-119.993 119.463-65.783 0-119.433-54.227-119.433-119.463z" />
<glyph unicode="&#xe941;" glyph-name="place_contacts-item3" d="M492.029 427.812c170.202-170.153 208.812 26.695 317.181-81.597 104.474-104.443 164.521-125.373 32.154-257.705-16.584-13.322-121.928-173.629-492.146 196.485-370.265 370.162-210.049 475.615-196.721 492.19 132.689 132.698 153.254 72.302 257.729-32.144 108.368-108.338-88.398-147.076 81.803-317.229z" />
<glyph unicode="&#xe942;" glyph-name="place_contacts-item4" d="M504.655 19.697c78.329 117.489 125.991 252.708 138.663 393.354h-277.318c12.668-140.636 60.333-275.86 138.662-393.354h-0.008zM504.663 876.25c-78.327-117.487-125.993-252.709-138.662-393.353h277.318c-12.667 140.634-60.334 275.86-138.663 393.353h0.008zM575.252 895.971c79.212-124.247 126.5-266.141 137.646-413.072h244.029c-7.992 101.716-49.992 197.772-119.229 272.707-69.233 74.934-161.69 124.379-262.446 140.369v-0.004zM575.252-0.026c100.762 15.99 193.219 65.434 262.446 140.37 69.233 74.936 111.237 170.993 119.229 272.707h-244.029c-11.146-146.934-58.429-288.835-137.646-413.071v-0.005zM434.051-0.020c-79.216 124.247-126.5 266.138-137.649 413.071h-244.027c7.991-101.719 49.989-197.775 119.225-272.707 69.237-74.936 161.692-124.38 262.449-140.37l0.002 0.005zM52.375 482.903h244.027c11.148 146.933 58.431 288.833 137.649 413.072-100.764-15.99-193.218-65.433-262.448-140.369s-111.234-170.993-119.225-272.707l-0.002 0.004z" />
<glyph unicode="&#xe943;" glyph-name="place_form-option1" d="M881.792 537.4h-760.492c-17.664 0-32 14.336-32 32s14.336 32 32 32h760.492c17.664 0 32-14.336 32-32s-14.336-32-32-32zM691.272 370.775c-17.664 0-32.174 14.336-32.174 32s14.126 32 31.79 32h0.384c17.664 0 32-14.336 32-32s-14.336-32-32-32zM501.921 370.775c-17.664 0-32.171 14.336-32.171 32s14.123 32 31.787 32h0.384c17.662 0 31.998-14.336 31.998-32s-14.336-32-31.998-32zM312.214 370.775c-17.664 0-32.214 14.336-32.214 32s14.166 32 31.83 32h0.384c17.664 0 32-14.336 32-32s-14.336-32-32-32zM691.272 204.948c-17.664 0-32.174 14.336-32.174 32s14.126 32 31.79 32h0.384c17.664 0 32-14.336 32-32s-14.336-32-32-32zM501.921 204.948c-17.664 0-32.171 14.336-32.171 32s14.123 32 31.787 32h0.384c17.662 0 31.998-14.336 31.998-32s-14.336-32-31.998-32zM312.214 204.948c-17.664 0-32.214 14.336-32.214 32s14.166 32 31.83 32h0.384c17.664 0 32-14.336 32-32s-14.336-32-32-32zM673.848 712.909c-17.664 0-32 14.336-32 32v140.416c0 17.664 14.336 32 32 32s32-14.336 32-32v-140.416c0-17.664-14.336-32-32-32zM329.2 712.909c-17.664 0-32 14.336-32 32v140.416c0 17.664 14.336 32 32 32s32-14.336 32-32v-140.416c0-17.664-14.336-32-32-32zM320.913 785.95c-110.635 0-171.563-59.008-171.563-166.144v-386.088c0-109.486 60.928-169.728 171.563-169.728h360.877c110.633 0 171.561 59.136 171.561 166.482v389.335c0.169 52.693-13.993 93.653-42.112 121.813-28.928 29.014-73.513 44.331-129.065 44.331h-361.261zM681.789-0.010h-360.877c-145.28 0-235.563 89.554-235.563 233.728v386.088c0 141.994 90.283 230.144 235.563 230.144h361.261c72.914 0 133.202-21.846 174.377-63.104 39.977-40.15 61.015-97.878 60.8-167.126v-389.249c0-142.162-90.281-230.482-235.561-230.482z" />
<glyph unicode="&#xe944;" glyph-name="place_form-option2" d="M511.171 448.105h0.214l2.673-0.105c104.74 0 189.942 86.137 189.942 192.010 0 105.79-85.079 191.859-190.956 191.859h-0.23l-2.891 0.131c-104.739 0-189.923-86.137-189.923-192.010 0.013-105.81 85.11-191.909 191.17-191.892l0.001 0.007zM509.106 783.391l4.967-0.019c78.182 0 141.814-64.305 141.814-143.345 0-79.048-63.642-143.364-141.814-143.364v-0.007l-4.143 0.007c-78.181 0-141.787 64.316-141.806 143.364 0 79.041 63.618 143.338 140.981 143.364v0.001zM715.51 412.375c-14.592 4.664-28.564 6.902-42.747 6.902h-321.573c-13.949 0-28.304-2.324-42.692-6.902-50.529-16.128-84.498-58.885-84.498-106.435v-241.951h575.944l0.056 241.93c0.015 47.544-33.93 90.322-84.49 106.455zM739.814 117.586h-455.667v188.334c0 24.97 17.925 47.478 44.59 55.982 7.961 2.504 15.345 3.748 22.519 3.748l321.573 0.005c7.163 0 14.51-1.229 22.467-3.748 26.701-8.509 44.585-30.981 44.539-55.982l-0.020-188.339z" />
<glyph unicode="&#xe945;" glyph-name="place_form-text" d="M917.395 713.346c-20.154 34.814-47.635 53.137-80.621 54.969-18.323 1.832-38.477-1.832-56.8-9.161-12.826-3.665-23.821-10.994-34.816-16.491-7.328 5.497-14.656 10.994-23.814 14.659l-186.899 69.628c-29.317 10.994-62.298 3.665-84.286-18.323l-362.797-366.462c-31.149-31.149-31.149-82.454 0-111.771l256.524-256.524c14.659-14.656 34.814-23.821 56.801-23.821s42.143 9.165 56.802 23.821l364.617 364.62c21.99 21.988 29.318 54.969 18.323 84.286l-69.626 186.896c0 1.832-1.83 1.832-1.83 3.665 10.989 5.496 21.984 10.993 32.979 14.658s21.99 5.497 32.979 3.665c21.99-1.832 38.483-14.658 53.139-38.478 7.328-12.826 9.165-25.652 5.498-38.479-7.328-18.323-25.651-36.646-45.805-51.305l12.826-34.813c25.651 16.491 56.8 42.143 65.958 73.292 7.334 25.652 5.51 47.651-9.152 71.471zM717.69 630.881c0-20.156-7.334-38.478-21.99-53.137s-32.979-21.988-53.139-21.988c-20.153 0-38.476 7.329-53.135 21.988s-21.988 32.981-21.988 53.137c0 20.156 7.329 38.479 21.988 53.137s32.982 21.988 53.135 21.988c12.826 0 25.658-3.665 38.483-10.994-10.995-9.162-20.16-20.156-29.318-27.485-3.667 0-5.498 1.832-9.165 1.832-10.991 0-20.153-3.665-27.482-10.994s-10.994-16.491-10.994-27.485c0-9.162 3.665-20.156 10.994-27.485 14.659-14.658 38.477-14.658 53.14 0 7.328 7.329 10.989 16.491 10.989 27.485 0 3.665 0 7.329-1.83 10.994 7.328 7.329 18.323 16.491 27.488 25.652 9.158-9.162 12.826-21.988 12.826-36.646z" />
<glyph unicode="&#xe946;" glyph-name="place_form-value1" d="M511.171 448.105h0.214l2.675-0.105c104.739 0 189.94 86.138 189.94 192.010 0 105.79-85.078 191.859-190.954 191.859h-0.234l-2.89 0.131c-104.739 0-189.923-86.138-189.923-192.010 0.013-105.811 85.11-191.909 191.17-191.892l0.001 0.007zM509.106 783.391l4.967-0.020c78.182 0 141.812-64.305 141.812-143.345 0-79.047-63.636-143.364-141.812-143.364v-0.006l-4.142 0.006c-78.182 0-141.788 64.317-141.806 143.364 0 79.041 63.617 143.339 140.981 143.364v0.001zM715.507 412.381c-14.586 4.665-28.563 6.9-42.746 6.9h-321.572c-13.949 0-28.304-2.321-42.692-6.9-50.529-16.127-84.498-58.884-84.498-106.436v-241.946h575.942l0.058 241.926c0.019 47.547-33.926 90.32-84.493 106.455zM739.814 117.594h-455.667v188.333c0 24.97 17.925 47.478 44.59 55.981 7.96 2.502 15.345 3.747 22.518 3.747l321.57 0.007c7.168 0 14.509-1.229 22.47-3.746 26.701-8.513 44.582-30.982 44.544-55.983l-0.026-188.339z" />
<glyph unicode="&#xe947;" glyph-name="place_form-value2" d="M511.952 810.679c-199.978 0-362.666-162.688-362.666-362.667s162.688-362.669 362.666-362.669c199.978 0 362.668 162.69 362.668 362.669s-162.689 362.667-362.668 362.667zM511.952 21.343c-235.264 0-426.666 191.408-426.666 426.669 0 235.264 191.402 426.667 426.666 426.667 235.26 0 426.668-191.403 426.668-426.667 0-235.261-191.408-426.669-426.668-426.669zM658.282 290.48c-5.59 0-11.222 1.45-16.384 4.48l-160.854 95.958c-9.642 5.802-15.616 16.256-15.616 27.52v206.848c0 17.664 14.336 32 32 32 17.706 0 32-14.336 32-32v-188.672l145.28-86.614c15.146-9.088 20.138-28.714 11.094-43.904-6.016-10.026-16.64-15.616-27.52-15.616z" />
<glyph unicode="&#xe948;" glyph-name="place_price" horiz-adv-x="808" d="M458.849 220.052c153.772 0 241.783 95.421 241.783 233.579 0 133.368-86.048 236.895-241.783 236.895h-252.58v-358.104h-98.48v-112.371h98.48v-56.002h-98.48v-112.365h98.48v-115.685h121.055v115.685h146.902v112.365h-146.902v56.002h131.525zM327.324 332.423v244.63h131.525c81.467 0 120.73-53.79 120.401-124.526 0.329-72.212-38.281-120.103-123.019-120.103h-128.907z" />
<glyph unicode="&#xe949;" glyph-name="place_price2" horiz-adv-x="910" d="M498.708 321.5c206.583 0 324.82 129.501 324.82 317.001 0 181-115.599 321.5-324.82 321.5h-339.324v-486h-132.301v-152.501h132.301v-76h-132.301v-152.5h132.301v-157h162.629v157h197.353v152.5h-197.353v76h176.695zM322.014 474v331.999h176.695c109.445 0 162.19-73 161.75-169 0.44-98-51.425-162.999-165.266-162.999h-173.179z" />
<glyph unicode="&#xe94a;" glyph-name="place_service1" d="M297.417 874.656c-5.997-0.189-11.754-2.393-16.343-6.257s-7.739-9.16-8.944-15.034c-1.204-5.874-0.392-11.983 2.306-17.339s7.124-9.645 12.564-12.176c0 0 11.666-7.003 11.666-16.242 0-6.59-1.28-8.42-5.833-13.326s-13.171-10.929-23.334-18.324c-8.759-6.372-20.116-13.439-30.833-24.986s-20-29.534-20-49.973c0-44.493 41.667-63.716 41.667-63.716 3.164-1.7 6.639-2.744 10.217-3.069s7.184 0.077 10.602 1.18c3.419 1.103 6.579 2.884 9.292 5.238s4.922 5.231 6.494 8.459c1.573 3.228 2.477 6.74 2.658 10.326s-0.364 7.171-1.604 10.54c-1.239 3.37-3.147 6.455-5.609 9.070s-5.427 4.705-8.717 6.147c0 0-11.666 6.587-11.666 15.825 0 6.59 1.28 8.836 5.833 13.742s13.171 10.929 23.334 18.324c8.759 6.373 20.116 13.44 30.833 24.987s20 29.117 20 49.556c0 44.493-41.667 64.133-41.667 64.133-3.992 2.042-8.434 3.044-12.916 2.915zM457.417 874.656c-5.995-0.189-11.755-2.393-16.341-6.257-4.591-3.863-7.74-9.16-8.943-15.034-1.207-5.874-0.393-11.983 2.304-17.339 2.701-5.356 7.125-9.645 12.565-12.176 0 0 11.665-7.003 11.665-16.242 0-6.59-1.28-8.42-5.833-13.326s-13.171-10.929-23.334-18.324c-8.758-6.372-20.116-13.439-30.833-24.986s-20-29.534-20-49.973c0-44.493 41.667-63.716 41.667-63.716 3.164-1.7 6.64-2.744 10.216-3.069 3.58-0.324 7.185 0.077 10.603 1.18s6.579 2.884 9.293 5.238c2.714 2.353 4.919 5.231 6.494 8.459s2.475 6.74 2.658 10.326c0.179 3.586-0.363 7.171-1.604 10.54-1.237 3.37-3.149 6.455-5.611 9.070s-5.423 4.705-8.717 6.147c0 0-11.665 6.587-11.665 15.825 0 6.59 1.28 8.836 5.833 13.742s13.171 10.929 23.334 18.324c8.759 6.373 20.117 13.44 30.835 24.987 10.714 11.548 19.998 29.117 19.998 49.556 0 44.493-41.668 64.133-41.668 64.133-3.989 2.042-8.431 3.044-12.915 2.915zM617.417 874.656c-5.995-0.189-11.755-2.393-16.341-6.257-4.591-3.863-7.74-9.16-8.943-15.034-1.207-5.874-0.393-11.983 2.304-17.339 2.701-5.356 7.125-9.645 12.565-12.176 0 0 11.665-7.003 11.665-16.242 0-6.59-1.28-8.42-5.833-13.326s-13.171-10.929-23.334-18.324c-8.759-6.372-20.117-13.439-30.831-24.986-10.718-11.548-20.002-29.534-20.002-49.973 0-44.493 41.668-63.716 41.668-63.716 3.162-1.7 6.639-2.744 10.214-3.069 3.58-0.324 7.185 0.077 10.603 1.18s6.579 2.884 9.293 5.238c2.714 2.353 4.919 5.231 6.494 8.459s2.475 6.74 2.658 10.326c0.179 3.586-0.363 7.171-1.604 10.54s-3.149 6.455-5.611 9.070c-2.462 2.615-5.423 4.705-8.717 6.147 0 0-11.665 6.587-11.665 15.825 0 6.59 1.28 8.836 5.833 13.742s13.171 10.929 23.334 18.324c8.759 6.373 20.117 13.44 30.835 24.987 10.714 11.548 19.998 29.117 19.998 49.556 0 44.493-41.668 64.133-41.668 64.133-3.989 2.042-8.431 3.044-12.915 2.915zM109.5 581.064c-6.63-0.625-12.787-3.706-17.259-8.639s-6.936-11.358-6.907-18.014c0-148.361 70.985-282.074 186.667-348.147v-64.964c0-7.070 2.81-13.845 7.811-18.846 5.001-4.996 11.783-7.804 18.855-7.804h293.333c7.074 0 13.854 2.807 18.854 7.804 5.001 5.001 7.812 11.776 7.812 18.846v64.964c26.368 15.061 50.253 33.51 71.667 54.972h141.666c58.633 0 106.667 48.009 106.667 106.607v106.611c0 58.603-48.034 106.61-106.667 106.61h-720c-0.833 0.039-1.667 0.039-2.5 0zM142 527.757h606.668c-8.439-125.453-71.868-233.6-168.751-282.347-4.45-2.261-8.171-5.722-10.752-9.993-2.577-4.267-3.904-9.173-3.831-14.161v-53.308h-240v53.308c0.073 4.988-1.254 9.894-3.832 14.161-2.578 4.271-6.303 7.731-10.751 9.993-96.882 48.747-160.311 156.894-168.75 282.347zM804.501 527.757h27.499c30.007 0 53.333-23.309 53.333-53.303v-106.611c0-29.99-23.326-53.303-53.333-53.303h-97.502c40.879 60.339 65.476 134.144 70.003 213.218zM136.167 74.671c-3.502-0.166-6.937-1.020-10.11-2.509-3.173-1.493-6.020-3.593-8.38-6.182s-4.187-5.623-5.375-8.917c-1.189-3.298-1.716-6.797-1.552-10.295s1.017-6.933 2.508-10.103c1.492-3.17 3.594-6.020 6.186-8.38 2.592-2.355 5.624-4.181 8.922-5.367 3.298-1.19 6.798-1.715 10.3-1.553h613.333c3.533-0.047 7.040 0.606 10.317 1.924s6.259 3.277 8.772 5.756c2.513 2.479 4.51 5.431 5.871 8.691 1.365 3.255 2.065 6.75 2.065 10.283 0 3.529-0.7 7.023-2.065 10.283-1.361 3.255-3.358 6.212-5.871 8.691s-5.495 4.433-8.772 5.751c-3.277 1.318-6.784 1.975-10.317 1.929h-613.333c-0.833 0.038-1.667 0.038-2.5 0z" />
<glyph unicode="&#xe94b;" glyph-name="place_service2" d="M913.331 570.667h-759.998c-3.327 0.001-6.622-0.654-9.696-1.927s-5.867-3.139-8.22-5.491c-2.353-2.353-4.218-5.146-5.491-8.22s-1.928-6.368-1.927-9.696v-455.998c0-6.72 2.669-13.163 7.42-17.916 4.751-4.749 11.194-7.42 17.913-7.42s13.162 2.671 17.913 7.42c4.751 4.753 7.42 11.196 7.42 17.916v227.998h50.667v-227.998c0-6.72 2.669-13.163 7.42-17.916 4.751-4.749 11.194-7.42 17.913-7.42s13.162 2.671 17.913 7.42c4.751 4.753 7.42 11.196 7.42 17.916v227.998h506.667v-227.998c0-6.72 2.671-13.163 7.42-17.916 4.753-4.749 11.196-7.42 17.911-7.42 6.72 0 13.163 2.671 17.916 7.42 4.749 4.753 7.42 11.196 7.42 17.916v227.998h50.667v-227.998c0-6.72 2.671-13.163 7.42-17.916 4.753-4.749 11.196-7.42 17.911-7.42 6.72 0 13.163 2.671 17.916 7.42 4.749 4.753 7.42 11.196 7.42 17.916v455.998c0 3.327-0.653 6.622-1.929 9.696-1.271 3.074-3.136 5.867-5.491 8.22-2.351 2.353-5.146 4.218-8.218 5.491-3.076 1.273-6.37 1.928-9.698 1.927zM178.667 520h709.333v-152h-709.333v152zM405.479 874.655c-5.697-0.199-11.167-2.52-15.526-6.589s-7.352-9.646-8.497-15.832c-1.144-6.186-0.372-12.619 2.191-18.259s6.768-10.157 11.935-12.823c0 0 11.084-7.375 11.084-17.104 0-6.94-1.216-8.867-5.542-14.033s-12.512-11.51-22.167-19.296c-8.321-6.711-19.111-14.152-29.292-26.313s-19-31.102-19-52.626c0-46.855 39.583-67.098 39.583-67.098 3.006-1.79 6.307-2.89 9.706-3.232s6.825 0.081 10.072 1.243c3.248 1.161 6.25 3.037 8.827 5.516s4.675 5.508 6.17 8.908c1.494 3.399 2.353 7.098 2.525 10.874s-0.346 7.551-1.524 11.1c-1.178 3.549-2.99 6.798-5.329 9.551s-5.155 4.955-8.281 6.473c0 0-11.084 6.936-11.084 16.665 0 6.94 1.216 9.305 5.542 14.472s12.512 11.509 22.167 19.296c8.321 6.711 19.11 14.153 29.29 26.313 10.185 12.161 19.004 30.663 19.004 52.188 0 46.855-39.585 67.537-39.585 67.537-3.793 2.15-8.013 3.206-12.271 3.070zM557.478 874.655c-5.696-0.199-11.166-2.52-15.526-6.589-4.356-4.068-7.351-9.646-8.495-15.832s-0.371-12.619 2.193-18.259c2.56-5.64 6.767-10.157 11.934-12.823 0 0 11.081-7.375 11.081-17.104 0-6.94-1.216-8.867-5.538-14.033-4.326-5.167-12.514-11.51-22.17-19.296-8.32-6.711-19.11-14.152-29.291-26.313s-18.999-31.102-18.999-52.626c0-46.855 39.582-67.098 39.582-67.098 3.008-1.79 6.31-2.89 9.707-3.232 3.401-0.342 6.827 0.081 10.074 1.243s6.251 3.037 8.828 5.516c2.577 2.479 4.676 5.508 6.17 8.908s2.351 7.098 2.522 10.874c0.175 3.776-0.346 7.551-1.523 11.1s-2.987 6.798-5.329 9.551c-2.338 2.753-5.154 4.955-8.277 6.473 0 0-11.085 6.936-11.085 16.665 0 6.94 1.216 9.305 5.542 14.472s12.51 11.509 22.165 19.296c8.32 6.711 19.11 14.153 29.291 26.313 10.185 12.161 18.999 30.663 18.999 52.188 0 46.855-39.582 67.537-39.582 67.537-3.793 2.15-8.013 3.206-12.271 3.070zM709.478 874.655c-5.696-0.199-11.166-2.52-15.526-6.589-4.356-4.068-7.351-9.646-8.495-15.832s-0.371-12.619 2.193-18.259c2.56-5.64 6.767-10.157 11.934-12.823 0 0 11.081-7.375 11.081-17.104 0-6.94-1.216-8.867-5.538-14.033-4.326-5.167-12.514-11.51-22.17-19.296-8.32-6.711-19.11-14.152-29.291-26.313s-18.999-31.102-18.999-52.626c0-46.855 39.582-67.098 39.582-67.098 3.008-1.79 6.31-2.89 9.707-3.232 3.401-0.342 6.827 0.081 10.074 1.243s6.251 3.037 8.828 5.516c2.577 2.479 4.676 5.508 6.17 8.908s2.351 7.098 2.522 10.874c0.175 3.776-0.346 7.551-1.523 11.1s-2.987 6.798-5.329 9.551c-2.338 2.753-5.154 4.955-8.277 6.473 0 0-11.085 6.936-11.085 16.665 0 6.94 1.216 9.305 5.542 14.472s12.51 11.509 22.165 19.296c8.32 6.711 19.11 14.153 29.291 26.313 10.185 12.161 19.004 30.663 19.004 52.188 0 46.855-39.586 67.537-39.586 67.537-3.793 2.15-8.013 3.206-12.271 3.070z" />
<glyph unicode="&#xe94c;" glyph-name="place_service3" d="M731.682 656.074l-94.029 139.362c-6.972 10.307-16.235 18.762-27.025 24.664-10.786 5.902-22.793 9.081-35.017 9.273l-178.812 2.627c-92.126 0-162.811-15.811-208.336-92.972-42.384-71.825-60.464-194.175-60.464-409.099v-26.266h58.491l-37.653-196.996h52.176l37.653 196.996h17.333c41.811-0.384 82.091 16.124 112.141 45.952 27.166 26.671 46.762 63.159 56.67 105.515l0.090 0.384 43.908 215.877h-52.303l-41.566-204.365c-12.659-53.649-50.514-110.831-118.939-110.831h-76.704c1.391 185.943 17.891 296.184 52.968 355.636 29.44 49.905 72.472 67.621 164.358 67.645l178.251-2.627c4.075-0.064 8.077-1.123 11.674-3.090s6.686-4.786 9.007-8.222l106.368-157.628 142.878-24.434v-27.84l-23.825-130.379c-7.036-38.481-19.055-57.869-68.352-63.945l-202.086-35.473-1.34-219.17h51.2l1.067 174.822 157.922 27.746c35.776 4.51 62.17 16.341 80.683 36.151 15.821 16.939 25.455 38.579 31.228 70.182l24.704 135.182v77.225l-164.318 28.098z" />
<glyph unicode="&#xe94d;" d="M512 960c282.77 0 512-229.23 512-512s-229.23-512-512-512c-282.77 0-512 229.23-512 512s229.23 512 512 512z" />
<glyph unicode="&#xe94e;" d="M824.694 497.792l-34.949 39.204 4.864 52.073v-0.005c1.554 18.15-3.576 36.244-14.461 50.972-10.88 14.728-26.783 25.108-44.797 29.235l-51.661 11.372-27.049 44.888c-9.574 15.646-24.568 27.347-42.214 32.957-17.649 5.61-36.764 4.749-53.816-2.432l-48.625-20.348-48.622 20.348c-17.050 7.207-36.175 8.084-53.827 2.474-17.659-5.615-32.65-17.338-42.207-32.998l-27.049-44.894-51.658-11.366c-18.015-4.127-33.918-14.508-44.798-29.235-10.885-14.728-16.016-32.822-14.462-50.972l4.865-52.073-34.951-39.199c-12.194-13.768-18.913-31.414-18.913-49.684 0-18.266 6.72-35.912 18.913-49.679l34.951-39.204-4.865-52.073c-1.553-18.145 3.577-36.239 14.462-50.967 10.88-14.728 26.783-25.108 44.798-29.235l51.658-11.372 27.049-44.89c13.88-22.848 38.915-36.844 65.948-36.869 10.36 0.036 20.598 2.176 30.085 6.282l48.622 20.347 48.625-20.347c17.047-7.201 36.173-8.079 53.827-2.468 17.659 5.609 32.65 17.331 42.204 32.993l27.049 44.892 51.661 11.372c18.012 4.127 33.917 14.502 44.797 29.23 10.885 14.728 16.015 32.822 14.461 50.972l-4.864 52.073 34.949 39.204c12.211 13.768 18.941 31.429 18.941 49.71 0 18.276-6.73 35.937-18.941 49.71v0.003zM511.982 220.060c-61.417 0-120.315 24.026-163.75 66.796-43.425 42.762-67.825 100.769-67.825 161.244 0 60.48 24.399 118.487 67.825 161.257 43.428 42.767 102.328 66.796 163.75 66.796s120.315-24.028 163.75-66.796c43.423-42.765 67.822-100.772 67.822-161.257-0.090-60.449-24.515-118.405-67.922-161.152-43.41-42.744-102.254-66.801-163.643-66.888h-0.008zM511.982 646.223c-53.356 0-104.527-20.872-142.262-58.030-37.727-37.153-58.926-87.539-58.926-140.093 0-52.544 21.199-102.932 58.926-140.096 37.727-37.153 88.899-58.022 142.262-58.022 53.361 0 104.527 20.869 142.259 58.022 37.729 37.158 58.926 87.544 58.926 140.096-0.064 52.526-21.284 102.879-58.993 140.014-37.716 37.143-88.852 58.033-142.18 58.094l-0.013 0.015zM599.503 491.791l-101.501-117.908c-2.839-3.397-7.073-5.376-11.548-5.386h-0.302c-4.675 0.095-9.044 2.301-11.855 5.988l-50.138 64.937c-4.511 6.543-3.069 15.411 3.287 20.242 6.354 4.833 15.432 3.963 20.718-1.987l38.899-50.278 89.042 103.552c5.368 6.362 14.961 7.232 21.422 1.94 6.464-5.286 7.35-14.733 1.976-21.094v-0.005z" />
<glyph unicode="&#xe94f;" glyph-name="place_type" d="M242.041 379.494c-11.12 15.528-16.175 35.505-13.143 54.36 2.024 19.968 11.12 36.613 25.271 48.822l141.512 120.926-112.202 94.307c-8.088 6.656-19.207 6.656-27.294 0l-215.306-181.957c-5.056-4.434-8.088-9.984-8.088-16.639-2.017-6.663 0-13.319 4.047-18.867 4.040-5.548 11.12-8.876 15.16-8.876h39.422v-183.054c0-13.312 10.111-24.408 22.238-24.408h173.862v86.537c-17.183 2.22-34.366 13.317-45.485 28.849h0.006zM982.97 515.954l-216.315 183.054c-8.090 6.656-19.209 6.656-27.294 0l-112.202-95.412 142.531-120.929c14.15-12.204 23.245-29.957 25.27-48.817 2.025-19.963-2.025-38.833-13.144-54.365s-27.294-25.516-45.484-27.736v-87.64h173.861c12.13 0 22.239 11.096 22.239 24.408v183.063h37.399c7.080 0 13.14 3.328 17.18 8.876 8.090 11.087 6.065 26.621-4.040 35.497v0.001zM742.409 443.839l-216.315 183.056c-8.090 6.656-19.209 6.656-27.294 0l-217.328-183.056c-5.055-4.431-8.087-9.984-9.095-16.635-1.009-6.656 1.008-13.312 4.040-18.86 4.040-5.548 11.119-9.984 15.159-9.984h39.422v-181.951c0-13.307 10.111-24.404 22.238-24.404h187.003v179.717c0 6.656 5.055 12.204 11.12 12.204h52.564c6.065 0 11.12-5.548 11.12-12.204v-178.618h52.564c12.13 0 22.239 11.096 22.239 24.408l-0.005 181.946h37.395c7.080 0 13.144 3.328 17.185 9.984 9.104 11.096 7.080 26.629-2.015 34.397h0.005zM482.63 314.028c0-6.656-5.059-12.204-11.12-12.204h-52.567c-6.063 0-11.119 5.548-11.119 12.204v57.693c0 6.656 5.056 12.204 11.119 12.204h52.567c6.060 0 11.12-5.548 11.12-12.204v-57.693z" />
<glyph unicode="&#xe950;" glyph-name="popup_delete-img" d="M747.914 656.651h-125.716c0.842-3.71 1.685-7.245 2.363-10.955 0.33-1.849 0.835-3.874 1.173-5.897 0.678-3.71 1.182-7.923 1.851-11.963l0.504-4.212 0.008-0.678c0.166-1.521 0.338-2.867 0.504-4.378 0.504-5.222 1.009-11.631 1.18-17.862 2.025-54.432-10.451-108.36-36.068-155.888l-2.355-4.212c-4.89-9.104-11.293-19.043-18.372-28.817-3.536-4.89-7.079-9.434-10.451-13.82-2.867-3.536-5.732-6.905-8.592-10.111-2.693-3.033-5.22-5.899-8.26-8.766-5.222-5.732-10.955-11.293-16.853-16.513v-295.78c0-86.955 43.477-117.969 84.264-117.969h33.705v320.201c0 9.268 7.583 16.853 16.853 16.853 9.268 0 16.852-7.585 16.852-16.853v-320.201h33.705c40.786 0 84.264 31.014 84.264 117.969v228.196c9.946-5.734 21.404-9.104 33.705-9.104 37.243 0 67.41 30.169 67.41 67.41v151.674c0 83.585-68.088 151.676-151.674 151.676v0zM341.427 489.124c14.829 2.197 28.823 7.583 41.124 15.845 3.71 2.363 7.419 5.22 10.789 8.262 3.198 2.693 5.891 5.559 8.592 8.59 1.347 1.347 2.529 2.693 3.71 4.214 3.031 3.874 5.899 7.922 7.923 11.797 10.111 17.356 14.829 36.232 13.984 55.449-0.164 7.079-1.347 13.986-3.203 20.727-0.678 3.37-1.521 6.063-2.529 8.93-0.504 1.009-1.009 2.025-1.519 3.205-2.025 5.056-4.048 8.93-6.577 13.316 0 0.166-0.164 0.166-0.164 0.34-3.71 6.063-7.923 11.795-12.806 16.852h-57.3c-22.248 0-43.477-8.764-59.662-24.775-15.845-16.009-24.601-37.241-24.601-59.489 0-44.66 34.713-81.23 78.702-83.924 1.182 0.33 2.355 0.497 3.536 0.663v-0.002zM394.010 16.241c0-37.227-30.185-67.412-67.41-67.412-37.227 0-67.411 30.185-67.411 67.412 0 37.225 30.185 67.41 67.411 67.41s67.41-30.185 67.41-67.41zM591.366 736.538c22.586-26.964 49.714-46.18 72.3-46.18 48.534 0 117.969 89.319 117.969 151.674 0 65.047-52.92 117.969-117.969 117.969-65.047 0-117.969-52.921-117.969-117.969 0-20.389 7.419-43.817 19.216-65.891 7.41-13.995 16.513-27.477 26.452-39.602v0zM545.68 431.496c6.237 8.592 11.797 17.356 16.852 26.624 0.504 0.844 1.009 1.851 1.521 2.693 22.248 41.29 33.871 88.816 32.020 138.87-0.166 5.561-0.676 11.121-1.18 16.515-0.174 2.363-0.504 4.552-0.678 6.741-0.842 5.732-1.685 11.293-2.867 16.852-1.007 5.734-2.361 11.293-3.708 16.853-29.329 112.574-130.104 197.34-250.094 202.058-70.104 2.694-138.192-21.569-190.774-68.591-13.317-11.962-21.23-28.484-22.247-46.344-1.008-18.034 5.056-35.39 17.018-48.708 24.774-27.806 67.411-30.167 95.219-5.394 26.121 23.595 59.992 35.73 95.381 34.211 46.194-1.851 87.651-28.815 110.575-67.238 3.203-5.394 6.063-10.955 8.426-16.852 2.363-5.394 4.378-10.955 5.732-16.853 2.527-9.104 4.048-18.538 4.378-28.311 1.009-26.46-5.566-51.401-18.034-72.804-3.203-5.899-7.079-11.633-11.293-16.853-4.89-6.065-10.277-11.797-16.175-16.853-19.041-17.018-42.809-28.483-69.599-32.358-50.393-7.245-86.957-49.038-86.957-99.264l-0.008-171.725c0-37.241 30.169-67.41 67.411-67.41 37.241 0 67.41 30.169 67.41 67.41v143.248c53.762 13.82 100.273 42.973 134.82 82.413 6.065 6.741 11.633 13.812 16.853 21.067l-0.002 0.004z" />
<glyph unicode="&#xe951;" glyph-name="price_white" d="M530.442 321.5c204.314 0 321.251 129.5 321.251 317 0 181-114.33 321.5-321.251 321.5h-335.596v-486.001h-130.847v-152.499h130.847v-76h-130.847v-152.5h130.847v-157h160.842v157h195.185v152.5h-195.185v76h174.753zM355.689 473.999v332h174.753c108.243 0 160.407-73 159.973-169 0.434-97.999-50.861-163-163.451-163h-171.276z" />
<glyph unicode="&#xe952;" glyph-name="question_icon" d="M326.992 810.656c-107.904 0-177.664-73.941-177.664-188.416v-348.499c0-114.477 69.76-188.416 177.664-188.416h369.834c108.032 0 177.837 73.939 177.837 188.416v348.499c0 114.475-69.805 188.416-177.747 188.416h-369.923zM696.826 21.325h-369.834c-144.554 0-241.664 101.459-241.664 252.416v348.499c0 150.955 97.11 252.416 241.664 252.416h369.923c144.595 0 241.747-101.461 241.747-252.416v-348.499c0-150.957-97.152-252.416-241.837-252.416zM568.317 273.235c0-26.733-21.677-48.41-48.421-48.41-26.735 0-48.412 21.677-48.412 48.41 0 26.746 21.678 48.421 48.412 48.421 26.744 0 48.421-21.676 48.421-48.421zM519.896 359.885c-20.389 0-35.677 16.567-35.677 35.677 0 42.048 25.482 78.997 64.981 95.564 28.032 11.466 44.601 39.498 44.601 68.801-1.271 38.228-33.126 70.083-71.352 71.352-20.389 0-38.228-6.373-53.516-20.389-14.017-14.017-21.66-31.855-21.66-52.244s-16.567-35.677-35.677-35.677c-19.117 0.009-36.956 16.576-36.956 35.686 0 39.498 15.288 76.456 43.32 104.488s64.981 42.048 105.757 40.778c75.174-2.55 138.881-64.981 141.434-141.434 1.274-59.886-33.126-113.402-87.921-137.612-12.745-5.092-21.66-16.567-21.66-29.304 0.009-19.127-15.288-35.686-35.677-35.686h0.003z" />
<glyph unicode="&#xe953;" glyph-name="question_inp" d="M337.919 789.155c-101.557 0-167.213-69.592-167.213-177.333v-327.999c0-107.743 65.656-177.333 167.213-177.333h348.083c101.677 0 167.37 69.59 167.37 177.333v327.999c0 107.74-65.693 177.333-167.291 177.333h-348.161zM686.002 46.255h-348.083c-136.051 0-227.448 95.491-227.448 237.568v327.999c0 142.075 91.397 237.568 227.448 237.568h348.161c136.090 0 227.527-95.493 227.527-237.568v-327.999c0-142.077-91.437-237.568-227.605-237.568zM565.137 283.353c0-25.16-20.402-45.562-45.573-45.562-25.163 0-45.564 20.402-45.564 45.562 0 25.172 20.403 45.574 45.564 45.574 25.171 0 45.573-20.402 45.573-45.574zM519.535 364.899c-19.19 0-33.579 15.593-33.579 33.578 0 39.575 23.983 74.35 61.159 89.943 26.383 10.791 41.977 37.174 41.977 64.754-1.196 35.979-31.178 65.959-67.155 67.155-19.19 0-35.979-5.998-50.368-19.19-13.192-13.192-20.386-29.981-20.386-49.171s-15.593-33.578-33.579-33.578c-17.993 0.008-34.782 15.601-34.782 33.587 0 37.174 14.388 71.958 40.771 98.341s61.159 39.575 99.536 38.38c70.752-2.401 130.717-61.159 133.114-133.115 1.199-56.364-31.177-106.732-82.749-129.517-11.995-4.793-20.385-15.593-20.385-27.58 0.008-18.002-14.388-33.587-33.579-33.587h0.002z" />
<glyph unicode="&#xe954;" glyph-name="rating" d="M342.918 93.819c-17.621 0-35.114 5.545-50.090 16.466-25.856 18.944-38.528 50.222-33.024 81.71l29.696 171.090c1.11 6.359-1.066 12.8-5.76 17.326l-126.122 121.171c-23.21 22.23-31.53 55.083-21.718 85.59 9.899 30.848 36.096 52.906 68.395 57.514l174.421 25.131c6.742 0.938 12.544 5.077 15.446 10.965l77.952 155.819c14.378 28.714 43.394 46.549 75.732 46.549 32.343 0 61.358-17.834 75.735-46.549l77.993-155.776c2.944-5.931 8.704-10.070 15.406-11.008l174.418-25.131c32.302-4.608 58.496-26.666 68.398-57.514 9.81-30.506 1.449-63.36-21.76-85.59l-126.126-121.171c-4.69-4.526-6.825-10.967-5.714-17.28l29.737-171.136c5.463-31.534-7.209-62.807-33.111-81.71-26.24-19.241-60.416-21.842-89.385-6.738l-155.863 80.768c-6.098 3.154-13.394 3.154-19.497 0l-155.862-80.814c-12.458-6.482-25.898-9.682-39.296-9.682z" />
<glyph unicode="&#xe955;" glyph-name="room_card-item" d="M900.193 486.528v179.616c0 49.459-40.648 89.696-90.609 89.696l-595.182 0.010c-49.961 0-90.608-40.238-90.608-89.696v-179.654c-54.113-25.017-91.795-79.271-91.795-142.206v-163.599c0-11.438 9.364-20.695 20.906-20.695h119.352c11.543 0 20.906 9.257 20.906 20.695v15.534h637.647v-15.534c0-11.438 9.364-20.695 20.91-20.695l119.373-0.010c11.54 0 20.905 9.257 20.905 20.695v163.62c0 62.945-37.683 117.188-91.807 142.225v-0.002zM165.606 666.144c0 26.637 21.889 48.306 48.796 48.306h595.182c26.906 0 48.794-21.669 48.794-48.306v-166.967c-8.166 1.299-16.492 2.137-25.011 2.137h-31.892v96.244c0 26.637-21.888 48.306-48.794 48.306h-164.603c-26.906 0-48.794-21.669-48.794-48.306v-96.244h-54.592v96.244c0 26.637-21.889 48.306-48.797 48.306h-164.599c-26.908 0-48.796-21.669-48.796-48.306v-96.244h-31.866c-8.528 0-16.852-0.857-25.021-2.137l-0.007 166.967zM759.619 501.334h-178.534v96.244c0 3.745 3.19 6.902 6.968 6.902h164.603c3.779 0 6.968-3.157 6.968-6.902l-0.005-96.244zM442.846 501.334h-178.544v96.244c0 3.745 3.189 6.902 6.972 6.902h164.619c3.783 0 6.972-3.157 6.972-6.902v-96.244h-0.019zM193.139 237.65v33.608h637.648v-33.608h-637.648zM950.175 201.411h-77.548v90.542c0 11.428-9.364 20.695-20.905 20.695h-679.47c-11.543 0-20.907-9.267-20.907-20.695v-90.542h-77.538v142.899c0 63.775 52.403 115.631 116.826 115.631h642.729c64.42 0 116.823-51.856 116.823-115.631l-0.010-142.899z" />
<glyph unicode="&#xe956;" glyph-name="room_card-more" d="M326.989 810.675c-107.904 0-177.664-73.942-177.664-188.416v-348.503c0-114.473 69.76-188.416 177.664-188.416h369.833c108.032 0 177.838 73.943 177.838 188.416v348.503c0 114.474-69.806 188.416-177.751 188.416h-369.92zM696.822 21.34h-369.833c-144.554 0-241.664 101.463-241.664 252.416v348.503c0 150.954 97.11 252.416 241.664 252.416h369.92c144.599 0 241.751-101.462 241.751-252.416v-348.503c0-150.953-97.152-252.416-241.838-252.416zM511.725 245.335c-17.664 0-32 14.336-32 32v170.665c0 17.664 14.336 32 32 32 17.662 0 31.998-14.336 31.998-32v-170.665c0-17.664-14.336-32-31.998-32zM511.955 567.292c-23.594 0-42.88 19.072-42.88 42.666s18.902 42.666 42.454 42.666h0.426c23.597 0 42.669-19.072 42.669-42.666s-19.072-42.666-42.669-42.666z" />
<glyph unicode="&#xe957;" glyph-name="room_card-option1" d="M920.115 158.981l-80.655 80.573c-10.522 10.506-27.177 10.506-37.699 0-10.516-10.506-10.516-27.146 0-37.658l35.067-35.026-607.568-0.005v606.052l35.065-35.029c5.259-5.254 12.274-7.881 19.288-7.881s14.029 2.627 19.288 7.881c10.519 10.508 10.519 27.148 0 37.656l-80.658 80.574c-10.519 10.508-27.177 10.508-37.696 0l-80.658-80.574c-10.519-10.508-10.519-27.148 0-37.656s27.177-10.508 37.696 0l35.066 35.029v-633.204c0-14.889 12.274-27.146 27.176-27.146h632.115l-35.067-35.031c-10.516-10.506-10.516-27.146 0-37.658 5.263-5.253 12.278-7.88 19.287-7.88 7.014 0 14.029 2.627 19.292 7.88l80.655 80.573c10.522 11.382 10.522 28.022 0 38.533l0.005-0.005zM398.47 779.903h27.188c14.91 0 27.189 12.261 27.189 27.148s-12.279 27.148-27.189 27.148h-27.188c-14.916 0-27.195-12.261-27.195-27.148s12.279-27.148 27.195-27.148zM535.224 779.903h43.837c14.904 0 27.177 12.261 27.177 27.148s-12.273 27.148-27.177 27.148h-43.837c-14.899 0-27.174-12.261-27.174-27.148s12.275-27.148 27.174-27.148zM689.551 779.903h43.837c14.904 0 27.177 12.261 27.177 27.148s-12.273 27.148-27.177 27.148h-43.837c-14.904 0-27.177-12.261-27.177-27.148s12.273-27.148 27.177-27.148zM842.962 779.903c0-14.888 12.283-27.148 27.192-27.148s27.187 12.261 27.187 27.148v27.148c0 14.888-12.278 27.148-27.187 27.148h-27.192c-14.909 0-27.187-12.261-27.187-27.148s13.153-27.148 27.187-27.148zM897.352 670.452c0 14.888-12.278 27.148-27.187 27.148s-27.187-12.261-27.187-27.148v-43.79c0-14.888 12.278-27.148 27.187-27.148s27.187 12.261 27.187 27.148v43.79zM897.352 516.302c0 14.888-12.278 27.148-27.187 27.148s-27.187-12.261-27.187-27.148v-43.79c0-14.887 12.278-27.148 27.187-27.148s27.187 12.261 27.187 27.148v43.79zM870.164 389.325c-14.909 0-27.187-12.262-27.187-27.146v-27.151c0-14.889 12.278-27.146 27.187-27.146s27.187 12.262 27.187 27.146v27.151c0 15.759-12.278 27.146-27.187 27.146zM387.077 297.354h298.962c14.904 0 27.177 12.262 27.177 27.151v298.646c0 14.888-12.273 27.148-27.177 27.148h-298.962c-14.903 0-27.176-12.261-27.176-27.148v-298.646c0-14.889 12.274-27.151 27.176-27.151zM413.38 596.003h245.482v-245.222h-245.482v245.222z" />
<glyph unicode="&#xe958;" glyph-name="room_card-option2" d="M511.171 448.105h0.214l2.673-0.105c104.74 0 189.942 86.137 189.942 192.010 0 105.79-85.079 191.859-190.956 191.859h-0.23l-2.891 0.131c-104.739 0-189.923-86.137-189.923-192.010 0.013-105.81 85.11-191.909 191.17-191.892l0.001 0.007zM509.106 783.391l4.967-0.019c78.182 0 141.814-64.305 141.814-143.345 0-79.048-63.642-143.364-141.814-143.364v-0.007l-4.143 0.007c-78.181 0-141.787 64.316-141.806 143.364 0 79.041 63.618 143.338 140.981 143.364v0.001zM715.51 412.375c-14.592 4.664-28.564 6.902-42.747 6.902h-321.573c-13.949 0-28.304-2.324-42.692-6.902-50.529-16.128-84.498-58.885-84.498-106.435v-241.951h575.944l0.056 241.93c0.015 47.544-33.93 90.322-84.49 106.455zM739.814 117.586h-455.667v188.334c0 24.97 17.925 47.478 44.59 55.982 7.961 2.504 15.345 3.748 22.519 3.748l321.573 0.005c7.163 0 14.51-1.229 22.467-3.748 26.701-8.509 44.585-30.981 44.539-55.982l-0.020-188.339z" />
<glyph unicode="&#xe959;" glyph-name="search" d="M500.856 810.669c-193.835 0-351.531-157.653-351.531-351.488 0-193.837 157.696-351.533 351.531-351.533 193.79 0 351.486 157.696 351.486 351.533 0 193.835-157.696 351.488-351.486 351.488zM500.856 43.648c-229.12 0-415.531 186.414-415.531 415.533s186.411 415.488 415.531 415.488c229.118 0 415.486-186.368 415.486-415.488 0-229.118-186.368-415.533-415.486-415.533zM917.939-9.457c-8.151 0-16.343 3.113-22.615 9.344l-150.359 149.929c-12.498 12.503-12.544 32.768-0.041 45.271 12.457 12.585 32.727 12.503 45.271 0.087l150.354-149.975c12.503-12.503 12.544-32.727 0.046-45.225-6.231-6.318-14.464-9.431-22.656-9.431z" />
<glyph unicode="&#xe95a;" glyph-name="search2" d="M500.859 810.656c-193.835 0-351.531-157.653-351.531-351.488 0-193.837 157.696-351.533 351.531-351.533 193.791 0 351.487 157.696 351.487 351.533 0 193.835-157.696 351.488-351.487 351.488zM500.859 43.635c-229.12 0-415.531 186.413-415.531 415.533s186.411 415.488 415.531 415.488c229.119 0 415.487-186.368 415.487-415.488s-186.368-415.533-415.487-415.533zM500.859 842.656c-211.503 0-383.531-171.975-383.531-383.488h64c0 176.157 143.364 319.488 319.531 319.488v64zM117.328 459.168c0-211.507 172.023-383.533 383.531-383.533v64c-176.162 0-319.531 143.373-319.531 319.533h-64zM500.859 75.635c211.468 0 383.487 172.026 383.487 383.533h-64c0-176.166-143.373-319.533-319.487-319.533v-64zM884.346 459.168c0 211.51-172.026 383.488-383.487 383.488v-64c176.12 0 319.487-143.329 319.487-319.488h64zM500.859 75.635c-211.447 0-383.531 172.083-383.531 383.533h-64c0-246.79 200.738-447.533 447.531-447.533v64zM117.328 459.168c0 211.443 172.079 383.488 383.531 383.488v64c-246.789 0-447.531-200.691-447.531-447.488h64zM500.859 842.656c211.448 0 383.487-172.041 383.487-383.488h64c0 246.794-200.691 447.488-447.487 447.488v-64zM884.346 459.168c0-211.45-172.045-383.533-383.487-383.533v-64c246.796 0 447.487 200.742 447.487 447.533h-64zM917.946-9.466c-8.147 0-16.339 3.117-22.611 9.344l-150.362 149.933c-12.499 12.499-12.544 32.768-0.038 45.267 12.454 12.589 32.723 12.506 45.267 0.090l150.355-149.978c12.506-12.499 12.544-32.723 0.045-45.222-6.227-6.317-14.464-9.434-22.656-9.434z" />
<glyph unicode="&#xe95b;" glyph-name="star" d="M342.918 93.865c-17.621 0-35.114 5.55-50.090 16.471-25.856 18.944-38.528 50.217-33.024 81.705l29.696 171.095c1.11 6.359-1.066 12.8-5.76 17.321l-126.122 121.175c-23.21 22.23-31.53 55.082-21.718 85.59 9.899 30.848 36.096 52.906 68.395 57.514l174.421 25.13c6.742 0.939 12.544 5.078 15.446 10.966l77.952 155.818c14.378 28.715 43.394 46.55 75.732 46.55 32.343 0 61.358-17.834 75.735-46.55l77.993-155.776c2.944-5.93 8.704-10.069 15.406-11.008l174.418-25.13c32.302-4.608 58.496-26.666 68.398-57.514 9.81-30.507 1.449-63.36-21.76-85.59l-126.126-121.175c-4.69-4.521-6.825-10.962-5.714-17.28l29.737-171.136c5.463-31.529-7.209-62.802-33.111-81.705-26.24-19.241-60.416-21.847-89.385-6.743l-155.863 80.768c-6.098 3.159-13.394 3.159-19.497 0l-155.862-80.809c-12.458-6.487-25.898-9.687-39.296-9.687z" />
<glyph unicode="&#xe95c;" glyph-name="star_white" d="M764.529 349.010c-11.049-10.706-16.128-26.194-13.609-41.385l37.929-209.92c3.2-17.792-4.306-35.799-19.2-46.080-14.592-10.665-34.002-11.945-49.92-3.415l-188.969 98.56c-6.569 3.502-13.865 5.376-21.334 5.591h-11.562c-4.010-0.599-7.936-1.879-11.52-3.84l-189.014-99.031c-9.344-4.69-19.925-6.354-30.293-4.69-25.259 4.777-42.112 28.841-37.974 54.226l37.974 209.92c2.517 15.319-2.56 30.894-13.611 41.774l-154.069 149.331c-12.886 12.501-17.366 31.274-11.478 48.213 5.718 16.896 20.31 29.227 37.93 32l212.054 30.763c16.128 1.664 30.294 11.477 37.546 25.984l93.44 191.573c2.219 4.267 5.078 8.192 8.534 11.52l3.84 2.987c2.006 2.218 4.31 4.053 6.87 5.546l4.65 1.706 7.254 2.987h17.962c16.041-1.664 30.167-11.264 37.545-25.6l94.679-190.72c6.825-13.952 20.096-23.638 35.415-25.984l212.050-30.763c17.92-2.56 32.896-14.933 38.83-32 5.586-17.109 0.768-35.882-12.375-48.213l-159.575-151.042z" />
<glyph unicode="&#xe95d;" glyph-name="time" d="M511.952 810.679c-199.978 0-362.666-162.688-362.666-362.667s162.688-362.669 362.666-362.669c199.978 0 362.668 162.69 362.668 362.669s-162.689 362.667-362.668 362.667zM511.952 21.343c-235.264 0-426.666 191.408-426.666 426.669 0 235.264 191.402 426.667 426.666 426.667 235.26 0 426.668-191.403 426.668-426.667 0-235.261-191.408-426.669-426.668-426.669zM658.282 290.48c-5.59 0-11.222 1.45-16.384 4.48l-160.854 95.958c-9.642 5.802-15.616 16.256-15.616 27.52v206.848c0 17.664 14.336 32 32 32 17.706 0 32-14.336 32-32v-188.672l145.28-86.614c15.146-9.088 20.138-28.714 11.094-43.904-6.016-10.026-16.64-15.616-27.52-15.616z" />
<glyph unicode="&#xe95e;" glyph-name="type" d="M242.041 379.49c-11.12 15.532-16.175 35.505-13.143 54.365 2.024 19.963 11.12 36.613 25.271 48.817l141.512 120.927-112.202 94.307c-8.088 6.656-19.207 6.656-27.294 0l-215.306-181.957c-5.056-4.434-8.088-9.984-8.088-16.639-2.017-6.664 0-13.32 4.047-18.869 4.040-5.548 11.12-8.876 15.16-8.876h39.422v-183.054c0-13.312 10.111-24.408 22.238-24.408h173.862v86.537c-17.183 2.22-34.366 13.321-45.485 28.849h0.006zM982.97 515.954l-216.315 183.054c-8.090 6.656-19.209 6.656-27.294 0l-112.202-95.412 142.531-120.929c14.15-12.204 23.245-29.957 25.27-48.817 2.025-19.963-2.025-38.833-13.144-54.365s-27.294-25.516-45.484-27.736v-87.64h173.861c12.13 0 22.239 11.096 22.239 24.408v183.063h37.399c7.080 0 13.14 3.328 17.18 8.876 8.090 11.087 6.065 26.621-4.040 35.497v0.001zM742.409 443.839l-216.315 183.056c-8.090 6.656-19.209 6.656-27.294 0l-217.328-183.056c-5.055-4.431-8.087-9.984-9.095-16.635-1.009-6.656 1.008-13.312 4.040-18.86 4.040-5.548 11.119-9.984 15.159-9.984h39.422v-181.951c0-13.307 10.111-24.404 22.238-24.404h187.003v179.717c0 6.656 5.055 12.204 11.12 12.204h52.564c6.065 0 11.12-5.548 11.12-12.204v-178.618h52.564c12.13 0 22.239 11.096 22.239 24.408l-0.005 181.946h37.395c7.080 0 13.144 3.328 17.185 9.984 9.104 11.096 7.080 26.629-2.015 34.397h0.005zM482.63 314.028c0-6.656-5.059-12.204-11.12-12.204h-52.567c-6.063 0-11.119 5.548-11.119 12.204v57.693c0 6.656 5.056 12.204 11.119 12.204h52.567c6.060 0 11.12-5.548 11.12-12.204v-57.693z" />
<glyph unicode="&#xe95f;" glyph-name="warning" d="M512.004 828.812c-209.979 0-380.801-170.822-380.801-380.8 0-209.98 170.822-380.8 380.801-380.8 209.975 0 380.8 170.82 380.8 380.8 0 209.977-170.825 380.8-380.8 380.8zM512 0c-247.027 0-448 200.973-448 448s200.973 448 448 448c247.027 0 448-200.973 448-448s-200.973-448-448-448zM511.727 386.496c-18.547 0-33.6 15.053-33.6 33.6v197.971c0 18.547 15.053 33.6 33.6 33.6s33.6-15.053 33.6-33.6v-197.971c0-18.547-15.053-33.6-33.6-33.6zM512.192 233.152c-24.777 0-45.026 20.023-45.026 44.8 0 24.772 19.849 44.8 44.578 44.8h0.448c24.772 0 44.8-20.028 44.8-44.8 0-24.777-20.028-44.8-44.8-44.8z" />
<glyph unicode="&#xe960;" glyph-name="delet_b" d="M522.516 21.338c-57.814 0-114.176 0.64-169.942 1.792-71.338 1.408-120.704 47.661-128.768 120.704-13.44 121.171-36.437 406.784-36.65 409.642-1.451 17.622 11.69 33.067 29.312 34.475 17.365 0.469 33.066-11.733 34.474-29.312 0.214-2.901 23.168-287.528 36.48-407.765 4.566-41.517 26.966-62.931 66.475-63.744 106.667-2.259 215.509-2.387 332.842-0.256 41.984 0.813 64.685 21.805 69.376 64.301 13.229 119.206 36.269 404.563 36.525 407.464 1.408 17.579 16.979 29.867 34.432 29.312 17.619-1.451 30.758-16.853 29.35-34.475-0.256-2.901-23.379-289.239-36.691-409.341-8.275-74.541-57.517-119.898-131.84-121.261-56.874-0.979-111.743-1.536-165.375-1.536zM883.539 661.789h-723.539c-17.664 0-32 14.336-32 32s14.336 32 32 32h723.539c17.664 0 32-14.336 32-32s-14.336-32-32-32zM744.122 661.792c-48.557 0-90.707 34.603-100.269 82.219l-10.367 51.883c-2.176 7.893-11.178 14.762-21.418 14.762h-180.608c-10.24 0-19.243-6.869-21.846-16.725l-9.941-49.92c-9.515-47.616-51.712-82.219-100.267-82.219-17.664 0-32 14.336-32 32s14.336 32 32 32c18.176 0 33.963 12.971 37.547 30.806l10.368 51.882c10.539 39.766 44.971 66.176 84.139 66.176h180.608c39.171 0 73.603-26.41 83.715-64.256l10.835-53.802c3.539-17.835 19.328-30.806 37.504-30.806 17.664 0 32-14.336 32-32s-14.336-32-32-32z" />
</font>
</defs>
</svg>
