<svg width="37" height="38" viewBox="0 0 37 38" fill="none" xmlns="http://www.w3.org/2000/svg">
<path d="M36.5799 22.9254C35.7765 21.7177 34.9731 20.5097 34.1696 19.3019C33.9807 19.0232 33.9807 18.8372 34.1696 18.5585C34.973 17.3972 35.7293 16.1894 36.5327 15.028C37.4308 13.6343 36.958 12.2405 35.3983 11.6832C34.075 11.1722 32.7042 10.6612 31.3808 10.1965C31.0973 10.1035 31.0027 9.91783 30.9555 9.63915C30.9084 8.19912 30.8138 6.759 30.7192 5.31897C30.6245 3.78595 29.3958 2.90321 27.9307 3.32156C26.5128 3.69324 25.0948 4.06492 23.6772 4.48294C23.3462 4.57594 23.2045 4.48294 22.9684 4.2506C22.0703 3.13559 21.1252 2.02083 20.2272 0.905816C19.2345 -0.301939 17.7222 -0.301939 16.7296 0.905816C15.8316 2.02083 14.9336 3.08922 14.0355 4.20431C13.7991 4.52965 13.5627 4.57599 13.232 4.48299C11.8616 4.11131 10.4436 3.73963 9.45093 3.46097C7.51306 2.99629 6.37901 3.78632 6.28431 5.31902C6.18969 6.75905 6.0954 8.24579 6.04793 9.6859C6.04793 10.0112 5.95331 10.1506 5.62264 10.2433C4.25218 10.7543 2.83421 11.2653 1.46341 11.8227C0.0454417 12.38 -0.426935 13.7738 0.423629 15.0282C1.22706 16.2359 2.03049 17.4439 2.83396 18.6517C3.02286 18.9304 3.02286 19.1164 2.83396 19.395C1.98339 20.6028 1.17958 21.8572 0.376198 23.1115C-0.380085 24.3193 0.0926713 25.713 1.41598 26.224C2.83396 26.7351 4.20441 27.2924 5.62239 27.8034C5.90591 27.8964 6.00053 28.0821 6.04768 28.3608C6.09482 29.7546 6.28406 31.1483 6.23658 32.5416C6.23658 33.9817 7.46534 35.1897 9.21423 34.6787C10.5847 34.2607 12.0027 33.9354 13.3735 33.5637C13.657 33.4707 13.7987 33.5174 13.988 33.7494C14.8861 34.8644 15.8312 35.9792 16.7764 37.0942C17.8162 38.3019 19.2813 38.3019 20.2739 37.0942C21.2191 35.9792 22.1172 34.8644 23.0152 33.703C23.2041 33.4707 23.3462 33.4243 23.6297 33.4707C25.0477 33.8424 26.5128 34.214 27.9307 34.5857C29.3958 34.9574 30.6249 34.0747 30.7192 32.5883C30.8138 31.1483 30.9081 29.6615 30.9555 28.2214C30.9555 27.8961 31.0973 27.7567 31.3808 27.664C32.7513 27.153 34.075 26.642 35.4454 26.131C36.958 25.5733 37.4306 24.1795 36.5799 22.9254ZM25.1423 22.7394C25.1423 22.7394 25.8986 24.7835 22.9209 25.3875C22.0229 25.5732 20.9359 25.5732 19.8961 25.4805C18.7617 25.5269 17.6276 25.4342 16.6824 25.3875C14.5398 25.2818 14.0828 24.2724 14.0828 24.2724C14.0828 25.1085 13.7993 25.3875 13.7518 25.4338C13.5155 25.5732 13.2319 25.6662 12.9013 25.6662H10.6799C9.8765 25.6662 9.16734 25.0158 9.16734 24.1794V18.3261C9.16734 17.5365 9.82901 16.8394 10.6799 16.8394H12.9013C13.2794 16.8394 13.6101 16.9788 13.894 17.2111C14.0357 16.8394 14.2721 16.3284 14.6974 15.8641C16.3518 14.6097 18.1003 9.87149 18.1003 9.87149C18.1003 9.87149 17.8168 8.15273 18.6674 8.15273C19.4708 8.15273 21.4086 8.71009 20.2742 12.1479C19.0927 15.632 20.2742 15.0746 20.2742 15.0746C20.5578 15.0283 20.7942 14.9816 21.0305 14.9353C21.0305 14.9353 24.3864 14.1919 25.6622 15.307C26.6549 16.1897 25.8986 17.3974 25.8986 17.3974C25.8986 17.3974 27.3166 18.6052 25.8514 20.0918C25.804 20.0915 26.702 21.578 25.1423 22.7394Z" fill="#FC6733"/>
</svg>
