<svg id="Слой_1" xmlns="http://www.w3.org/2000/svg" viewBox="0 0 1240 142"><style>.st0{fill:#cc1626}.st0,.st1,.st2{fill-rule:evenodd;clip-rule:evenodd}.st1{fill:#fff}.st2{fill:#fc0}</style><g id="Слой_x0020_1"><path class="st0" d="M6 14.3h370.6v117.9H6z"/><path class="st1" d="M54.9 73.6l16.8-16.8-16.8-16.9h12.6l16.8 16.8-16.9 16.9H54.9zm-22.2 0l16.8-16.8-16.8-16.9h12.6l16.8 16.8-16.8 16.9H32.7zm156.4 33.1c3.2 0 5.8-1.6 5.8-4.9 0-2.9-2.6-3.9-4.8-4.6-.1 0-.2-.1-.3-.1-1.7-.6-3.2-1-3.2-2.1 0-1 .8-1.6 2.2-1.6 1.3 0 2.9.6 4.4 1.5l1.4-2.5c-1.7-1.1-3.8-1.8-5.7-1.8-3.1 0-5.5 1.8-5.5 4.7 0 3 2.6 4 4.9 4.7.1 0 .2.1.3.1 1.7.5 3.2.9 3.2 2.1 0 1.1-.9 1.7-2.4 1.7-1.6 0-3.4-.6-5.1-1.9l-1.6 2.4c1.7 1.5 4.2 2.3 6.4 2.3zm16.5.1c2.9 0 4.9-1.1 6.4-2.9l-2.1-1.9c-1.2 1.2-2.5 1.9-4.2 1.9-2.3 0-4.1-1.4-4.5-3.9h11.4c0-.2.1-.8.1-1 0-4.5-2.5-8.4-7.5-8.4-4.4 0-7.6 3.7-7.6 8.1 0 4.8 3.5 8.1 8 8.1zm-4.4-9.3c.3-2.4 1.9-4.1 4-4.1 2.4 0 3.7 1.8 3.9 4.1h-7.9zm22.3 9.3c3 0 4.8-1.2 6.4-2.9l-2.2-2.1c-1.1 1.1-2.4 1.9-4 1.9-2.7 0-4.7-2.2-4.7-5s1.9-5 4.5-5c1.8 0 2.9.8 4 1.9l2.2-2.4c-1.4-1.6-3.3-2.7-6.2-2.7-4.7 0-8.1 3.7-8.1 8.1 0 4.5 3.5 8.2 8.1 8.2zm15-.1c2.4 0 3.9-1.3 4.9-2.7v2.4h3.6V90.8h-3.6v8.8c0 2.4-1.4 3.9-3.5 3.9s-3.3-1.4-3.3-3.8v-8.8H233v9.9c-.1 3.6 2 5.9 5.5 5.9zm12.9-.3h3.6v-5.9c0-4.1 2.2-6.2 5.3-6.2h.2v-3.8c-2.7-.1-4.5 1.5-5.5 3.8v-3.5h-3.6v15.6zm18.7.4c2.9 0 4.9-1.1 6.4-2.9l-2.1-1.9c-1.2 1.2-2.5 1.9-4.2 1.9-2.3 0-4.1-1.4-4.5-3.9h11.4c0-.2.1-.8.1-1 0-4.5-2.5-8.4-7.5-8.4-4.4 0-7.6 3.7-7.6 8.1.1 4.8 3.5 8.1 8 8.1zm-4.4-9.3c.3-2.4 1.9-4.1 4-4.1 2.4 0 3.7 1.8 3.9 4.1h-7.9zm21.5 9.2c2.5 0 4.2-1.3 5.3-2.9v2.6h3.6V84.9h-3.6v8.4c-1.1-1.4-2.7-2.7-5.3-2.7-3.7 0-7.2 2.9-7.2 8.1 0 5.1 3.6 8 7.2 8zm.9-3.1c-2.4 0-4.5-2-4.5-5 0-3.2 2-5 4.5-5 2.4 0 4.5 2 4.5 5s-2.1 5-4.5 5zm30.1 3.1c3.7 0 7.2-2.9 7.2-8.1 0-5.2-3.6-8.1-7.2-8.1-2.5 0-4.1 1.3-5.3 2.9v-8.5h-3.6v21.5h3.6V104c1.2 1.4 2.8 2.7 5.3 2.7zm-.8-3.1c-2.4 0-4.5-2-4.5-5s2.1-5 4.5-5 4.4 2 4.4 5c.1 3.1-1.9 5-4.4 5zm14.2 7.6c2.5 0 3.9-1.2 5.1-4.4l6.2-16h-3.7l-4 11.5-4.4-11.5H327l6.5 15.6c-.6 1.4-1.2 1.8-2.2 1.8-.7 0-1.4-.2-2.1-.6l-1.2 2.7c1 .5 2.1.9 3.6.9zM134.5 68.5c1.4 0 2.7-.4 3.9-1.1 2.3-1.4 3.5-3.8 3.5-6.4 0-2.7-1.3-5.2-3.7-6.6-1.1-.6-2.4-1-3.6-1-1.3 0-2.6.3-3.7 1-2.4 1.4-3.6 3.9-3.6 6.6 0 2.6 1.2 5 3.5 6.4 1 .8 2.4 1.1 3.7 1.1zm-33.2-10.4V46h6.5c1.7 0 3.1.6 4.3 1.8 1.2 1.2 1.8 2.6 1.8 4.2 0 1.7-.6 3.1-1.8 4.3-1.2 1.2-2.6 1.8-4.3 1.8h-6.5zm0 6.1h6.6c1.6 0 3.2-.3 4.7-1 1.4-.6 2.7-1.5 3.8-2.6 1.1-1.1 2-2.4 2.6-3.8.7-1.5 1-3.1 1-4.7s-.3-3.2-1-4.7c-.6-1.4-1.5-2.7-2.6-3.8-1.1-1.1-2.4-2-3.8-2.6-1.5-.7-3.1-1-4.7-1H95.3v33.6h6.1l-.1-9.4zm41 6.4c-2.1 2.2-5.1 3.4-8.2 3.4-7.3 0-12.6-5.9-12.6-13.1 0-7.2 5.3-13.1 12.6-13.1 3.1 0 6.1 1.2 8.2 3.5v-3.2h5.7v25.6h-5.7v-3.1zm30-.4c-1.8 2.2-4.7 3.2-7.5 3.2-7.5 0-11.2-5.1-11.2-12.3v-13h5.7v12.7c0 4.3 1.7 7 6.2 7 4.8 0 6.8-3.5 6.8-8V48h5.7v22c0 7.7-4.8 13-12.6 13-4.1 0-7.9-1.3-11-3.9l-.3-.3 3.3-3.6.3.2c2.5 1.5 4.9 2.3 7.8 2.3 4.3 0 6.8-2.3 6.8-6.6v-.9z"/><path class="st2" d="M269.8 55.1l.2-.4s0-.1.1-.1l.2-.3.1-.1v-.1l.1-.1c.1-.1.1-.2.2-.3l.1-.1.1-.1c.1-.1.2-.3.3-.4l.1-.1c2.4-3.1 6.1-5 10.1-5h.5c7.2.1 12.3 6 12.3 13.1 0 7.2-5.3 13.1-12.6 13.1-2.8 0-5.6-1.2-7.4-3.3V83h-5.7V60.6c.1-1.6.4-3.2 1-4.6v-.2l.1-.1.1-.1.1-.5zm-86.1-15.2h6.1v33.6h-6.1V39.9zM198 56.7l14 16.8h-8l-13.5-16.8L204 39.9h8l-14 16.8zm19.2 5.9c.2 4 3.4 6.1 7.3 6.1 2.7 0 5.4-.7 7.8-2.1l.3-.2 3.2 3.4-.3.3c-3.2 2.4-6.9 3.9-10.9 3.9-7.7 0-13.2-5.4-13.2-13.1 0-7.5 5.3-13.1 12.9-13.1 5.1 0 9.3 2.5 11.3 7.2.9 2 1.1 5.2.5 7.3l-.1.3h-18.8zm28.2 0c.2 4 3.4 6.1 7.3 6.1 2.7 0 5.4-.7 7.8-2.1l.3-.2 3.2 3.4-.3.3c-3.2 2.4-6.9 3.9-10.9 3.9-7.7 0-13.2-5.4-13.2-13.1 0-7.5 5.3-13.1 12.9-13.1 5.2 0 9.3 2.5 11.3 7.2.9 2 1.1 5.2.5 7.3l-.1.3h-18.8zm58.1 0c.2 4 3.4 6.1 7.3 6.1 2.7 0 5.4-.7 7.8-2.1l.3-.2 3.2 3.4-.3.3c-3.2 2.4-6.9 3.9-10.9 3.9-7.7 0-13.2-5.4-13.2-13.1 0-7.5 5.3-13.1 12.9-13.1 5.2 0 9.3 2.5 11.3 7.2.9 2 1.1 5.2.5 7.3l-.1.3h-18.8zm-29.4-1.7c0 10.4 14.3 9.5 14.3 0 .1-9.5-14.3-10.4-14.3 0zM217.5 58h13.2c-.1-.4-.3-.9-.4-1.3-1.1-2.4-3.4-3.7-6-3.7-2.9 0-5.6 1.6-6.6 4.4-.1.2-.1.4-.2.6zm28.2 0h13.2c-.1-.4-.3-.9-.4-1.3-1.1-2.4-3.4-3.7-6-3.7-2.9 0-5.6 1.6-6.6 4.4-.1.2-.1.4-.2.6zm58.1 0H317c-.1-.4-.3-.9-.4-1.3-1.1-2.4-3.4-3.7-6-3.7-2.9 0-5.6 1.6-6.6 4.4-.1.2-.1.4-.2.6zm28.8-6.5c2.3-2.5 5.5-3.7 8.9-3.7h1.3v5.7h-2.5c-5.5 0-7.8 3.7-7.8 8.8v11.3h-5.9V48.1h5.8v3.4z"/></g></svg>