<?xml version="1.0" encoding="utf-8"?>
<!-- Generator: Adobe Illustrator 26.0.2, SVG Export Plug-In . SVG Version: 6.00 Build 0)  -->
<svg version="1.1" id="Слой_1" xmlns="http://www.w3.org/2000/svg" xmlns:xlink="http://www.w3.org/1999/xlink" x="0px" y="0px"
	 viewBox="0 0 1240 142" style="enable-background:new 0 0 1240 142;" xml:space="preserve">
<style type="text/css">
	.st0{fill-rule:evenodd;clip-rule:evenodd;fill:#CC1626;}
	.st1{fill-rule:evenodd;clip-rule:evenodd;fill:#FFFFFF;}
	.st2{fill-rule:evenodd;clip-rule:evenodd;fill:#FFCC00;}
</style>
<g id="Слой_x0020_1">
	<polygon class="st0" points="6,14.3 376.6,14.3 376.6,132.2 6,132.2 	"/>
	<path class="st1" d="M54.9,73.6l16.8-16.8L54.9,39.9c4.2,0,8.4,0,12.6,0l16.8,16.8L67.4,73.6C63.3,73.6,59.1,73.6,54.9,73.6z
		 M32.7,73.6l16.8-16.8L32.7,39.9c4.2,0,8.4,0,12.6,0l16.8,16.8L45.3,73.6C41.1,73.6,36.9,73.6,32.7,73.6z"/>
	<path class="st1" d="M189.1,106.7c3.2,0,5.8-1.6,5.8-4.9c0-2.9-2.6-3.9-4.8-4.6c-0.1,0-0.2-0.1-0.3-0.1c-1.7-0.6-3.2-1-3.2-2.1
		c0-1,0.8-1.6,2.2-1.6c1.3,0,2.9,0.6,4.4,1.5l1.4-2.5c-1.7-1.1-3.8-1.8-5.7-1.8c-3.1,0-5.5,1.8-5.5,4.7c0,3,2.6,4,4.9,4.7
		c0.1,0,0.2,0.1,0.3,0.1c1.7,0.5,3.2,0.9,3.2,2.1c0,1.1-0.9,1.7-2.4,1.7c-1.6,0-3.4-0.6-5.1-1.9l-1.6,2.4
		C184.4,105.9,186.9,106.7,189.1,106.7z M205.6,106.8c2.9,0,4.9-1.1,6.4-2.9l-2.1-1.9c-1.2,1.2-2.5,1.9-4.2,1.9
		c-2.3,0-4.1-1.4-4.5-3.9h11.4c0-0.2,0.1-0.8,0.1-1c0-4.5-2.5-8.4-7.5-8.4c-4.4,0-7.6,3.7-7.6,8.1
		C197.6,103.5,201.1,106.8,205.6,106.8z M201.2,97.5c0.3-2.4,1.9-4.1,4-4.1c2.4,0,3.7,1.8,3.9,4.1H201.2z M223.5,106.8
		c3,0,4.8-1.2,6.4-2.9l-2.2-2.1c-1.1,1.1-2.4,1.9-4,1.9c-2.7,0-4.7-2.2-4.7-5c0-2.8,1.9-5,4.5-5c1.8,0,2.9,0.8,4,1.9l2.2-2.4
		c-1.4-1.6-3.3-2.7-6.2-2.7c-4.7,0-8.1,3.7-8.1,8.1C215.4,103.1,218.9,106.8,223.5,106.8z M238.5,106.7c2.4,0,3.9-1.3,4.9-2.7v2.4
		h3.6V90.8h-3.6v8.8c0,2.4-1.4,3.9-3.5,3.9c-2.1,0-3.3-1.4-3.3-3.8v-8.8h-3.6v9.9C232.9,104.4,235,106.7,238.5,106.7z M251.4,106.4
		h3.6v-5.9c0-4.1,2.2-6.2,5.3-6.2h0.2v-3.8c-2.7-0.1-4.5,1.5-5.5,3.8v-3.5h-3.6V106.4z M270.1,106.8c2.9,0,4.9-1.1,6.4-2.9l-2.1-1.9
		c-1.2,1.2-2.5,1.9-4.2,1.9c-2.3,0-4.1-1.4-4.5-3.9h11.4c0-0.2,0.1-0.8,0.1-1c0-4.5-2.5-8.4-7.5-8.4c-4.4,0-7.6,3.7-7.6,8.1
		C262.2,103.5,265.6,106.8,270.1,106.8z M265.7,97.5c0.3-2.4,1.9-4.1,4-4.1c2.4,0,3.7,1.8,3.9,4.1H265.7z M287.2,106.7
		c2.5,0,4.2-1.3,5.3-2.9v2.6h3.6V84.9h-3.6v8.4c-1.1-1.4-2.7-2.7-5.3-2.7c-3.7,0-7.2,2.9-7.2,8.1C280,103.8,283.6,106.7,287.2,106.7
		z M288.1,103.6c-2.4,0-4.5-2-4.5-5c0-3.2,2-5,4.5-5c2.4,0,4.5,2,4.5,5C292.6,101.6,290.5,103.6,288.1,103.6z M318.2,106.7
		c3.7,0,7.2-2.9,7.2-8.1c0-5.2-3.6-8.1-7.2-8.1c-2.5,0-4.1,1.3-5.3,2.9v-8.5h-3.6v21.5h3.6V104C314.1,105.4,315.7,106.7,318.2,106.7
		z M317.4,103.6c-2.4,0-4.5-2-4.5-5c0-3,2.1-5,4.5-5c2.4,0,4.4,2,4.4,5C321.9,101.7,319.9,103.6,317.4,103.6z M331.6,111.2
		c2.5,0,3.9-1.2,5.1-4.4l6.2-16h-3.7l-4,11.5l-4.4-11.5h-3.8l6.5,15.6c-0.6,1.4-1.2,1.8-2.2,1.8c-0.7,0-1.4-0.2-2.1-0.6l-1.2,2.7
		C329,110.8,330.1,111.2,331.6,111.2z"/>
	<path class="st1" d="M134.5,68.5c1.4,0,2.7-0.4,3.9-1.1c2.3-1.4,3.5-3.8,3.5-6.4c0-2.7-1.3-5.2-3.7-6.6c-1.1-0.6-2.4-1-3.6-1
		c-1.3,0-2.6,0.3-3.7,1c-2.4,1.4-3.6,3.9-3.6,6.6c0,2.6,1.2,5,3.5,6.4C131.8,68.2,133.2,68.5,134.5,68.5z M101.3,58.1V46h6.5
		c1.7,0,3.1,0.6,4.3,1.8l0,0c1.2,1.2,1.8,2.6,1.8,4.2c0,1.7-0.6,3.1-1.8,4.3c-1.2,1.2-2.6,1.8-4.3,1.8l-1.2,0H101.3z M101.3,64.2
		h5.4h1.2c1.6,0,3.2-0.3,4.7-1c1.4-0.6,2.7-1.5,3.8-2.6c1.1-1.1,2-2.4,2.6-3.8c0.7-1.5,1-3.1,1-4.7c0-1.6-0.3-3.2-1-4.7
		c-0.6-1.4-1.5-2.7-2.6-3.8c-1.1-1.1-2.4-2-3.8-2.6c-1.5-0.7-3.1-1-4.7-1l-12.6,0l0,33.6l6.1,0L101.3,64.2z M142.3,70.6
		c-2.1,2.2-5.1,3.4-8.2,3.4c-7.3,0-12.6-5.9-12.6-13.1c0-7.2,5.3-13.1,12.6-13.1c3.1,0,6.1,1.2,8.2,3.5v-3.2h5.7l0,25.6h-5.7V70.6z
		 M172.3,70.2c-1.8,2.2-4.7,3.2-7.5,3.2c-7.5,0-11.2-5.1-11.2-12.3l0-13h5.7l0,12.7c0,4.3,1.7,7,6.2,7c4.8,0,6.8-3.5,6.8-8l0-11.8
		l5.7,0l0,22c0,7.7-4.8,13-12.6,13c-4.1,0-7.9-1.3-11-3.9l-0.3-0.3l3.3-3.6l0.3,0.2c2.5,1.5,4.9,2.3,7.8,2.3c4.3,0,6.8-2.3,6.8-6.6
		V70.2z"/>
	<path class="st2" d="M269.8,55.1L269.8,55.1l0.2-0.4c0,0,0-0.1,0.1-0.1c0,0,0,0,0,0l0.2-0.3l0,0l0.1-0.1l0-0.1l0.1-0.1l0,0
		c0.1-0.1,0.1-0.2,0.2-0.3l0,0c0,0,0.1-0.1,0.1-0.1l0,0l0.1-0.1l0,0c0.1-0.1,0.2-0.3,0.3-0.4l0,0c0,0,0.1-0.1,0.1-0.1l0,0
		c2.4-3.1,6.1-5,10.1-5h0.5v0c7.2,0.1,12.3,6,12.3,13.1c0,7.2-5.3,13.1-12.6,13.1c-2.8,0-5.6-1.2-7.4-3.3v12.1h-5.7l0-22.4h0
		c0.1-1.6,0.4-3.2,1-4.6l0,0l0-0.1l0-0.1l0.1-0.1l0.1-0.1L269.8,55.1z M183.7,39.9h6.1l0,33.6h-6.1L183.7,39.9z M198,56.7l14,16.8
		l-8,0l-13.5-16.8L204,39.9l8,0L198,56.7z M217.2,62.6c0.2,4,3.4,6.1,7.3,6.1c2.7,0,5.4-0.7,7.8-2.1l0.3-0.2l3.2,3.4l-0.3,0.3
		c-3.2,2.4-6.9,3.9-10.9,3.9c-7.7,0-13.2-5.4-13.2-13.1c0-7.5,5.3-13.1,12.9-13.1c5.1,0,9.3,2.5,11.3,7.2c0.9,2,1.1,5.2,0.5,7.3
		l-0.1,0.3L217.2,62.6z M245.4,62.6c0.2,4,3.4,6.1,7.3,6.1c2.7,0,5.4-0.7,7.8-2.1l0.3-0.2l3.2,3.4l-0.3,0.3
		c-3.2,2.4-6.9,3.9-10.9,3.9c-7.7,0-13.2-5.4-13.2-13.1c0-7.5,5.3-13.1,12.9-13.1c5.2,0,9.3,2.5,11.3,7.2c0.9,2,1.1,5.2,0.5,7.3
		l-0.1,0.3L245.4,62.6z M303.5,62.6c0.2,4,3.4,6.1,7.3,6.1c2.7,0,5.4-0.7,7.8-2.1l0.3-0.2l3.2,3.4l-0.3,0.3
		c-3.2,2.4-6.9,3.9-10.9,3.9c-7.7,0-13.2-5.4-13.2-13.1c0-7.5,5.3-13.1,12.9-13.1c5.2,0,9.3,2.5,11.3,7.2c0.9,2,1.1,5.2,0.5,7.3
		l-0.1,0.3H303.5z M274.1,60.9c0,10.4,14.3,9.5,14.3,0C288.5,51.4,274.1,50.5,274.1,60.9z M217.5,58h13.2c-0.1-0.4-0.3-0.9-0.4-1.3
		c-1.1-2.4-3.4-3.7-6-3.7c-2.9,0-5.6,1.6-6.6,4.4C217.6,57.6,217.6,57.8,217.5,58z M245.7,58h13.2c-0.1-0.4-0.3-0.9-0.4-1.3
		c-1.1-2.4-3.4-3.7-6-3.7c-2.9,0-5.6,1.6-6.6,4.4C245.8,57.6,245.8,57.8,245.7,58z M303.8,58H317c-0.1-0.4-0.3-0.9-0.4-1.3
		c-1.1-2.4-3.4-3.7-6-3.7c-2.9,0-5.6,1.6-6.6,4.4C303.9,57.6,303.9,57.8,303.8,58z M332.6,51.5c2.3-2.5,5.5-3.7,8.9-3.7h1.3v5.7
		h-2.5c-5.5,0-7.8,3.7-7.8,8.8v11.3h-5.9l0-25.5h5.8V51.5z"/>
</g>
</svg>
