<svg width="16" height="17" viewBox="0 0 16 17" fill="none" xmlns="http://www.w3.org/2000/svg">
<g clip-path="url(#clip0_1266_64383)">
<path d="M5.33203 3.16683V11.1668C5.33203 11.5205 5.47251 11.8596 5.72256 12.1096C5.9726 12.3597 6.31174 12.5002 6.66536 12.5002H11.9987C12.3523 12.5002 12.6915 12.3597 12.9415 12.1096C13.1916 11.8596 13.332 11.5205 13.332 11.1668V5.32816C13.332 5.15054 13.2965 4.9747 13.2276 4.81099C13.1587 4.64728 13.0577 4.49899 12.9307 4.37483L10.7207 2.2135C10.4716 1.96993 10.1371 1.83354 9.7887 1.8335H6.66536C6.31174 1.8335 5.9726 1.97397 5.72256 2.22402C5.47251 2.47407 5.33203 2.81321 5.33203 3.16683V3.16683Z" stroke="white" stroke-width="2" stroke-linecap="round" stroke-linejoin="round"/>
<path d="M10.666 12.5003V13.8337C10.666 14.1873 10.5255 14.5264 10.2755 14.7765C10.0254 15.0265 9.6863 15.167 9.33268 15.167H3.99935C3.64573 15.167 3.30659 15.0265 3.05654 14.7765C2.80649 14.5264 2.66602 14.1873 2.66602 13.8337V6.50033C2.66602 6.1467 2.80649 5.80756 3.05654 5.55752C3.30659 5.30747 3.64573 5.16699 3.99935 5.16699H5.33268" stroke="white" stroke-width="2" stroke-linecap="round" stroke-linejoin="round"/>
</g>
<defs>
<clipPath id="clip0_1266_64383">
<rect width="16" height="16" fill="white" transform="translate(0 0.5)"/>
</clipPath>
</defs>
</svg>
