<svg width="24" height="24" viewBox="0 0 24 24" fill="none" xmlns="http://www.w3.org/2000/svg">
<path fill-rule="evenodd" clip-rule="evenodd" d="M7 12.001C7 13.6578 5.65685 15.001 4 15.001C2.34315 15.001 1 13.6578 1 12.001C1 10.3441 2.34315 9.00098 4 9.00098C5.65685 9.00098 7 10.3441 7 12.001ZM15 12.001C15 13.6578 13.6569 15.001 12 15.001C10.3431 15.001 9 13.6578 9 12.001C9 10.3441 10.3431 9.00098 12 9.00098C13.6569 9.00098 15 10.3441 15 12.001ZM20 15.001C21.6569 15.001 23 13.6578 23 12.001C23 10.3441 21.6569 9.00098 20 9.00098C18.3431 9.00098 17 10.3441 17 12.001C17 13.6578 18.3431 15.001 20 15.001Z" fill="#C4C4C4"/>
</svg>
