<svg width="16" height="16" viewBox="0 0 16 16" fill="none" xmlns="http://www.w3.org/2000/svg">
<path d="M7.98704 7.99836H7.99039L8.03219 8C9.66873 8 11 6.6541 11 4.99984C11 3.34687 9.67065 2.00205 8.01635 2.00205H8.0127L7.96755 2C6.33101 2 5 3.3459 5 5.00016C5.0002 6.65345 6.32984 7.99874 7.98703 7.99847L7.98704 7.99836ZM7.95478 2.75951L8.03239 2.75982C9.25398 2.75982 10.2482 3.76458 10.2482 4.99959C10.2482 6.2347 9.25388 7.23965 8.03239 7.23965V7.23975L7.96767 7.23965C6.74608 7.23965 5.75224 6.2347 5.75195 4.99959C5.75195 3.76458 6.74597 2.75992 7.95478 2.75953L7.95478 2.75951Z" fill="#222222"/>
<path d="M11.1798 8.55654C10.9519 8.48365 10.7335 8.44873 10.5119 8.44873H5.48734C5.26938 8.44873 5.04509 8.485 4.82028 8.55654C4.03076 8.80853 3.5 9.47661 3.5 10.2196V14H12.4991L12.5 10.2199C12.5003 9.47698 11.9699 8.80865 11.1798 8.55654ZM11.5596 13.1626H4.4398V10.2199C4.4398 9.82974 4.71988 9.47806 5.13652 9.34519C5.2609 9.30609 5.37629 9.28665 5.48837 9.28665L10.5129 9.28654C10.6249 9.28654 10.7396 9.30575 10.864 9.34507C11.2812 9.47808 11.5606 9.82916 11.56 10.2198L11.5596 13.1626Z" fill="#222222"/>
</svg>
