<svg width="16" height="16" viewBox="0 0 16 16" fill="none" xmlns="http://www.w3.org/2000/svg">
<path fill-rule="evenodd" clip-rule="evenodd" d="M8.00005 2.05029C4.71915 2.05029 2.05005 4.71939 2.05005 8.00029C2.05005 11.2812 4.71915 13.9503 8.00005 13.9503C11.2809 13.9503 13.95 11.2812 13.95 8.00029C13.95 4.71939 11.2809 2.05029 8.00005 2.05029M8 15.0005C4.1402 15.0005 1 11.8603 1 8.00049C1 4.14069 4.1402 1.00049 8 1.00049C11.8598 1.00049 15 4.14069 15 8.00049C15 11.8603 11.8598 15.0005 8 15.0005" fill="black"/>
<path fill-rule="evenodd" clip-rule="evenodd" d="M7.9957 8.96166C7.7059 8.96166 7.4707 8.72646 7.4707 8.43666V5.34336C7.4707 5.05356 7.7059 4.81836 7.9957 4.81836C8.2855 4.81836 8.5207 5.05356 8.5207 5.34336V8.43666C8.5207 8.72646 8.2855 8.96166 7.9957 8.96166" fill="black"/>
<path fill-rule="evenodd" clip-rule="evenodd" d="M8.00282 11.3575C7.61572 11.3575 7.29932 11.0446 7.29932 10.6575C7.29932 10.2704 7.60942 9.95752 7.99582 9.95752H8.00282C8.38992 9.95752 8.70282 10.2704 8.70282 10.6575C8.70282 11.0446 8.38992 11.3575 8.00282 11.3575" fill="black"/>
</svg>
