<svg width="20" height="20" xmlns="http://www.w3.org/2000/svg" stroke="null">
 <g id="Layer_1">
  <title>Layer 1</title>
  <g id="svg_1">
   <path id="svg_2" d="m15.88283,5.8562c-0.3149,-0.54397 -0.7443,-0.83026 -1.2597,-0.85889c-0.2863,-0.02863 -0.6012,0.02863 -0.8875,0.14314c-0.2004,0.05726 -0.3722,0.17178 -0.544,0.25767c-0.1145,-0.08589 -0.229,-0.17178 -0.3721,-0.22904l-2.92029,-1.08793c-0.45808,-0.17178 -0.97341,-0.05726 -1.31697,0.2863l-5.66871,5.72597c-0.48671,0.48671 -0.48671,1.28834 0,1.74642l4.00818,4.00819c0.22904,0.229 0.54397,0.3722 0.88752,0.3722c0.34356,0 0.65849,-0.1432 0.88753,-0.3722l5.69714,-5.69719c0.3436,-0.34356 0.4581,-0.85889 0.2863,-1.31697l-1.0879,-2.92025c0,-0.02863 -0.0286,-0.02863 -0.0286,-0.05726c0.1717,-0.08588 0.3435,-0.17177 0.5153,-0.22903c0.1718,-0.05726 0.3436,-0.08589 0.5153,-0.05726c0.3436,0.02863 0.6013,0.22904 0.8303,0.60122c0.1145,0.20041 0.1432,0.40082 0.0859,0.60123c-0.1145,0.2863 -0.4008,0.5726 -0.7157,0.80164l0.2004,0.54396c0.4008,-0.25767 0.8875,-0.65848 1.0306,-1.14519c0.1146,-0.40082 0.0861,-0.74454 -0.143,-1.11673zm-5.92617,3.34986l-0.22903,0.22904c0.11452,0.17177 0.17178,0.40081 0.17178,0.62985c0,0.31493 -0.11452,0.62986 -0.34356,0.8589c-0.05726,0.05726 -0.14315,0.08589 -0.20041,0.08589c-0.08589,0 -0.14315,-0.02863 -0.20041,-0.08589c-0.11452,-0.11452 -0.11452,-0.2863 0,-0.40082c0.11452,-0.11452 0.17178,-0.2863 0.17178,-0.45808c0,-0.17178 -0.05726,-0.31493 -0.17178,-0.45808c-0.22904,-0.22903 -0.65849,-0.22903 -0.88753,0c-0.11452,0.11452 -0.17177,0.2863 -0.17177,0.45808c0,0.17178 0.05725,0.31493 0.17177,0.45808c0.22904,0.22904 0.34356,0.51534 0.34356,0.85889c0,0.31493 -0.11452,0.62986 -0.34356,0.8589c-0.22903,0.22904 -0.54396,0.34356 -0.85889,0.34356c-0.22904,0 -0.42945,-0.05726 -0.62986,-0.17178l-0.22904,0.20041c-0.05726,0.05726 -0.14315,0.08589 -0.20041,0.08589c-0.08588,0 -0.14314,-0.02863 -0.2004,-0.08589c-0.11452,-0.11452 -0.11452,-0.2863 0,-0.40082l0.22903,-0.22904c-0.11451,-0.20041 -0.17177,-0.40082 -0.17177,-0.62986c0,-0.31492 0.11452,-0.62985 0.34355,-0.85889c0.11452,-0.11452 0.2863,-0.11452 0.40082,0c0.11452,0.11452 0.11452,0.2863 0,0.40082c-0.11452,0.11452 -0.17178,0.2863 -0.17178,0.45807c0,0.17178 0.05726,0.31493 0.17178,0.45808c0.11452,0.11452 0.2863,0.17178 0.42945,0.17178c0.17178,0 0.31493,-0.05726 0.42945,-0.17178c0.11452,-0.11452 0.20041,-0.2863 0.20041,-0.45808c0,-0.17177 -0.05726,-0.31492 -0.20041,-0.45807c-0.14315,-0.14315 -0.34356,-0.51534 -0.34356,-0.8589c0,-0.34356 0.11452,-0.62985 0.34356,-0.85889c0.22904,-0.22904 0.54396,-0.34356 0.85889,-0.34356c0.22904,0 0.42945,0.05726 0.62986,0.17178l0.22904,-0.22904c0.11452,-0.11452 0.2863,-0.11452 0.40082,0c0.11451,0.14315 0.11451,0.31493 0.02862,0.42945zm2.80577,-2.06135c0,0.31493 -0.1146,0.60122 -0.3436,0.83026c-0.22904,0.22904 -0.51533,0.34356 -0.83026,0.34356c-0.31493,0 -0.60123,-0.11452 -0.83027,-0.34356c-0.22904,-0.22904 -0.34356,-0.51533 -0.34356,-0.83026c0,-0.31493 0.11452,-0.60123 0.34356,-0.83027c0.22904,-0.22904 0.51534,-0.34356 0.83027,-0.34356c0.20041,0 0.40081,0.05726 0.60122,0.17178c-0.17178,0.14315 -0.31493,0.31493 -0.45807,0.42945c-0.05726,0 -0.08589,-0.02863 -0.14315,-0.02863c-0.17178,0 -0.31493,0.05726 -0.42945,0.17178c-0.11452,0.11452 -0.17178,0.25767 -0.17178,0.42945c0,0.14315 0.05726,0.31493 0.17178,0.42945c0.22904,0.22903 0.60123,0.22903 0.83026,0c0.11452,-0.11452 0.17178,-0.25767 0.17178,-0.42945c0,-0.05726 0,-0.11452 -0.02863,-0.17178c0.11452,-0.11452 0.2863,-0.25767 0.4295,-0.40082c0.1431,0.14315 0.2004,0.34356 0.2004,0.5726z" fill="#256FFB"/>
   <path id="svg_3" d="m9.95666,9.20606l-0.22903,0.22904c0.11452,0.17177 0.17178,0.40081 0.17178,0.62985c0,0.31493 -0.11452,0.62986 -0.34356,0.8589c-0.05726,0.05726 -0.14315,0.08589 -0.20041,0.08589c-0.08589,0 -0.14315,-0.02863 -0.20041,-0.08589c-0.11452,-0.11452 -0.11452,-0.2863 0,-0.40082c0.11452,-0.11452 0.17178,-0.2863 0.17178,-0.45808c0,-0.17178 -0.05726,-0.31493 -0.17178,-0.45808c-0.22904,-0.22903 -0.65849,-0.22903 -0.88753,0c-0.11452,0.11452 -0.17177,0.2863 -0.17177,0.45808c0,0.17178 0.05725,0.31493 0.17177,0.45808c0.22904,0.22904 0.34356,0.51534 0.34356,0.85889c0,0.31493 -0.11452,0.62986 -0.34356,0.8589c-0.22903,0.22904 -0.54396,0.34356 -0.85889,0.34356c-0.22904,0 -0.42945,-0.05726 -0.62986,-0.17178l-0.22904,0.20041c-0.05726,0.05726 -0.14315,0.08589 -0.20041,0.08589c-0.08588,0 -0.14314,-0.02863 -0.2004,-0.08589c-0.11452,-0.11452 -0.11452,-0.2863 0,-0.40082l0.22903,-0.22904c-0.11451,-0.20041 -0.17177,-0.40082 -0.17177,-0.62986c0,-0.31492 0.11452,-0.62985 0.34355,-0.85889c0.11452,-0.11452 0.2863,-0.11452 0.40082,0c0.11452,0.11452 0.11452,0.2863 0,0.40082c-0.11452,0.11452 -0.17178,0.2863 -0.17178,0.45807c0,0.17178 0.05726,0.31493 0.17178,0.45808c0.11452,0.11452 0.2863,0.17178 0.42945,0.17178c0.17178,0 0.31493,-0.05726 0.42945,-0.17178c0.11452,-0.11452 0.20041,-0.2863 0.20041,-0.45808c0,-0.17177 -0.05726,-0.31492 -0.20041,-0.45807c-0.22904,-0.22904 -0.34356,-0.51534 -0.34356,-0.8589c0,-0.34356 0.11452,-0.62985 0.34356,-0.85889c0.22904,-0.22904 0.54396,-0.34356 0.85889,-0.34356c0.22904,0 0.42945,0.05726 0.62986,0.17178l0.22904,-0.22904c0.11452,-0.11452 0.2863,-0.11452 0.40082,0c0.11451,0.14315 0.11451,0.31493 0.02862,0.42945z" fill="#256FFB"/>
  </g>
  <path d="m8.92733,11.05941c0,0.21277 -0.42553,0.42553 -0.42553,0.6383c0,0.21277 0,0.42553 0,0.85106c0,0.42553 -0.06523,1.17898 0.21277,1.06383c0.39314,-0.16284 0,-0.85106 0,-1.2766c0,-0.6383 0.14665,-1.7192 0,-2.34043c-0.10931,-0.46303 0,-0.85106 -0.21277,-0.85106c-0.21277,0 0.04888,0.43122 0,0.6383c-0.21861,0.92606 -0.18127,1.75072 -0.42553,2.34043c-0.2303,0.55598 -0.34411,0.19657 -0.42553,0c-0.2303,-0.55598 -0.42553,-0.6383 -0.6383,-0.6383c-0.21277,0 -0.42553,0 -0.6383,0c-0.21277,0 -0.93919,-0.12464 -0.6383,-0.42553c0.15045,-0.15045 0.42553,-0.42553 0.6383,-0.42553c0.21277,0 0.48785,-0.15045 0.6383,0c0.15045,0.15045 0.09762,0.36031 0.21277,0.6383c0.08142,0.19657 0,0.42553 0,0.6383c0,0.21277 0,0.42553 -0.21277,0.42553l-0.21277,0l0.21277,-0.21277" id="svg_4" stroke="#256ffb" fill="none"/>
  <path stroke="#256ffb" d="m9.49238,11.16751c-0.0203,0 -0.00782,-0.13929 -0.06091,-0.50761c-0.05037,-0.34942 -0.11154,-0.69833 -0.12183,-1.01523c-0.00325,-0.10021 -0.0203,0 -0.0203,0.10152c0,0.10152 0,0.30457 0,0.71066l0.0203,0.20305l0.0203,0.30457l0.0203,0" id="svg_5" fill="none"/>
  <path d="m7.96954,8.52792c0,0.20305 -0.08826,0.31764 0,0.60914c0.21215,0.70068 0.56337,1.01068 0.9137,1.11675c0.19433,0.05884 0.06905,-1.27994 -0.9137,-1.72589c-0.09245,-0.04195 -0.47974,-0.17177 -1.11675,0.20305c-0.12374,0.07281 -0.10152,0.40609 -0.10152,0.71066c0,0.20305 -0.09073,0.46628 0.40609,1.11675c0.08715,0.1141 0.20436,0.11778 0.30457,0.10152c0.3169,-0.05142 0.45619,-0.49529 0.50761,-0.81218c0.01626,-0.10021 -0.00773,-0.34342 -0.10152,-0.30457c-0.13265,0.05494 -0.25314,0.39376 -0.30457,0.71066c-0.04879,0.30064 -0.10152,0.50761 0,0.50761c0.20304,0 0.09966,-0.27533 0.20305,-0.81218c0.0768,-0.39876 -0.00773,-0.64799 -0.10152,-0.60914c-0.13265,0.05494 -0.26554,0.22503 -0.50761,0.60914c-0.61717,0.97929 -0.71066,1.11675 -0.71066,1.3198c0,0.20305 -0.04658,0.37497 -0.10152,0.50761c-0.0777,0.18759 0.04937,0.3882 0.10152,0.60914c0.02333,0.09881 0.13126,0.17331 0.20305,0.10152c0.14358,-0.14357 0.14371,-0.44213 0,-0.71066c-0.17272,-0.32273 -0.41152,-0.24969 -0.60914,-0.20304c-0.22094,0.05216 -0.42942,0.30728 -0.40609,0.40609c0.05216,0.22094 0.30457,0.20305 1.42132,0.20305c0.81218,0 1.46419,0.18161 1.82741,0c0.45402,-0.22701 0.50761,-0.40609 0.50761,-0.50761c0,-0.10152 0.15089,-0.28667 0.20305,-0.50761c0.04665,-0.19761 0,-0.30457 0,-0.50761c0,-0.20305 0,-0.50761 0,-0.60914c0,-0.20304 0.03721,-0.30685 0,-0.60914c-0.05114,-0.41545 -0.1564,-0.41152 -0.20305,-0.60914c-0.05216,-0.22094 -0.18515,-0.66129 -0.40609,-0.60914c-0.09881,0.02332 0.10152,0.20305 0.30457,0.50761c0.20304,0.30457 0.38277,0.51033 0.40609,0.60914c0.05216,0.22094 0.23278,0.27483 0.30457,0.20305c0.07179,-0.07179 -0.07179,-0.3343 0,-0.40609c0.07179,-0.07179 0.13126,0.13126 0.20304,0.20305c0.14357,0.14357 0,0.40609 0,0.71066c0,0.30457 -0.10152,0.71066 -0.10152,0.81218c0,0.20304 -0.10152,0.20304 -0.20305,0.20304c-0.10152,0 -0.25241,-0.08363 -0.30457,-0.30457c-0.04665,-0.19761 -0.10152,-0.40609 -0.10152,-0.60914c0,-0.40609 0,-0.50761 0,-0.60914c0,-0.10152 0,-0.20305 0,-0.10152c0,0.20305 -0.17346,0.91795 -0.30457,1.72589c-0.08292,0.51098 -0.13126,0.63887 -0.20304,0.71066c-0.07179,0.07179 -0.28913,-0.31266 -0.50761,-0.71066c-0.28486,-0.51893 -0.4033,-1.18249 -0.50761,-1.62436c-0.0933,-0.39523 0.03211,-0.72007 -0.10152,-1.11675c-0.24683,-0.73271 -0.44537,-1.20991 -0.71066,-1.3198c-0.18759,-0.0777 -0.35393,0.08363 -0.40609,0.30457c-0.0933,0.39523 0,0.9137 0,1.3198c0,0.40609 0.24214,0.6469 0.50761,1.01523c0.08395,0.11647 0.39941,0.62379 0.60914,0.71066c0.29661,0.12286 0.52678,0.16088 0.60914,0.10152c0.26044,-0.18772 0.35393,-0.59124 0.40609,-0.81218c0.04665,-0.19761 0,-0.50761 0,-0.60914c0,-0.20304 -0.04658,-0.27345 -0.10152,-0.40609c-0.03885,-0.09379 -0.20305,-0.20305 -0.30457,-0.20305c-0.10152,0 -0.35495,0.09216 -0.40609,0.50761c-0.03721,0.30229 0.01932,0.59711 0.20304,0.9137c0.11394,0.19634 0.30457,0.40609 0.50761,0.50761c0.60914,0.30457 1.14649,0.5794 1.21827,0.50761c0.07179,-0.07179 0,-0.30457 0,-0.50761c0,-0.30457 0.03121,-0.42497 -0.10152,-0.60914c-0.08395,-0.11647 -0.17559,-0.22628 -0.60914,-0.71066c-0.19151,-0.21396 -0.28124,-0.30728 -0.30457,-0.40609c-0.05216,-0.22094 -0.17183,-0.32345 -0.30457,-0.50761c-0.08395,-0.11647 -0.20305,-0.10152 -0.30457,-0.10152c-0.10152,0 -0.22404,0.18403 -0.40609,0.40609c-0.23207,0.28308 -0.40609,0.81218 -0.40609,1.01523c0,0.40609 0.05038,0.80282 0.10152,1.21827c0.02481,0.20152 0.10381,0.34178 0.40609,0.30457c0.41545,-0.05114 0.74713,-0.7159 0.81218,-1.11675c0.05143,-0.3169 0.21821,-0.45424 0.30457,-0.50761c0.19311,-0.11935 0.10152,-0.50761 0.10152,-0.71066c0,-0.20305 0,-0.40609 0,-0.50761c0,-0.10152 0.20305,-0.50761 0,-0.50761c-0.10152,0 0,0.20305 0,0.50761c0,0.40609 0,1.11675 0,1.52284c0,0.40609 -0.0215,0.67162 -0.10152,0.60914c-0.65987,-0.51521 -0.55813,-1.61683 -0.60914,-2.13198c-0.06002,-0.60617 -0.04937,-0.99733 -0.10152,-1.21827c-0.02332,-0.09881 -0.06186,0.08096 -0.20305,0.60914c-0.18538,0.69352 -0.42987,1.20148 -0.71066,1.62436c-0.23154,0.34872 -0.06267,0.51534 -0.10152,0.60914c-0.05494,0.13265 -0.06673,0.00052 0.81218,-0.50761c0.66936,-0.38699 1.26033,-0.77013 1.11675,-0.9137c-0.14357,-0.14357 -0.34406,-0.03493 -0.60914,0.30457c-0.36431,0.4666 -0.45619,0.59681 -0.50761,0.9137c-0.03252,0.20042 0,0.50761 0,0.71066l0.20305,0.20305" id="svg_6" stroke="#256ffb" fill="none"/>
 </g>

</svg>