<svg width="20" height="20" viewBox="0 0 20 20" fill="none" xmlns="http://www.w3.org/2000/svg">
<path fill-rule="evenodd" clip-rule="evenodd" d="M6.69762 16.9167C6.35346 16.9167 6.01179 16.8083 5.71929 16.595C5.21429 16.225 4.96679 15.6142 5.07429 14.9992L5.65429 11.6575C5.67596 11.5333 5.63346 11.4075 5.54179 11.3192L3.07846 8.9525C2.62513 8.51833 2.46263 7.87667 2.65429 7.28083C2.84763 6.67833 3.35929 6.2475 3.99013 6.1575L7.39679 5.66667C7.52846 5.64833 7.64179 5.5675 7.69846 5.4525L9.22096 2.40917C9.50179 1.84833 10.0685 1.5 10.7001 1.5C11.3318 1.5 11.8985 1.84833 12.1793 2.40917L13.7026 5.45167C13.7601 5.5675 13.8726 5.64833 14.0035 5.66667L17.4101 6.1575C18.041 6.2475 18.5526 6.67833 18.746 7.28083C18.9376 7.87667 18.7743 8.51833 18.321 8.9525L15.8576 11.3192C15.766 11.4075 15.7243 11.5333 15.746 11.6567L16.3268 14.9992C16.4335 15.615 16.186 16.2258 15.6801 16.595C15.1676 16.9708 14.5001 17.0217 13.9343 16.7267L10.8901 15.1492C10.771 15.0875 10.6285 15.0875 10.5093 15.1492L7.46512 16.7275C7.22179 16.8542 6.95929 16.9167 6.69762 16.9167Z" fill="#FC6733"/>
</svg>
